NotoSansKhmerUI-Light.ufo
<glyph name="exclam" format="2">
  <advance width="223"/>
  <unicode hex="0021"/>
  <note>
exclam
</note>
  <outline>
    <contour>
      <point x="124" y="418" type="line"/>
      <point x="126" y="958" type="line"/>
      <point x="98" y="958" type="line"/>
      <point x="100" y="418" type="line"/>
    </contour>
    <contour>
      <point x="85" y="267" type="curve" smooth="yes"/>
      <point x="85" y="250"/>
      <point x="90" y="236"/>
      <point x="110" y="236" type="curve" smooth="yes"/>
      <point x="134" y="236"/>
      <point x="137" y="250"/>
      <point x="137" y="267" type="curve" smooth="yes"/>
      <point x="137" y="283"/>
      <point x="134" y="298"/>
      <point x="110" y="298" type="curve" smooth="yes"/>
      <point x="90" y="298"/>
      <point x="85" y="283"/>
    </contour>
  </outline>
</glyph>
<glyph name="parenright" format="2">
  <advance width="255"/>
  <unicode hex="0029"/>
  <note>
parenright
</note>
  <outline>
    <contour>
      <point x="214" y="526" type="curve" smooth="yes"/>
      <point x="214" y="701"/>
      <point x="160" y="846"/>
      <point x="69" y="958" type="curve"/>
      <point x="36" y="958" type="line"/>
      <point x="137" y="839"/>
      <point x="187" y="691"/>
      <point x="187" y="525" type="curve" smooth="yes"/>
      <point x="187" y="357"/>
      <point x="139" y="204"/>
      <point x="36" y="86" type="curve"/>
      <point x="69" y="86" type="line"/>
      <point x="160" y="194"/>
      <point x="214" y="349"/>
    </contour>
  </outline>
</glyph>
<glyph name="comma" format="2">
  <advance width="183"/>
  <unicode hex="002C"/>
  <note>
comma
</note>
  <outline>
    <contour>
      <point x="122" y="360" type="line"/>
      <point x="94" y="360" type="line"/>
      <point x="83" y="284"/>
      <point x="67" y="212"/>
      <point x="38" y="115" type="curve"/>
      <point x="60" y="115" type="line"/>
      <point x="88" y="184"/>
      <point x="110" y="274"/>
      <point x="125" y="348" type="curve"/>
    </contour>
  </outline>
</glyph>
<glyph name="hyphen" format="2">
  <advance width="322"/>
  <unicode hex="002D"/>
  <note>
hyphen
</note>
  <outline>
    <contour>
      <point x="54" y="498" type="line"/>
      <point x="268" y="498" type="line"/>
      <point x="268" y="526" type="line"/>
      <point x="54" y="526" type="line"/>
    </contour>
  </outline>
</glyph>
<glyph name="colon" format="2">
  <advance width="220"/>
  <unicode hex="003A"/>
  <note>
colon
</note>
  <outline>
    <contour>
      <point x="85" y="267" type="curve" smooth="yes"/>
      <point x="85" y="250"/>
      <point x="90" y="236"/>
      <point x="110" y="236" type="curve" smooth="yes"/>
      <point x="134" y="236"/>
      <point x="137" y="250"/>
      <point x="137" y="267" type="curve" smooth="yes"/>
      <point x="137" y="283"/>
      <point x="134" y="298"/>
      <point x="110" y="298" type="curve" smooth="yes"/>
      <point x="90" y="298"/>
      <point x="85" y="283"/>
    </contour>
    <contour>
      <point x="85" y="745" type="curve" smooth="yes"/>
      <point x="85" y="728"/>
      <point x="90" y="714"/>
      <point x="110" y="714" type="curve" smooth="yes"/>
      <point x="134" y="714"/>
      <point x="137" y="728"/>
      <point x="137" y="745" type="curve" smooth="yes"/>
      <point x="137" y="761"/>
      <point x="134" y="776"/>
      <point x="110" y="776" type="curve" smooth="yes"/>
      <point x="90" y="776"/>
      <point x="85" y="761"/>
    </contour>
  </outline>
</glyph>
<glyph name="semicolon" format="2">
  <advance width="220"/>
  <unicode hex="003B"/>
  <note>
semicolon
</note>
  <outline>
    <contour>
      <point x="122" y="360" type="line"/>
      <point x="94" y="360" type="line"/>
      <point x="83" y="284"/>
      <point x="67" y="212"/>
      <point x="38" y="115" type="curve"/>
      <point x="60" y="115" type="line"/>
      <point x="88" y="184"/>
      <point x="110" y="274"/>
      <point x="125" y="348" type="curve"/>
    </contour>
    <contour>
      <point x="85" y="745" type="curve" smooth="yes"/>
      <point x="85" y="728"/>
      <point x="90" y="714"/>
      <point x="110" y="714" type="curve" smooth="yes"/>
      <point x="134" y="714"/>
      <point x="137" y="728"/>
      <point x="137" y="745" type="curve" smooth="yes"/>
      <point x="137" y="761"/>
      <point x="134" y="776"/>
      <point x="110" y="776" type="curve" smooth="yes"/>
      <point x="90" y="776"/>
      <point x="85" y="761"/>
    </contour>
  </outline>
</glyph>
<glyph name="question" format="2">
  <advance width="413"/>
  <unicode hex="003F"/>
  <note>
question
</note>
  <outline>
    <contour>
      <point x="144" y="418" type="line"/>
      <point x="169" y="418" type="line"/>
      <point x="169" y="430" type="line" smooth="yes"/>
      <point x="169" y="521"/>
      <point x="190" y="558"/>
      <point x="242" y="594" type="curve" smooth="yes"/>
      <point x="321" y="649"/>
      <point x="374" y="698"/>
      <point x="374" y="798" type="curve" smooth="yes"/>
      <point x="374" y="912"/>
      <point x="300" y="968"/>
      <point x="188" y="968" type="curve" smooth="yes"/>
      <point x="134" y="968"/>
      <point x="96" y="959"/>
      <point x="38" y="935" type="curve"/>
      <point x="48" y="909" type="line"/>
      <point x="96" y="933"/>
      <point x="139" y="943"/>
      <point x="188" y="943" type="curve" smooth="yes"/>
      <point x="281" y="943"/>
      <point x="347" y="898"/>
      <point x="347" y="798" type="curve" smooth="yes"/>
      <point x="347" y="707"/>
      <point x="301" y="666"/>
      <point x="229" y="615" type="curve" smooth="yes"/>
      <point x="160" y="566"/>
      <point x="144" y="529"/>
      <point x="144" y="430" type="curve" smooth="yes"/>
    </contour>
    <contour>
      <point x="133" y="267" type="curve" smooth="yes"/>
      <point x="133" y="250"/>
      <point x="138" y="236"/>
      <point x="158" y="236" type="curve" smooth="yes"/>
      <point x="182" y="236"/>
      <point x="185" y="250"/>
      <point x="185" y="267" type="curve" smooth="yes"/>
      <point x="185" y="283"/>
      <point x="182" y="298"/>
      <point x="158" y="298" type="curve" smooth="yes"/>
      <point x="138" y="298"/>
      <point x="133" y="283"/>
    </contour>
  </outline>
</glyph>
<glyph name="guillemotleft" format="2">
  <advance width="389"/>
  <unicode hex="00AB"/>
  <note>
guillemotleft
</note>
  <outline>
    <contour>
      <point x="26" y="529" type="line"/>
      <point x="26" y="516" type="line"/>
      <point x="178" y="331" type="line"/>
      <point x="194" y="342" type="line"/>
      <point x="57" y="523" type="line"/>
      <point x="194" y="704" type="line"/>
      <point x="178" y="716" type="line"/>
    </contour>
    <contour>
      <point x="195" y="529" type="line"/>
      <point x="195" y="516" type="line"/>
      <point x="347" y="331" type="line"/>
      <point x="363" y="342" type="line"/>
      <point x="226" y="523" type="line"/>
      <point x="363" y="704" type="line"/>
      <point x="347" y="716" type="line"/>
    </contour>
  </outline>
</glyph>
<glyph name="uni00AD" format="2">
  <advance width="322"/>
  <unicode hex="00AD"/>
  <note>
uni00AD
</note>
  <outline>
    <contour>
      <point x="54" y="742" type="line"/>
      <point x="268" y="742" type="line"/>
      <point x="268" y="770" type="line"/>
      <point x="54" y="770" type="line"/>
    </contour>
  </outline>
</glyph>
<glyph name="guillemotright" format="2">
  <advance width="389"/>
  <unicode hex="00BB"/>
  <note>
guillemotright
</note>
  <outline>
    <contour>
      <point x="363" y="518" type="line"/>
      <point x="363" y="531" type="line"/>
      <point x="211" y="716" type="line"/>
      <point x="195" y="705" type="line"/>
      <point x="332" y="524" type="line"/>
      <point x="195" y="343" type="line"/>
      <point x="211" y="331" type="line"/>
    </contour>
    <contour>
      <point x="194" y="518" type="line"/>
      <point x="194" y="531" type="line"/>
      <point x="42" y="716" type="line"/>
      <point x="26" y="705" type="line"/>
      <point x="163" y="524" type="line"/>
      <point x="26" y="343" type="line"/>
      <point x="42" y="331" type="line"/>
    </contour>
  </outline>
</glyph>
<glyph name="uni1780" format="2">
  <advance width="591"/>
  <unicode hex="1780"/>
  <note>
uni1780
</note>
  <outline>
    <contour>
      <point x="110" y="754" type="line"/>
      <point x="481" y="754" type="line"/>
      <point x="481" y="780" type="line"/>
      <point x="110" y="780" type="line"/>
    </contour>
    <contour>
      <point x="110" y="244" type="line"/>
      <point x="136" y="244" type="line"/>
      <point x="136" y="506" type="line" smooth="yes"/>
      <point x="136" y="583"/>
      <point x="176" y="627"/>
      <point x="294" y="627" type="curve" smooth="yes"/>
      <point x="412" y="627"/>
      <point x="455" y="587"/>
      <point x="455" y="506" type="curve" smooth="yes"/>
      <point x="455" y="244" type="line"/>
      <point x="481" y="244" type="line"/>
      <point x="481" y="506" type="line" smooth="yes"/>
      <point x="481" y="609"/>
      <point x="422" y="653"/>
      <point x="294" y="653" type="curve" smooth="yes"/>
      <point x="166" y="653"/>
      <point x="110" y="609"/>
      <point x="110" y="506" type="curve" smooth="yes"/>
    </contour>
  </outline>
</glyph>
<glyph name="uni1781" format="2">
  <advance width="591"/>
  <unicode hex="1781"/>
  <note>
uni1781
</note>
  <outline>
    <contour>
      <point x="294" y="244" type="curve" smooth="yes"/>
      <point x="419" y="244"/>
      <point x="481" y="297"/>
      <point x="481" y="402" type="curve" smooth="yes"/>
      <point x="481" y="448" type="line"/>
      <point x="455" y="448" type="line"/>
      <point x="455" y="402" type="line" smooth="yes"/>
      <point x="455" y="313"/>
      <point x="413" y="270"/>
      <point x="294" y="270" type="curve" smooth="yes"/>
      <point x="174" y="270"/>
      <point x="136" y="311"/>
      <point x="136" y="402" type="curve" smooth="yes"/>
      <point x="136" y="456" type="line"/>
      <point x="260" y="469" type="line" smooth="yes"/>
      <point x="397" y="483"/>
      <point x="481" y="534"/>
      <point x="481" y="639" type="curve" smooth="yes"/>
      <point x="481" y="735"/>
      <point x="409" y="780"/>
      <point x="297" y="780" type="curve" smooth="yes"/>
      <point x="163" y="780"/>
      <point x="110" y="711"/>
      <point x="110" y="631" type="curve" smooth="yes"/>
      <point x="110" y="579"/>
      <point x="136" y="545"/>
      <point x="176" y="545" type="curve" smooth="yes"/>
      <point x="182" y="545" type="line"/>
      <point x="182" y="569" type="line"/>
      <point x="159" y="569"/>
      <point x="136" y="589"/>
      <point x="136" y="628" type="curve" smooth="yes"/>
      <point x="136" y="714"/>
      <point x="181" y="754"/>
      <point x="296" y="754" type="curve" smooth="yes"/>
      <point x="407" y="754"/>
      <point x="455" y="717"/>
      <point x="455" y="640" type="curve" smooth="yes"/>
      <point x="455" y="553"/>
      <point x="386" y="507"/>
      <point x="254" y="494" type="curve" smooth="yes"/>
      <point x="110" y="480" type="line"/>
      <point x="110" y="402" type="line" smooth="yes"/>
      <point x="110" y="289"/>
      <point x="169" y="244"/>
    </contour>
  </outline>
</glyph>
<glyph name="uni1782" format="2">
  <advance width="591"/>
  <unicode hex="1782"/>
  <note>
uni1782
</note>
  <outline>
    <contour>
      <point x="110" y="754" type="line"/>
      <point x="481" y="754" type="line"/>
      <point x="481" y="780" type="line"/>
      <point x="110" y="780" type="line"/>
    </contour>
    <contour>
      <point x="110" y="244" type="line"/>
      <point x="136" y="244" type="line"/>
      <point x="136" y="297" type="line"/>
      <point x="144" y="355"/>
      <point x="182" y="376"/>
      <point x="271" y="376" type="curve" smooth="yes"/>
      <point x="322" y="376" type="line"/>
      <point x="322" y="402" type="line"/>
      <point x="260" y="402" type="line" smooth="yes"/>
      <point x="208" y="402"/>
      <point x="166" y="392"/>
      <point x="136" y="358" type="curve"/>
      <point x="136" y="506" type="line" smooth="yes"/>
      <point x="136" y="583"/>
      <point x="183" y="625"/>
      <point x="294" y="625" type="curve" smooth="yes"/>
      <point x="407" y="625"/>
      <point x="455" y="586"/>
      <point x="455" y="506" type="curve" smooth="yes"/>
      <point x="455" y="244" type="line"/>
      <point x="481" y="244" type="line"/>
      <point x="481" y="506" type="line" smooth="yes"/>
      <point x="481" y="607"/>
      <point x="414" y="651"/>
      <point x="294" y="651" type="curve" smooth="yes"/>
      <point x="176" y="651"/>
      <point x="110" y="609"/>
      <point x="110" y="506" type="curve" smooth="yes"/>
    </contour>
  </outline>
</glyph>
<glyph name="uni1783" format="2">
  <advance width="917"/>
  <unicode hex="1783"/>
  <note>
uni1783
</note>
  <outline>
    <contour>
      <point x="142" y="402" type="line" smooth="yes"/>
      <point x="142" y="297"/>
      <point x="209" y="244"/>
      <point x="316" y="244" type="curve" smooth="yes"/>
      <point x="389" y="244"/>
      <point x="443" y="260"/>
      <point x="478" y="292" type="curve"/>
      <point x="512" y="260"/>
      <point x="560" y="244"/>
      <point x="631" y="244" type="curve" smooth="yes"/>
      <point x="741" y="244"/>
      <point x="808" y="297"/>
      <point x="808" y="402" type="curve" smooth="yes"/>
      <point x="808" y="578" type="line"/>
      <point x="782" y="578" type="line"/>
      <point x="782" y="402" type="line" smooth="yes"/>
      <point x="782" y="319"/>
      <point x="733" y="270"/>
      <point x="636" y="270" type="curve" smooth="yes"/>
      <point x="546" y="270"/>
      <point x="491" y="299"/>
      <point x="491" y="329" type="curve" smooth="yes"/>
      <point x="491" y="580" type="line"/>
      <point x="465" y="580" type="line"/>
      <point x="465" y="329" type="line" smooth="yes"/>
      <point x="465" y="299"/>
      <point x="408" y="270"/>
      <point x="316" y="270" type="curve" smooth="yes"/>
      <point x="219" y="270"/>
      <point x="168" y="321"/>
      <point x="168" y="402" type="curve" smooth="yes"/>
      <point x="168" y="724" type="line" smooth="yes"/>
      <point x="168" y="751"/>
      <point x="154" y="780"/>
      <point x="111" y="780" type="curve" smooth="yes"/>
      <point x="40" y="780" type="line"/>
      <point x="40" y="754" type="line"/>
      <point x="123" y="754"/>
      <point x="142" y="754"/>
      <point x="142" y="708" type="curve" smooth="yes"/>
    </contour>
    <contour>
      <point x="782" y="570" type="line"/>
      <point x="808" y="570" type="line"/>
      <point x="808" y="592" type="line"/>
      <point x="726" y="730" type="line"/>
      <point x="734" y="754" type="line"/>
      <point x="827" y="754" type="line"/>
      <point x="827" y="780" type="line"/>
      <point x="736" y="780" type="line"/>
      <point x="721" y="763"/>
      <point x="711" y="741"/>
      <point x="711" y="724" type="curve" smooth="yes"/>
      <point x="711" y="708"/>
      <point x="725" y="680"/>
      <point x="782" y="588" type="curve"/>
    </contour>
    <contour>
      <point x="465" y="570" type="line"/>
      <point x="491" y="570" type="line"/>
      <point x="491" y="592" type="line"/>
      <point x="409" y="730" type="line"/>
      <point x="417" y="754" type="line"/>
      <point x="510" y="754" type="line"/>
      <point x="510" y="780" type="line"/>
      <point x="419" y="780" type="line"/>
      <point x="404" y="763"/>
      <point x="394" y="741"/>
      <point x="394" y="724" type="curve" smooth="yes"/>
      <point x="394" y="708"/>
      <point x="408" y="680"/>
      <point x="465" y="588" type="curve"/>
    </contour>
  </outline>
</glyph>
<glyph name="uni1786" format="2">
  <advance width="583"/>
  <unicode hex="1786"/>
  <note>
uni1786
</note>
  <outline>
    <contour>
      <point x="483" y="457" type="line"/>
      <point x="457" y="457" type="line"/>
      <point x="457" y="402" type="line" smooth="yes"/>
      <point x="457" y="341"/>
      <point x="436" y="270"/>
      <point x="392" y="270" type="curve" smooth="yes"/>
      <point x="353" y="270"/>
      <point x="335" y="300"/>
      <point x="309" y="345" type="curve" smooth="yes"/>
      <point x="270" y="411"/>
      <point x="232" y="431"/>
      <point x="136" y="431" type="curve"/>
      <point x="136" y="594" type="line"/>
      <point x="103" y="639"/>
      <point x="87" y="652"/>
      <point x="87" y="672" type="curve" smooth="yes"/>
      <point x="87" y="701"/>
      <point x="118" y="737"/>
      <point x="134" y="754" type="curve"/>
      <point x="483" y="754" type="line"/>
      <point x="483" y="780" type="line"/>
      <point x="132" y="780" type="line"/>
      <point x="78" y="715"/>
      <point x="60" y="685"/>
      <point x="60" y="660" type="curve" smooth="yes"/>
      <point x="60" y="645"/>
      <point x="80" y="630"/>
      <point x="110" y="578" type="curve"/>
      <point x="110" y="431" type="line"/>
      <point x="96" y="427"/>
      <point x="83" y="409"/>
      <point x="83" y="372" type="curve" smooth="yes"/>
      <point x="83" y="329"/>
      <point x="90" y="289"/>
      <point x="110" y="244" type="curve"/>
      <point x="136" y="244" type="line"/>
      <point x="136" y="405" type="line"/>
      <point x="225" y="404"/>
      <point x="248" y="394"/>
      <point x="288" y="328" type="curve" smooth="yes"/>
      <point x="314" y="285"/>
      <point x="342" y="244"/>
      <point x="392" y="244" type="curve" smooth="yes"/>
      <point x="441" y="244"/>
      <point x="483" y="299"/>
      <point x="483" y="402" type="curve" smooth="yes"/>
    </contour>
    <contour>
      <point x="483" y="410" type="line"/>
      <point x="483" y="606" type="line" smooth="yes"/>
      <point x="483" y="625"/>
      <point x="476" y="633"/>
      <point x="447" y="633" type="curve" smooth="yes"/>
      <point x="397" y="633"/>
      <point x="364" y="590"/>
      <point x="364" y="548" type="curve" smooth="yes"/>
      <point x="364" y="491"/>
      <point x="419" y="462"/>
      <point x="457" y="462" type="curve"/>
      <point x="457" y="410" type="line"/>
    </contour>
    <contour>
      <point x="457" y="489" type="line"/>
      <point x="413" y="489"/>
      <point x="390" y="523"/>
      <point x="390" y="548" type="curve" smooth="yes"/>
      <point x="390" y="571"/>
      <point x="399" y="607"/>
      <point x="457" y="607" type="curve"/>
    </contour>
  </outline>
</glyph>
<glyph name="uni1787" format="2">
  <advance width="593"/>
  <unicode hex="1787"/>
  <note>
uni1787
</note>
  <outline>
    <contour>
      <point x="110" y="244" type="line"/>
      <point x="143" y="244" type="line"/>
      <point x="297" y="378" type="line"/>
      <point x="450" y="244" type="line"/>
      <point x="483" y="244" type="line"/>
      <point x="483" y="604" type="line"/>
      <point x="457" y="604" type="line"/>
      <point x="457" y="273" type="line"/>
      <point x="297" y="413" type="line"/>
      <point x="136" y="273" type="line"/>
      <point x="136" y="554" type="line"/>
      <point x="103" y="599"/>
      <point x="87" y="612"/>
      <point x="87" y="632" type="curve" smooth="yes"/>
      <point x="87" y="661"/>
      <point x="118" y="697"/>
      <point x="134" y="714" type="curve"/>
      <point x="422" y="714" type="line" smooth="yes"/>
      <point x="463" y="714"/>
      <point x="483" y="729"/>
      <point x="483" y="764" type="curve" smooth="yes"/>
      <point x="483" y="798" type="line"/>
      <point x="457" y="798" type="line"/>
      <point x="457" y="764" type="line" smooth="yes"/>
      <point x="457" y="747"/>
      <point x="452" y="740"/>
      <point x="417" y="740" type="curve" smooth="yes"/>
      <point x="132" y="740" type="line"/>
      <point x="78" y="675"/>
      <point x="60" y="645"/>
      <point x="60" y="620" type="curve" smooth="yes"/>
      <point x="60" y="605"/>
      <point x="80" y="590"/>
      <point x="110" y="538" type="curve"/>
    </contour>
  </outline>
</glyph>
<glyph name="uni1788" format="2">
  <advance width="1199"/>
  <unicode hex="1788"/>
  <note>
uni1788
</note>
  <outline>
    <contour>
      <point x="1099" y="580" type="line"/>
      <point x="1073" y="580" type="line"/>
      <point x="1073" y="402" type="line" smooth="yes"/>
      <point x="1073" y="322"/>
      <point x="1020" y="270"/>
      <point x="928" y="270" type="curve" smooth="yes"/>
      <point x="824" y="270"/>
      <point x="783" y="317"/>
      <point x="783" y="356" type="curve" smooth="yes"/>
      <point x="783" y="580" type="line"/>
      <point x="757" y="580" type="line"/>
      <point x="757" y="356" type="line" smooth="yes"/>
      <point x="757" y="317"/>
      <point x="716" y="270"/>
      <point x="608" y="270" type="curve" smooth="yes"/>
      <point x="509" y="270"/>
      <point x="459" y="319"/>
      <point x="459" y="402" type="curve" smooth="yes"/>
      <point x="459" y="622" type="line" smooth="yes"/>
      <point x="459" y="727"/>
      <point x="401" y="780"/>
      <point x="284" y="780" type="curve" smooth="yes"/>
      <point x="168" y="780"/>
      <point x="110" y="727"/>
      <point x="110" y="622" type="curve" smooth="yes"/>
      <point x="110" y="422" type="line"/>
      <point x="136" y="422" type="line"/>
      <point x="136" y="622" type="line" smooth="yes"/>
      <point x="136" y="703"/>
      <point x="185" y="753"/>
      <point x="284" y="753" type="curve" smooth="yes"/>
      <point x="381" y="753"/>
      <point x="433" y="703"/>
      <point x="433" y="622" type="curve" smooth="yes"/>
      <point x="433" y="402" type="line" smooth="yes"/>
      <point x="433" y="297"/>
      <point x="497" y="244"/>
      <point x="608" y="244" type="curve" smooth="yes"/>
      <point x="696" y="244"/>
      <point x="748" y="275"/>
      <point x="770" y="312" type="curve"/>
      <point x="794" y="275"/>
      <point x="841" y="244"/>
      <point x="928" y="244" type="curve" smooth="yes"/>
      <point x="1035" y="244"/>
      <point x="1099" y="306"/>
      <point x="1099" y="402" type="curve" smooth="yes"/>
    </contour>
    <contour>
      <point x="110" y="452" type="line" smooth="yes"/>
      <point x="110" y="271" type="line" smooth="yes"/>
      <point x="110" y="247"/>
      <point x="126" y="244"/>
      <point x="139" y="244" type="curve" smooth="yes"/>
      <point x="142" y="244" type="line" smooth="yes"/>
      <point x="178" y="244"/>
      <point x="221" y="277"/>
      <point x="221" y="338" type="curve" smooth="yes"/>
      <point x="221" y="393"/>
      <point x="178" y="412"/>
      <point x="136" y="412" type="curve"/>
      <point x="136" y="452" type="line"/>
    </contour>
    <contour>
      <point x="136" y="270" type="curve"/>
      <point x="136" y="385" type="line"/>
      <point x="180" y="385"/>
      <point x="195" y="365"/>
      <point x="195" y="335" type="curve" smooth="yes"/>
      <point x="195" y="312"/>
      <point x="183" y="270"/>
    </contour>
    <contour>
      <point x="1073" y="570" type="line"/>
      <point x="1099" y="570" type="line"/>
      <point x="1099" y="592" type="line"/>
      <point x="1017" y="730" type="line"/>
      <point x="1025" y="754" type="line"/>
      <point x="1118" y="754" type="line"/>
      <point x="1118" y="780" type="line"/>
      <point x="1027" y="780" type="line"/>
      <point x="1012" y="763"/>
      <point x="1002" y="741"/>
      <point x="1002" y="724" type="curve" smooth="yes"/>
      <point x="1002" y="708"/>
      <point x="1016" y="680"/>
      <point x="1073" y="588" type="curve"/>
    </contour>
    <contour>
      <point x="757" y="570" type="line"/>
      <point x="783" y="570" type="line"/>
      <point x="783" y="592" type="line"/>
      <point x="701" y="730" type="line"/>
      <point x="709" y="754" type="line"/>
      <point x="802" y="754" type="line"/>
      <point x="802" y="780" type="line"/>
      <point x="711" y="780" type="line"/>
      <point x="696" y="763"/>
      <point x="686" y="741"/>
      <point x="686" y="724" type="curve" smooth="yes"/>
      <point x="686" y="708"/>
      <point x="700" y="680"/>
      <point x="757" y="588" type="curve"/>
    </contour>
  </outline>
</glyph>
<glyph name="uni1789" format="2">
  <advance width="917"/>
  <unicode hex="1789"/>
  <note>
uni1789
</note>
  <outline>
    <contour>
      <point x="647" y="0" type="curve" smooth="yes"/>
      <point x="734" y="0"/>
      <point x="807" y="63"/>
      <point x="807" y="175" type="curve" smooth="yes"/>
      <point x="807" y="195" type="line"/>
      <point x="680" y="195" type="line"/>
      <point x="680" y="169" type="line"/>
      <point x="780" y="169" type="line"/>
      <point x="780" y="85"/>
      <point x="724" y="26"/>
      <point x="646" y="26" type="curve" smooth="yes"/>
      <point x="594" y="26"/>
      <point x="558" y="47"/>
      <point x="513" y="73" type="curve" smooth="yes"/>
      <point x="447" y="112"/>
      <point x="399" y="124"/>
      <point x="316" y="124" type="curve" smooth="yes"/>
      <point x="114" y="124" type="line"/>
      <point x="114" y="98" type="line"/>
      <point x="292" y="98" type="line" smooth="yes"/>
      <point x="365" y="98"/>
      <point x="424" y="98"/>
      <point x="486" y="59" type="curve" smooth="yes"/>
      <point x="540" y="25"/>
      <point x="589" y="0"/>
    </contour>
    <contour>
      <point x="466" y="707" type="curve"/>
      <point x="480" y="687" type="line"/>
      <point x="517" y="730"/>
      <point x="562" y="758"/>
      <point x="634" y="758" type="curve" smooth="yes"/>
      <point x="737" y="758"/>
      <point x="781" y="727"/>
      <point x="781" y="643" type="curve" smooth="yes"/>
      <point x="781" y="244" type="line"/>
      <point x="807" y="244" type="line"/>
      <point x="807" y="643" type="line" smooth="yes"/>
      <point x="807" y="735"/>
      <point x="756" y="784"/>
      <point x="636" y="784" type="curve" smooth="yes"/>
      <point x="559" y="784"/>
      <point x="502" y="748"/>
    </contour>
    <contour>
      <point x="110" y="431" type="line"/>
      <point x="136" y="431" type="line"/>
      <point x="136" y="652" type="line" smooth="yes"/>
      <point x="136" y="720"/>
      <point x="154" y="754"/>
      <point x="201" y="754" type="curve" smooth="yes"/>
      <point x="248" y="754"/>
      <point x="271" y="693"/>
      <point x="297" y="693" type="curve" smooth="yes"/>
      <point x="327" y="693"/>
      <point x="340" y="753"/>
      <point x="402" y="753" type="curve" smooth="yes"/>
      <point x="440" y="753"/>
      <point x="458" y="718"/>
      <point x="458" y="645" type="curve" smooth="yes"/>
      <point x="458" y="244" type="line"/>
      <point x="484" y="244" type="line"/>
      <point x="484" y="645" type="line" smooth="yes"/>
      <point x="484" y="734"/>
      <point x="460" y="779"/>
      <point x="403" y="779" type="curve" smooth="yes"/>
      <point x="361" y="779"/>
      <point x="334" y="759"/>
      <point x="298" y="719" type="curve"/>
      <point x="296" y="719" type="line"/>
      <point x="265" y="758"/>
      <point x="238" y="780"/>
      <point x="201" y="780" type="curve" smooth="yes"/>
      <point x="140" y="780"/>
      <point x="110" y="734"/>
      <point x="110" y="655" type="curve" smooth="yes"/>
    </contour>
    <contour>
      <point x="110" y="452" type="line" smooth="yes"/>
      <point x="110" y="271" type="line" smooth="yes"/>
      <point x="110" y="247"/>
      <point x="126" y="244"/>
      <point x="139" y="244" type="curve" smooth="yes"/>
      <point x="142" y="244" type="line" smooth="yes"/>
      <point x="178" y="244"/>
      <point x="221" y="277"/>
      <point x="221" y="338" type="curve" smooth="yes"/>
      <point x="221" y="393"/>
      <point x="178" y="412"/>
      <point x="136" y="412" type="curve"/>
      <point x="136" y="452" type="line"/>
    </contour>
    <contour>
      <point x="136" y="270" type="curve"/>
      <point x="136" y="385" type="line"/>
      <point x="180" y="385"/>
      <point x="195" y="365"/>
      <point x="195" y="335" type="curve" smooth="yes"/>
      <point x="195" y="312"/>
      <point x="183" y="270"/>
    </contour>
  </outline>
</glyph>
<glyph name="uni178A" format="2">
  <advance width="594"/>
  <unicode hex="178A"/>
  <note>
uni178A
</note>
  <outline>
    <contour>
      <point x="113" y="683" type="line"/>
      <point x="409" y="683" type="line" smooth="yes"/>
      <point x="441" y="683"/>
      <point x="484" y="692"/>
      <point x="484" y="760" type="curve" smooth="yes"/>
      <point x="484" y="818" type="line"/>
      <point x="458" y="818" type="line"/>
      <point x="458" y="761" type="line" smooth="yes"/>
      <point x="458" y="727"/>
      <point x="449" y="707"/>
      <point x="392" y="707" type="curve" smooth="yes"/>
      <point x="137" y="707" type="line"/>
      <point x="137" y="784" type="line"/>
      <point x="113" y="784" type="line"/>
    </contour>
    <contour>
      <point x="110" y="244" type="line"/>
      <point x="142" y="244" type="line"/>
      <point x="298" y="379" type="line"/>
      <point x="452" y="244" type="line"/>
      <point x="484" y="244" type="line"/>
      <point x="484" y="596" type="line"/>
      <point x="458" y="596" type="line"/>
      <point x="458" y="274" type="line"/>
      <point x="298" y="414" type="line"/>
      <point x="136" y="274" type="line"/>
      <point x="136" y="596" type="line"/>
      <point x="110" y="596" type="line"/>
    </contour>
  </outline>
</glyph>
<glyph name="uni178C" format="2">
  <advance width="602"/>
  <unicode hex="178C"/>
  <note>
uni178C
</note>
  <outline>
    <contour>
      <point x="466" y="234" type="line"/>
      <point x="492" y="234" type="line"/>
      <point x="492" y="428" type="line"/>
      <point x="466" y="428" type="line"/>
      <point x="466" y="414" type="line" smooth="yes"/>
      <point x="466" y="376"/>
      <point x="351" y="270"/>
      <point x="248" y="270" type="curve" smooth="yes"/>
      <point x="182" y="270"/>
      <point x="144" y="317"/>
      <point x="144" y="402" type="curve" smooth="yes"/>
      <point x="144" y="446" type="line"/>
      <point x="294" y="470" type="line" smooth="yes"/>
      <point x="411" y="489"/>
      <point x="492" y="546"/>
      <point x="492" y="660" type="curve" smooth="yes"/>
      <point x="492" y="738"/>
      <point x="460" y="780"/>
      <point x="401" y="780" type="curve" smooth="yes"/>
      <point x="362" y="780"/>
      <point x="328" y="750"/>
      <point x="302" y="718" type="curve"/>
      <point x="301" y="718" type="line"/>
      <point x="282" y="745"/>
      <point x="255" y="780"/>
      <point x="206" y="780" type="curve" smooth="yes"/>
      <point x="155" y="780"/>
      <point x="110" y="727"/>
      <point x="110" y="660" type="curve" smooth="yes"/>
      <point x="110" y="606"/>
      <point x="136" y="545"/>
      <point x="209" y="545" type="curve" smooth="yes"/>
      <point x="220" y="545" type="line"/>
      <point x="220" y="571" type="line"/>
      <point x="155" y="571"/>
      <point x="136" y="606"/>
      <point x="136" y="664" type="curve" smooth="yes"/>
      <point x="136" y="706"/>
      <point x="164" y="754"/>
      <point x="205" y="754" type="curve" smooth="yes"/>
      <point x="259" y="754"/>
      <point x="271" y="690"/>
      <point x="301" y="690" type="curve" smooth="yes"/>
      <point x="314" y="690"/>
      <point x="328" y="707"/>
      <point x="338" y="719" type="curve" smooth="yes"/>
      <point x="350" y="733"/>
      <point x="371" y="754"/>
      <point x="401" y="754" type="curve" smooth="yes"/>
      <point x="439" y="754"/>
      <point x="466" y="724"/>
      <point x="466" y="655" type="curve" smooth="yes"/>
      <point x="466" y="572"/>
      <point x="405" y="514"/>
      <point x="289" y="496" type="curve" smooth="yes"/>
      <point x="118" y="470" type="line"/>
      <point x="118" y="402" type="line" smooth="yes"/>
      <point x="118" y="289"/>
      <point x="177" y="244"/>
      <point x="248" y="244" type="curve" smooth="yes"/>
      <point x="323" y="244"/>
      <point x="418" y="298"/>
      <point x="465" y="365" type="curve"/>
      <point x="466" y="365" type="line"/>
    </contour>
  </outline>
</glyph>
<glyph name="uni178E" format="2">
  <advance width="1198"/>
  <unicode hex="178E"/>
  <note>
uni178E
</note>
  <outline>
    <contour>
      <point x="110" y="432" type="line"/>
      <point x="136" y="432" type="line"/>
      <point x="136" y="622" type="line" smooth="yes"/>
      <point x="136" y="703"/>
      <point x="186" y="754"/>
      <point x="281" y="754" type="curve" smooth="yes"/>
      <point x="376" y="754"/>
      <point x="427" y="703"/>
      <point x="427" y="622" type="curve" smooth="yes"/>
      <point x="427" y="244" type="line"/>
      <point x="459" y="244" type="line"/>
      <point x="599" y="378" type="line"/>
      <point x="738" y="244" type="line"/>
      <point x="770" y="244" type="line"/>
      <point x="770" y="622" type="line" smooth="yes"/>
      <point x="770" y="703"/>
      <point x="821" y="754"/>
      <point x="916" y="754" type="curve" smooth="yes"/>
      <point x="1011" y="754"/>
      <point x="1062" y="703"/>
      <point x="1062" y="622" type="curve" smooth="yes"/>
      <point x="1062" y="244" type="line"/>
      <point x="1088" y="244" type="line"/>
      <point x="1088" y="622" type="line" smooth="yes"/>
      <point x="1088" y="727"/>
      <point x="1029" y="780"/>
      <point x="916" y="780" type="curve" smooth="yes"/>
      <point x="803" y="780"/>
      <point x="744" y="727"/>
      <point x="744" y="622" type="curve" smooth="yes"/>
      <point x="744" y="274" type="line"/>
      <point x="599" y="414" type="line"/>
      <point x="453" y="274" type="line"/>
      <point x="453" y="622" type="line" smooth="yes"/>
      <point x="453" y="727"/>
      <point x="394" y="780"/>
      <point x="281" y="780" type="curve" smooth="yes"/>
      <point x="167" y="780"/>
      <point x="110" y="727"/>
      <point x="110" y="622" type="curve" smooth="yes"/>
    </contour>
    <contour>
      <point x="110" y="452" type="line" smooth="yes"/>
      <point x="110" y="271" type="line" smooth="yes"/>
      <point x="110" y="247"/>
      <point x="126" y="244"/>
      <point x="139" y="244" type="curve" smooth="yes"/>
      <point x="142" y="244" type="line" smooth="yes"/>
      <point x="178" y="244"/>
      <point x="221" y="277"/>
      <point x="221" y="338" type="curve" smooth="yes"/>
      <point x="221" y="393"/>
      <point x="178" y="412"/>
      <point x="136" y="412" type="curve"/>
      <point x="136" y="452" type="line"/>
    </contour>
    <contour>
      <point x="136" y="270" type="curve"/>
      <point x="136" y="385" type="line"/>
      <point x="180" y="385"/>
      <point x="195" y="365"/>
      <point x="195" y="335" type="curve" smooth="yes"/>
      <point x="195" y="312"/>
      <point x="183" y="270"/>
    </contour>
  </outline>
</glyph>
<glyph name="uni178F" format="2">
  <advance width="593"/>
  <unicode hex="178F"/>
  <note>
uni178F
</note>
  <outline>
    <contour>
      <point x="110" y="754" type="line"/>
      <point x="481" y="754" type="line"/>
      <point x="481" y="780" type="line"/>
      <point x="110" y="780" type="line"/>
    </contour>
    <contour>
      <point x="110" y="430" type="line"/>
      <point x="136" y="430" type="line"/>
      <point x="136" y="506" type="line" smooth="yes"/>
      <point x="136" y="588"/>
      <point x="189" y="638"/>
      <point x="296" y="638" type="curve" smooth="yes"/>
      <point x="403" y="638"/>
      <point x="457" y="588"/>
      <point x="457" y="506" type="curve" smooth="yes"/>
      <point x="457" y="244" type="line"/>
      <point x="483" y="244" type="line"/>
      <point x="483" y="506" type="line" smooth="yes"/>
      <point x="483" y="611"/>
      <point x="421" y="664"/>
      <point x="296" y="664" type="curve" smooth="yes"/>
      <point x="172" y="664"/>
      <point x="110" y="611"/>
      <point x="110" y="506" type="curve" smooth="yes"/>
    </contour>
    <contour>
      <point x="110" y="452" type="line" smooth="yes"/>
      <point x="110" y="271" type="line" smooth="yes"/>
      <point x="110" y="247"/>
      <point x="126" y="244"/>
      <point x="139" y="244" type="curve" smooth="yes"/>
      <point x="142" y="244" type="line" smooth="yes"/>
      <point x="178" y="244"/>
      <point x="221" y="277"/>
      <point x="221" y="338" type="curve" smooth="yes"/>
      <point x="221" y="393"/>
      <point x="178" y="412"/>
      <point x="136" y="412" type="curve"/>
      <point x="136" y="452" type="line"/>
    </contour>
    <contour>
      <point x="136" y="270" type="curve"/>
      <point x="136" y="385" type="line"/>
      <point x="180" y="385"/>
      <point x="195" y="365"/>
      <point x="195" y="335" type="curve" smooth="yes"/>
      <point x="195" y="312"/>
      <point x="183" y="270"/>
    </contour>
  </outline>
</glyph>
<glyph name="uni1791" format="2">
  <advance width="574"/>
  <unicode hex="1791"/>
  <note>
uni1791
</note>
  <outline>
    <contour>
      <point x="283" y="244" type="curve" smooth="yes"/>
      <point x="390" y="244"/>
      <point x="443" y="297"/>
      <point x="443" y="402" type="curve" smooth="yes"/>
      <point x="443" y="436" type="line"/>
      <point x="460" y="438"/>
      <point x="474" y="452"/>
      <point x="474" y="468" type="curve" smooth="yes"/>
      <point x="474" y="484"/>
      <point x="464" y="495"/>
      <point x="448" y="495" type="curve" smooth="yes"/>
      <point x="431" y="495"/>
      <point x="419" y="482"/>
      <point x="417" y="458" type="curve"/>
      <point x="211" y="491"/>
      <point x="125" y="525"/>
      <point x="125" y="622" type="curve" smooth="yes"/>
      <point x="125" y="713"/>
      <point x="166" y="754"/>
      <point x="286" y="754" type="curve" smooth="yes"/>
      <point x="393" y="754"/>
      <point x="447" y="708"/>
      <point x="447" y="632" type="curve" smooth="yes"/>
      <point x="447" y="608" type="line"/>
      <point x="473" y="608" type="line"/>
      <point x="473" y="632" type="line" smooth="yes"/>
      <point x="473" y="716"/>
      <point x="410" y="780"/>
      <point x="286" y="780" type="curve" smooth="yes"/>
      <point x="155" y="780"/>
      <point x="100" y="723"/>
      <point x="100" y="622" type="curve" smooth="yes"/>
      <point x="100" y="516"/>
      <point x="179" y="471"/>
      <point x="417" y="436" type="curve"/>
      <point x="417" y="402" type="line" smooth="yes"/>
      <point x="417" y="322"/>
      <point x="370" y="270"/>
      <point x="283" y="270" type="curve" smooth="yes"/>
      <point x="196" y="270"/>
      <point x="150" y="321"/>
      <point x="150" y="402" type="curve" smooth="yes"/>
      <point x="150" y="440" type="line"/>
      <point x="124" y="440" type="line"/>
      <point x="124" y="402" type="line" smooth="yes"/>
      <point x="124" y="297"/>
      <point x="177" y="244"/>
    </contour>
  </outline>
</glyph>
<glyph name="uni1792" format="2">
  <advance width="593"/>
  <unicode hex="1792"/>
  <note>
uni1792
</note>
  <outline>
    <contour>
      <point x="483" y="442" type="line"/>
      <point x="457" y="442" type="line"/>
      <point x="457" y="274" type="line"/>
      <point x="297" y="413" type="line"/>
      <point x="136" y="273" type="line"/>
      <point x="136" y="588" type="line"/>
      <point x="103" y="631"/>
      <point x="87" y="652"/>
      <point x="87" y="668" type="curve" smooth="yes"/>
      <point x="87" y="699"/>
      <point x="119" y="737"/>
      <point x="135" y="754" type="curve"/>
      <point x="483" y="754" type="line"/>
      <point x="483" y="780" type="line"/>
      <point x="130" y="780" type="line"/>
      <point x="76" y="715"/>
      <point x="60" y="685"/>
      <point x="60" y="664" type="curve" smooth="yes"/>
      <point x="60" y="647"/>
      <point x="74" y="628"/>
      <point x="110" y="578" type="curve"/>
      <point x="110" y="244" type="line"/>
      <point x="143" y="244" type="line"/>
      <point x="297" y="378" type="line"/>
      <point x="450" y="244" type="line"/>
      <point x="483" y="244" type="line"/>
    </contour>
    <contour>
      <point x="483" y="410" type="line"/>
      <point x="483" y="606" type="line" smooth="yes"/>
      <point x="483" y="625"/>
      <point x="476" y="633"/>
      <point x="447" y="633" type="curve" smooth="yes"/>
      <point x="397" y="633"/>
      <point x="364" y="590"/>
      <point x="364" y="548" type="curve" smooth="yes"/>
      <point x="364" y="491"/>
      <point x="419" y="462"/>
      <point x="457" y="462" type="curve"/>
      <point x="457" y="410" type="line"/>
    </contour>
    <contour>
      <point x="457" y="489" type="line"/>
      <point x="413" y="489"/>
      <point x="390" y="523"/>
      <point x="390" y="548" type="curve" smooth="yes"/>
      <point x="390" y="571"/>
      <point x="399" y="607"/>
      <point x="457" y="607" type="curve"/>
    </contour>
  </outline>
</glyph>
<glyph name="uni1793" format="2">
  <advance width="599"/>
  <unicode hex="1793"/>
  <note>
uni1793
</note>
  <outline>
    <contour>
      <point x="110" y="244" type="line"/>
      <point x="136" y="244" type="line"/>
      <point x="136" y="376" type="line"/>
      <point x="218" y="376"/>
      <point x="231" y="360"/>
      <point x="291" y="294" type="curve" smooth="yes"/>
      <point x="313" y="270"/>
      <point x="345" y="244"/>
      <point x="389" y="244" type="curve" smooth="yes"/>
      <point x="452" y="244"/>
      <point x="489" y="303"/>
      <point x="489" y="357" type="curve" smooth="yes"/>
      <point x="489" y="438"/>
      <point x="405" y="466"/>
      <point x="299" y="493" type="curve" smooth="yes"/>
      <point x="229" y="511"/>
      <point x="136" y="523"/>
      <point x="136" y="617" type="curve" smooth="yes"/>
      <point x="136" y="694"/>
      <point x="179" y="754"/>
      <point x="299" y="754" type="curve" smooth="yes"/>
      <point x="376" y="754"/>
      <point x="457" y="718"/>
      <point x="457" y="640" type="curve" smooth="yes"/>
      <point x="457" y="591"/>
      <point x="427" y="557"/>
      <point x="394" y="557" type="curve"/>
      <point x="394" y="531" type="line"/>
      <point x="396" y="531" type="line" smooth="yes"/>
      <point x="440" y="531"/>
      <point x="483" y="575"/>
      <point x="483" y="640" type="curve" smooth="yes"/>
      <point x="483" y="734"/>
      <point x="397" y="780"/>
      <point x="297" y="780" type="curve" smooth="yes"/>
      <point x="167" y="780"/>
      <point x="110" y="705"/>
      <point x="110" y="622" type="curve" smooth="yes"/>
      <point x="110" y="499"/>
      <point x="223" y="486"/>
      <point x="301" y="466" type="curve" smooth="yes"/>
      <point x="399" y="441"/>
      <point x="463" y="414"/>
      <point x="463" y="354" type="curve" smooth="yes"/>
      <point x="463" y="318"/>
      <point x="439" y="270"/>
      <point x="388" y="270" type="curve" smooth="yes"/>
      <point x="354" y="270"/>
      <point x="319" y="302"/>
      <point x="303" y="319" type="curve" smooth="yes"/>
      <point x="259" y="366"/>
      <point x="240" y="402"/>
      <point x="136" y="402" type="curve"/>
      <point x="136" y="440" type="line"/>
      <point x="110" y="440" type="line"/>
    </contour>
  </outline>
</glyph>
<glyph name="uni1795" format="2">
  <advance width="593"/>
  <unicode hex="1795"/>
  <note>
uni1795
</note>
  <outline>
    <contour>
      <point x="483" y="438" type="line"/>
      <point x="457" y="438" type="line"/>
      <point x="457" y="274" type="line"/>
      <point x="297" y="413" type="line"/>
      <point x="136" y="273" type="line"/>
      <point x="136" y="548" type="line"/>
      <point x="103" y="591"/>
      <point x="87" y="612"/>
      <point x="87" y="628" type="curve" smooth="yes"/>
      <point x="87" y="659"/>
      <point x="119" y="697"/>
      <point x="135" y="714" type="curve"/>
      <point x="423" y="714" type="line" smooth="yes"/>
      <point x="473" y="714"/>
      <point x="483" y="735"/>
      <point x="483" y="777" type="curve" smooth="yes"/>
      <point x="483" y="798" type="line"/>
      <point x="457" y="798" type="line"/>
      <point x="457" y="777" type="line" smooth="yes"/>
      <point x="457" y="747"/>
      <point x="446" y="740"/>
      <point x="423" y="740" type="curve" smooth="yes"/>
      <point x="130" y="740" type="line"/>
      <point x="76" y="675"/>
      <point x="60" y="645"/>
      <point x="60" y="624" type="curve" smooth="yes"/>
      <point x="60" y="607"/>
      <point x="74" y="588"/>
      <point x="110" y="538" type="curve"/>
      <point x="110" y="244" type="line"/>
      <point x="143" y="244" type="line"/>
      <point x="297" y="378" type="line"/>
      <point x="450" y="244" type="line"/>
      <point x="483" y="244" type="line"/>
    </contour>
    <contour>
      <point x="483" y="390" type="line"/>
      <point x="483" y="586" type="line" smooth="yes"/>
      <point x="483" y="605"/>
      <point x="476" y="613"/>
      <point x="447" y="613" type="curve" smooth="yes"/>
      <point x="397" y="613"/>
      <point x="364" y="570"/>
      <point x="364" y="528" type="curve" smooth="yes"/>
      <point x="364" y="471"/>
      <point x="419" y="442"/>
      <point x="457" y="442" type="curve"/>
      <point x="457" y="390" type="line"/>
    </contour>
    <contour>
      <point x="457" y="469" type="line"/>
      <point x="413" y="469"/>
      <point x="390" y="503"/>
      <point x="390" y="528" type="curve" smooth="yes"/>
      <point x="390" y="551"/>
      <point x="399" y="587"/>
      <point x="457" y="587" type="curve"/>
    </contour>
  </outline>
</glyph>
<glyph name="uni1796" format="2">
  <advance width="594"/>
  <unicode hex="1796"/>
  <note>
uni1796
</note>
  <outline>
    <contour>
      <point x="110" y="431" type="line"/>
      <point x="136" y="431" type="line"/>
      <point x="136" y="652" type="line" smooth="yes"/>
      <point x="136" y="720"/>
      <point x="154" y="754"/>
      <point x="201" y="754" type="curve" smooth="yes"/>
      <point x="248" y="754"/>
      <point x="271" y="693"/>
      <point x="297" y="693" type="curve" smooth="yes"/>
      <point x="327" y="693"/>
      <point x="340" y="753"/>
      <point x="402" y="753" type="curve" smooth="yes"/>
      <point x="440" y="753"/>
      <point x="458" y="718"/>
      <point x="458" y="645" type="curve" smooth="yes"/>
      <point x="458" y="244" type="line"/>
      <point x="484" y="244" type="line"/>
      <point x="484" y="645" type="line" smooth="yes"/>
      <point x="484" y="734"/>
      <point x="460" y="779"/>
      <point x="403" y="779" type="curve" smooth="yes"/>
      <point x="361" y="779"/>
      <point x="334" y="759"/>
      <point x="298" y="719" type="curve"/>
      <point x="296" y="719" type="line"/>
      <point x="265" y="758"/>
      <point x="238" y="780"/>
      <point x="201" y="780" type="curve" smooth="yes"/>
      <point x="140" y="780"/>
      <point x="110" y="734"/>
      <point x="110" y="655" type="curve" smooth="yes"/>
    </contour>
    <contour>
      <point x="110" y="452" type="line" smooth="yes"/>
      <point x="110" y="271" type="line" smooth="yes"/>
      <point x="110" y="247"/>
      <point x="126" y="244"/>
      <point x="139" y="244" type="curve" smooth="yes"/>
      <point x="142" y="244" type="line" smooth="yes"/>
      <point x="178" y="244"/>
      <point x="221" y="277"/>
      <point x="221" y="338" type="curve" smooth="yes"/>
      <point x="221" y="393"/>
      <point x="178" y="412"/>
      <point x="136" y="412" type="curve"/>
      <point x="136" y="452" type="line"/>
    </contour>
    <contour>
      <point x="136" y="270" type="curve"/>
      <point x="136" y="385" type="line"/>
      <point x="180" y="385"/>
      <point x="195" y="365"/>
      <point x="195" y="335" type="curve" smooth="yes"/>
      <point x="195" y="312"/>
      <point x="183" y="270"/>
    </contour>
  </outline>
</glyph>
<glyph name="uni1797" format="2">
  <advance width="600"/>
  <unicode hex="1797"/>
  <note>
uni1797
</note>
  <outline>
    <contour>
      <point x="117" y="754" type="line"/>
      <point x="490" y="754" type="line"/>
      <point x="490" y="780" type="line"/>
      <point x="117" y="780" type="line"/>
    </contour>
    <contour>
      <point x="106" y="242" type="curve" smooth="yes"/>
      <point x="153" y="242"/>
      <point x="163" y="290"/>
      <point x="163" y="314" type="curve" smooth="yes"/>
      <point x="163" y="390"/>
      <point x="143" y="430"/>
      <point x="143" y="489" type="curve" smooth="yes"/>
      <point x="143" y="587"/>
      <point x="197" y="626"/>
      <point x="304" y="626" type="curve" smooth="yes"/>
      <point x="405" y="626"/>
      <point x="464" y="591"/>
      <point x="464" y="506" type="curve" smooth="yes"/>
      <point x="464" y="244" type="line"/>
      <point x="490" y="244" type="line"/>
      <point x="490" y="506" type="line" smooth="yes"/>
      <point x="490" y="606"/>
      <point x="428" y="652"/>
      <point x="305" y="652" type="curve" smooth="yes"/>
      <point x="174" y="652"/>
      <point x="117" y="599"/>
      <point x="117" y="491" type="curve" smooth="yes"/>
      <point x="117" y="428"/>
      <point x="137" y="377"/>
      <point x="137" y="314" type="curve" smooth="yes"/>
      <point x="137" y="292"/>
      <point x="134" y="268"/>
      <point x="107" y="268" type="curve" smooth="yes"/>
      <point x="76" y="268"/>
      <point x="56" y="316"/>
      <point x="41" y="355" type="curve"/>
      <point x="20" y="347" type="line"/>
      <point x="37" y="280"/>
      <point x="65" y="242"/>
    </contour>
  </outline>
</glyph>
<glyph name="uni1798" format="2">
  <advance width="593"/>
  <unicode hex="1798"/>
  <note>
uni1798
</note>
  <outline>
    <contour>
      <point x="127" y="474" type="line"/>
      <point x="469" y="474" type="line"/>
      <point x="469" y="500" type="line"/>
      <point x="127" y="500" type="line"/>
    </contour>
    <contour>
      <point x="137" y="577" type="line"/>
      <point x="111" y="577" type="line"/>
      <point x="111" y="402" type="line" smooth="yes"/>
      <point x="111" y="297"/>
      <point x="173" y="244"/>
      <point x="297" y="244" type="curve" smooth="yes"/>
      <point x="422" y="244"/>
      <point x="484" y="297"/>
      <point x="484" y="402" type="curve" smooth="yes"/>
      <point x="484" y="577" type="line"/>
      <point x="458" y="577" type="line"/>
      <point x="458" y="402" type="line" smooth="yes"/>
      <point x="458" y="319"/>
      <point x="404" y="269"/>
      <point x="297" y="269" type="curve" smooth="yes"/>
      <point x="190" y="269"/>
      <point x="137" y="319"/>
      <point x="137" y="402" type="curve" smooth="yes"/>
    </contour>
    <contour>
      <point x="458" y="570" type="line"/>
      <point x="484" y="570" type="line"/>
      <point x="484" y="592" type="line"/>
      <point x="402" y="730" type="line"/>
      <point x="410" y="754" type="line"/>
      <point x="503" y="754" type="line"/>
      <point x="503" y="780" type="line"/>
      <point x="412" y="780" type="line"/>
      <point x="397" y="763"/>
      <point x="387" y="741"/>
      <point x="387" y="724" type="curve" smooth="yes"/>
      <point x="387" y="708"/>
      <point x="401" y="680"/>
      <point x="458" y="588" type="curve"/>
    </contour>
    <contour>
      <point x="111" y="570" type="line"/>
      <point x="137" y="570" type="line"/>
      <point x="137" y="592" type="line"/>
      <point x="55" y="730" type="line"/>
      <point x="63" y="754" type="line"/>
      <point x="156" y="754" type="line"/>
      <point x="156" y="780" type="line"/>
      <point x="65" y="780" type="line"/>
      <point x="50" y="763"/>
      <point x="40" y="741"/>
      <point x="40" y="724" type="curve" smooth="yes"/>
      <point x="40" y="708"/>
      <point x="54" y="680"/>
      <point x="111" y="588" type="curve"/>
    </contour>
  </outline>
</glyph>
<glyph name="uni179A" format="2">
  <advance width="274"/>
  <unicode hex="179A"/>
  <note>
uni179A
</note>
  <outline>
    <contour>
      <point x="149" y="570" type="line"/>
      <point x="175" y="570" type="line"/>
      <point x="175" y="592" type="line"/>
      <point x="93" y="730" type="line"/>
      <point x="101" y="754" type="line"/>
      <point x="194" y="754" type="line"/>
      <point x="194" y="780" type="line"/>
      <point x="103" y="780" type="line"/>
      <point x="88" y="763"/>
      <point x="78" y="741"/>
      <point x="78" y="724" type="curve" smooth="yes"/>
      <point x="78" y="708"/>
      <point x="92" y="680"/>
      <point x="149" y="588" type="curve"/>
    </contour>
    <contour>
      <point x="175" y="579" type="line"/>
      <point x="149" y="579" type="line"/>
      <point x="149" y="422" type="line"/>
      <point x="113" y="420"/>
      <point x="60" y="396"/>
      <point x="60" y="328" type="curve" smooth="yes"/>
      <point x="60" y="279"/>
      <point x="97" y="244"/>
      <point x="143" y="244" type="curve" smooth="yes"/>
      <point x="147" y="244" type="line" smooth="yes"/>
      <point x="164" y="244"/>
      <point x="175" y="253"/>
      <point x="175" y="266" type="curve" smooth="yes"/>
    </contour>
    <contour>
      <point x="149" y="269" type="line"/>
      <point x="110" y="269"/>
      <point x="86" y="289"/>
      <point x="86" y="328" type="curve" smooth="yes"/>
      <point x="86" y="374"/>
      <point x="121" y="394"/>
      <point x="149" y="394" type="curve"/>
    </contour>
  </outline>
</glyph>
<glyph name="uni179B" format="2">
  <advance width="886"/>
  <unicode hex="179B"/>
  <note>
uni179B
</note>
  <outline>
    <contour>
      <point x="777" y="580" type="line"/>
      <point x="751" y="580" type="line"/>
      <point x="751" y="402" type="line" smooth="yes"/>
      <point x="751" y="319"/>
      <point x="702" y="270"/>
      <point x="605" y="270" type="curve" smooth="yes"/>
      <point x="510" y="270"/>
      <point x="462" y="319"/>
      <point x="462" y="402" type="curve" smooth="yes"/>
      <point x="462" y="622" type="line" smooth="yes"/>
      <point x="462" y="727"/>
      <point x="403" y="780"/>
      <point x="285" y="780" type="curve" smooth="yes"/>
      <point x="169" y="780"/>
      <point x="110" y="727"/>
      <point x="110" y="622" type="curve" smooth="yes"/>
      <point x="110" y="434" type="line"/>
      <point x="136" y="434" type="line"/>
      <point x="136" y="622" type="line" smooth="yes"/>
      <point x="136" y="703"/>
      <point x="188" y="754"/>
      <point x="285" y="754" type="curve" smooth="yes"/>
      <point x="384" y="754"/>
      <point x="436" y="703"/>
      <point x="436" y="622" type="curve" smooth="yes"/>
      <point x="436" y="402" type="line" smooth="yes"/>
      <point x="436" y="297"/>
      <point x="491" y="244"/>
      <point x="605" y="244" type="curve" smooth="yes"/>
      <point x="721" y="244"/>
      <point x="777" y="297"/>
      <point x="777" y="402" type="curve" smooth="yes"/>
    </contour>
    <contour>
      <point x="110" y="452" type="line" smooth="yes"/>
      <point x="110" y="271" type="line" smooth="yes"/>
      <point x="110" y="247"/>
      <point x="126" y="244"/>
      <point x="139" y="244" type="curve" smooth="yes"/>
      <point x="142" y="244" type="line" smooth="yes"/>
      <point x="178" y="244"/>
      <point x="221" y="277"/>
      <point x="221" y="338" type="curve" smooth="yes"/>
      <point x="221" y="393"/>
      <point x="178" y="412"/>
      <point x="136" y="412" type="curve"/>
      <point x="136" y="452" type="line"/>
    </contour>
    <contour>
      <point x="136" y="270" type="curve"/>
      <point x="136" y="385" type="line"/>
      <point x="180" y="385"/>
      <point x="195" y="365"/>
      <point x="195" y="335" type="curve" smooth="yes"/>
      <point x="195" y="312"/>
      <point x="183" y="270"/>
    </contour>
    <contour>
      <point x="751" y="570" type="line"/>
      <point x="777" y="570" type="line"/>
      <point x="777" y="592" type="line"/>
      <point x="695" y="730" type="line"/>
      <point x="703" y="754" type="line"/>
      <point x="796" y="754" type="line"/>
      <point x="796" y="780" type="line"/>
      <point x="705" y="780" type="line"/>
      <point x="690" y="763"/>
      <point x="680" y="741"/>
      <point x="680" y="724" type="curve" smooth="yes"/>
      <point x="680" y="708"/>
      <point x="694" y="680"/>
      <point x="751" y="588" type="curve"/>
    </contour>
  </outline>
</glyph>
<glyph name="uni179D" format="2">
  <advance width="588"/>
  <unicode hex="179D"/>
  <note>
uni179D
</note>
  <outline>
    <contour>
      <point x="361" y="376" type="line"/>
      <point x="565" y="376" type="line"/>
      <point x="565" y="402" type="line"/>
      <point x="361" y="402" type="line"/>
    </contour>
    <contour>
      <point x="110" y="754" type="line"/>
      <point x="481" y="754" type="line"/>
      <point x="481" y="780" type="line"/>
      <point x="110" y="780" type="line"/>
    </contour>
    <contour>
      <point x="110" y="244" type="line"/>
      <point x="136" y="244" type="line"/>
      <point x="136" y="297" type="line"/>
      <point x="144" y="355"/>
      <point x="182" y="376"/>
      <point x="271" y="376" type="curve" smooth="yes"/>
      <point x="322" y="376" type="line"/>
      <point x="322" y="402" type="line"/>
      <point x="260" y="402" type="line" smooth="yes"/>
      <point x="208" y="402"/>
      <point x="166" y="392"/>
      <point x="136" y="358" type="curve"/>
      <point x="136" y="506" type="line" smooth="yes"/>
      <point x="136" y="583"/>
      <point x="183" y="625"/>
      <point x="294" y="625" type="curve" smooth="yes"/>
      <point x="407" y="625"/>
      <point x="455" y="586"/>
      <point x="455" y="506" type="curve" smooth="yes"/>
      <point x="455" y="244" type="line"/>
      <point x="481" y="244" type="line"/>
      <point x="481" y="506" type="line" smooth="yes"/>
      <point x="481" y="607"/>
      <point x="414" y="651"/>
      <point x="294" y="651" type="curve" smooth="yes"/>
      <point x="176" y="651"/>
      <point x="110" y="609"/>
      <point x="110" y="506" type="curve" smooth="yes"/>
    </contour>
  </outline>
</glyph>
<glyph name="uni179E" format="2">
  <advance width="602"/>
  <unicode hex="179E"/>
  <note>
uni179E
</note>
  <outline>
    <contour>
      <point x="375" y="514" type="line"/>
      <point x="572" y="514" type="line"/>
      <point x="572" y="540" type="line"/>
      <point x="375" y="540" type="line"/>
    </contour>
    <contour>
      <point x="137" y="577" type="line"/>
      <point x="111" y="577" type="line"/>
      <point x="111" y="402" type="line" smooth="yes"/>
      <point x="111" y="297"/>
      <point x="173" y="244"/>
      <point x="297" y="244" type="curve" smooth="yes"/>
      <point x="422" y="244"/>
      <point x="484" y="297"/>
      <point x="484" y="402" type="curve" smooth="yes"/>
      <point x="484" y="577" type="line"/>
      <point x="458" y="577" type="line"/>
      <point x="458" y="402" type="line" smooth="yes"/>
      <point x="458" y="319"/>
      <point x="404" y="269"/>
      <point x="297" y="269" type="curve" smooth="yes"/>
      <point x="190" y="269"/>
      <point x="137" y="319"/>
      <point x="137" y="402" type="curve" smooth="yes"/>
    </contour>
    <contour>
      <point x="458" y="570" type="line"/>
      <point x="484" y="570" type="line"/>
      <point x="484" y="592" type="line"/>
      <point x="402" y="730" type="line"/>
      <point x="410" y="754" type="line"/>
      <point x="503" y="754" type="line"/>
      <point x="503" y="780" type="line"/>
      <point x="412" y="780" type="line"/>
      <point x="397" y="763"/>
      <point x="387" y="741"/>
      <point x="387" y="724" type="curve" smooth="yes"/>
      <point x="387" y="708"/>
      <point x="401" y="680"/>
      <point x="458" y="588" type="curve"/>
    </contour>
    <contour>
      <point x="111" y="570" type="line"/>
      <point x="137" y="570" type="line"/>
      <point x="137" y="592" type="line"/>
      <point x="55" y="730" type="line"/>
      <point x="63" y="754" type="line"/>
      <point x="156" y="754" type="line"/>
      <point x="156" y="780" type="line"/>
      <point x="65" y="780" type="line"/>
      <point x="50" y="763"/>
      <point x="40" y="741"/>
      <point x="40" y="724" type="curve" smooth="yes"/>
      <point x="40" y="708"/>
      <point x="54" y="680"/>
      <point x="111" y="588" type="curve"/>
    </contour>
  </outline>
</glyph>
<glyph name="uni17A0" format="2">
  <advance width="903"/>
  <unicode hex="17A0"/>
  <note>
uni17A0
</note>
  <outline>
    <contour>
      <point x="137" y="576" type="line"/>
      <point x="111" y="576" type="line"/>
      <point x="111" y="402" type="line" smooth="yes"/>
      <point x="111" y="297"/>
      <point x="173" y="244"/>
      <point x="297" y="244" type="curve" smooth="yes"/>
      <point x="426" y="244"/>
      <point x="476" y="300"/>
      <point x="476" y="411" type="curve" smooth="yes"/>
      <point x="476" y="622" type="line" smooth="yes"/>
      <point x="476" y="702"/>
      <point x="528" y="754"/>
      <point x="621" y="754" type="curve" smooth="yes"/>
      <point x="716" y="754"/>
      <point x="767" y="703"/>
      <point x="767" y="622" type="curve" smooth="yes"/>
      <point x="767" y="244" type="line"/>
      <point x="793" y="244" type="line"/>
      <point x="793" y="622" type="line" smooth="yes"/>
      <point x="793" y="727"/>
      <point x="734" y="780"/>
      <point x="621" y="780" type="curve" smooth="yes"/>
      <point x="513" y="780"/>
      <point x="450" y="716"/>
      <point x="450" y="622" type="curve" smooth="yes"/>
      <point x="450" y="402" type="line" smooth="yes"/>
      <point x="450" y="319"/>
      <point x="404" y="269"/>
      <point x="297" y="269" type="curve" smooth="yes"/>
      <point x="190" y="269"/>
      <point x="137" y="319"/>
      <point x="137" y="402" type="curve" smooth="yes"/>
    </contour>
    <contour>
      <point x="111" y="570" type="line"/>
      <point x="137" y="570" type="line"/>
      <point x="137" y="592" type="line"/>
      <point x="55" y="730" type="line"/>
      <point x="63" y="754" type="line"/>
      <point x="156" y="754" type="line"/>
      <point x="156" y="780" type="line"/>
      <point x="65" y="780" type="line"/>
      <point x="50" y="763"/>
      <point x="40" y="741"/>
      <point x="40" y="724" type="curve" smooth="yes"/>
      <point x="40" y="708"/>
      <point x="54" y="680"/>
      <point x="111" y="588" type="curve"/>
    </contour>
  </outline>
</glyph>
<glyph name="uni17A1" format="2">
  <advance width="767"/>
  <unicode hex="17A1"/>
  <note>
uni17A1
</note>
  <outline>
    <contour>
      <point x="283" y="244" type="curve" smooth="yes"/>
      <point x="390" y="244"/>
      <point x="443" y="297"/>
      <point x="443" y="402" type="curve" smooth="yes"/>
      <point x="443" y="436" type="line"/>
      <point x="460" y="438"/>
      <point x="474" y="452"/>
      <point x="474" y="468" type="curve" smooth="yes"/>
      <point x="474" y="484"/>
      <point x="464" y="495"/>
      <point x="448" y="495" type="curve" smooth="yes"/>
      <point x="431" y="495"/>
      <point x="419" y="482"/>
      <point x="417" y="458" type="curve"/>
      <point x="211" y="491"/>
      <point x="125" y="525"/>
      <point x="125" y="622" type="curve" smooth="yes"/>
      <point x="125" y="713"/>
      <point x="166" y="754"/>
      <point x="286" y="754" type="curve" smooth="yes"/>
      <point x="393" y="754"/>
      <point x="447" y="708"/>
      <point x="447" y="632" type="curve" smooth="yes"/>
      <point x="447" y="608" type="line"/>
      <point x="473" y="608" type="line"/>
      <point x="473" y="632" type="line" smooth="yes"/>
      <point x="473" y="716"/>
      <point x="410" y="780"/>
      <point x="286" y="780" type="curve" smooth="yes"/>
      <point x="155" y="780"/>
      <point x="100" y="723"/>
      <point x="100" y="622" type="curve" smooth="yes"/>
      <point x="100" y="516"/>
      <point x="179" y="471"/>
      <point x="417" y="436" type="curve"/>
      <point x="417" y="402" type="line" smooth="yes"/>
      <point x="417" y="322"/>
      <point x="370" y="270"/>
      <point x="283" y="270" type="curve" smooth="yes"/>
      <point x="196" y="270"/>
      <point x="150" y="321"/>
      <point x="150" y="402" type="curve" smooth="yes"/>
      <point x="150" y="440" type="line"/>
      <point x="124" y="440" type="line"/>
      <point x="124" y="402" type="line" smooth="yes"/>
      <point x="124" y="297"/>
      <point x="177" y="244"/>
    </contour>
    <contour>
      <point x="658" y="577" type="line"/>
      <point x="632" y="577" type="line"/>
      <point x="632" y="36" type="line"/>
      <point x="486" y="174" type="line"/>
      <point x="338" y="34" type="line"/>
      <point x="338" y="164" type="line" smooth="yes"/>
      <point x="338" y="182"/>
      <point x="330" y="195"/>
      <point x="305" y="195" type="curve" smooth="yes"/>
      <point x="258" y="195" type="line"/>
      <point x="258" y="169" type="line"/>
      <point x="294" y="169"/>
      <point x="312" y="169"/>
      <point x="312" y="147" type="curve" smooth="yes"/>
      <point x="312" y="5" type="line"/>
      <point x="345" y="5" type="line"/>
      <point x="486" y="139" type="line"/>
      <point x="625" y="5" type="line"/>
      <point x="658" y="5" type="line"/>
    </contour>
    <contour>
      <point x="632" y="570" type="line"/>
      <point x="658" y="570" type="line"/>
      <point x="658" y="592" type="line"/>
      <point x="576" y="730" type="line"/>
      <point x="584" y="754" type="line"/>
      <point x="677" y="754" type="line"/>
      <point x="677" y="780" type="line"/>
      <point x="586" y="780" type="line"/>
      <point x="571" y="763"/>
      <point x="561" y="741"/>
      <point x="561" y="724" type="curve" smooth="yes"/>
      <point x="561" y="708"/>
      <point x="575" y="680"/>
      <point x="632" y="588" type="curve"/>
    </contour>
  </outline>
</glyph>
<glyph name="uni17A2" format="2">
  <advance width="632"/>
  <unicode hex="17A2"/>
  <note>
uni17A2
</note>
  <outline>
    <contour>
      <point x="523" y="579" type="line"/>
      <point x="497" y="579" type="line"/>
      <point x="497" y="500" type="line"/>
      <point x="176" y="500" type="line"/>
      <point x="176" y="579" type="line"/>
      <point x="150" y="579" type="line"/>
      <point x="150" y="310" type="line" smooth="yes"/>
      <point x="150" y="276"/>
      <point x="129" y="270"/>
      <point x="60" y="270" type="curve"/>
      <point x="60" y="244" type="line"/>
      <point x="86" y="244" type="line" smooth="yes"/>
      <point x="152" y="244"/>
      <point x="176" y="267"/>
      <point x="176" y="315" type="curve" smooth="yes"/>
      <point x="176" y="473" type="line"/>
      <point x="497" y="473" type="line"/>
      <point x="497" y="310" type="line" smooth="yes"/>
      <point x="497" y="276"/>
      <point x="476" y="270"/>
      <point x="407" y="270" type="curve"/>
      <point x="407" y="244" type="line"/>
      <point x="433" y="244" type="line" smooth="yes"/>
      <point x="499" y="244"/>
      <point x="523" y="267"/>
      <point x="523" y="315" type="curve" smooth="yes"/>
    </contour>
    <contour>
      <point x="497" y="570" type="line"/>
      <point x="523" y="570" type="line"/>
      <point x="523" y="592" type="line"/>
      <point x="441" y="730" type="line"/>
      <point x="449" y="754" type="line"/>
      <point x="542" y="754" type="line"/>
      <point x="542" y="780" type="line"/>
      <point x="451" y="780" type="line"/>
      <point x="436" y="763"/>
      <point x="426" y="741"/>
      <point x="426" y="724" type="curve" smooth="yes"/>
      <point x="426" y="708"/>
      <point x="440" y="680"/>
      <point x="497" y="588" type="curve"/>
    </contour>
    <contour>
      <point x="150" y="570" type="line"/>
      <point x="176" y="570" type="line"/>
      <point x="176" y="592" type="line"/>
      <point x="94" y="730" type="line"/>
      <point x="102" y="754" type="line"/>
      <point x="195" y="754" type="line"/>
      <point x="195" y="780" type="line"/>
      <point x="104" y="780" type="line"/>
      <point x="89" y="763"/>
      <point x="79" y="741"/>
      <point x="79" y="724" type="curve" smooth="yes"/>
      <point x="79" y="708"/>
      <point x="93" y="680"/>
      <point x="150" y="588" type="curve"/>
    </contour>
  </outline>
</glyph>
<glyph name="uni17A5" format="2">
  <advance width="594"/>
  <unicode hex="17A5"/>
  <note>
uni17A5
</note>
  <outline>
    <contour>
      <point x="110" y="626" type="curve"/>
      <point x="129" y="644" type="line"/>
      <point x="98" y="676"/>
      <point x="86" y="693"/>
      <point x="86" y="707" type="curve" smooth="yes"/>
      <point x="86" y="724"/>
      <point x="107" y="752"/>
      <point x="118" y="755" type="curve"/>
      <point x="399" y="755" type="line" smooth="yes"/>
      <point x="480" y="755"/>
      <point x="482" y="770"/>
      <point x="482" y="805" type="curve" smooth="yes"/>
      <point x="482" y="859" type="line"/>
      <point x="456" y="859" type="line"/>
      <point x="456" y="805" type="line" smooth="yes"/>
      <point x="456" y="788"/>
      <point x="451" y="781"/>
      <point x="416" y="781" type="curve" smooth="yes"/>
      <point x="116" y="781" type="line"/>
      <point x="83" y="752"/>
      <point x="60" y="726"/>
      <point x="60" y="701" type="curve" smooth="yes"/>
      <point x="60" y="686"/>
      <point x="65" y="673"/>
    </contour>
    <contour>
      <point x="111" y="430" type="line"/>
      <point x="137" y="430" type="line"/>
      <point x="137" y="506" type="line" smooth="yes"/>
      <point x="137" y="588"/>
      <point x="190" y="638"/>
      <point x="297" y="638" type="curve" smooth="yes"/>
      <point x="404" y="638"/>
      <point x="458" y="588"/>
      <point x="458" y="506" type="curve" smooth="yes"/>
      <point x="458" y="244" type="line"/>
      <point x="484" y="244" type="line"/>
      <point x="484" y="506" type="line" smooth="yes"/>
      <point x="484" y="611"/>
      <point x="422" y="664"/>
      <point x="297" y="664" type="curve" smooth="yes"/>
      <point x="173" y="664"/>
      <point x="111" y="611"/>
      <point x="111" y="506" type="curve" smooth="yes"/>
    </contour>
    <contour>
      <point x="111" y="452" type="line" smooth="yes"/>
      <point x="111" y="271" type="line" smooth="yes"/>
      <point x="111" y="247"/>
      <point x="127" y="244"/>
      <point x="140" y="244" type="curve" smooth="yes"/>
      <point x="143" y="244" type="line" smooth="yes"/>
      <point x="179" y="244"/>
      <point x="222" y="277"/>
      <point x="222" y="338" type="curve" smooth="yes"/>
      <point x="222" y="393"/>
      <point x="179" y="412"/>
      <point x="137" y="412" type="curve"/>
      <point x="137" y="452" type="line"/>
    </contour>
    <contour>
      <point x="137" y="270" type="curve"/>
      <point x="137" y="385" type="line"/>
      <point x="181" y="385"/>
      <point x="196" y="365"/>
      <point x="196" y="335" type="curve" smooth="yes"/>
      <point x="196" y="312"/>
      <point x="184" y="270"/>
    </contour>
  </outline>
</glyph>
<glyph name="uni17A6" format="2">
  <advance width="882"/>
  <unicode hex="17A6"/>
  <note>
uni17A6
</note>
  <outline>
    <contour>
      <point x="772" y="748" type="line"/>
      <point x="746" y="748" type="line"/>
      <point x="746" y="129" type="line" smooth="yes"/>
      <point x="746" y="70"/>
      <point x="704" y="28"/>
      <point x="607" y="28" type="curve" smooth="yes"/>
      <point x="509" y="28"/>
      <point x="455" y="60"/>
      <point x="455" y="125" type="curve" smooth="yes"/>
      <point x="455" y="197"/>
      <point x="368" y="220"/>
      <point x="292" y="220" type="curve" smooth="yes"/>
      <point x="198" y="220"/>
      <point x="130" y="187"/>
      <point x="130" y="106" type="curve" smooth="yes"/>
      <point x="130" y="36" type="line" smooth="yes"/>
      <point x="130" y="12"/>
      <point x="141" y="0"/>
      <point x="178" y="0" type="curve" smooth="yes"/>
      <point x="198" y="0" type="line"/>
      <point x="198" y="26" type="line"/>
      <point x="173" y="26"/>
      <point x="156" y="26"/>
      <point x="156" y="44" type="curve" smooth="yes"/>
      <point x="156" y="106" type="line" smooth="yes"/>
      <point x="156" y="170"/>
      <point x="220" y="194"/>
      <point x="292" y="194" type="curve" smooth="yes"/>
      <point x="384" y="194"/>
      <point x="429" y="161"/>
      <point x="429" y="117" type="curve" smooth="yes"/>
      <point x="429" y="35"/>
      <point x="498" y="0"/>
      <point x="616" y="0" type="curve" smooth="yes"/>
      <point x="720" y="0"/>
      <point x="772" y="52"/>
      <point x="772" y="117" type="curve" smooth="yes"/>
    </contour>
    <contour>
      <point x="110" y="430" type="line"/>
      <point x="136" y="430" type="line"/>
      <point x="136" y="618" type="line"/>
      <point x="136" y="700"/>
      <point x="189" y="750"/>
      <point x="296" y="750" type="curve" smooth="yes"/>
      <point x="403" y="750"/>
      <point x="457" y="700"/>
      <point x="457" y="618" type="curve" smooth="yes"/>
      <point x="457" y="244" type="line"/>
      <point x="483" y="244" type="line"/>
      <point x="483" y="618" type="line" smooth="yes"/>
      <point x="483" y="723"/>
      <point x="421" y="776"/>
      <point x="296" y="776" type="curve" smooth="yes"/>
      <point x="172" y="776"/>
      <point x="110" y="723"/>
      <point x="110" y="618" type="curve"/>
    </contour>
    <contour>
      <point x="110" y="452" type="line" smooth="yes"/>
      <point x="110" y="271" type="line" smooth="yes"/>
      <point x="110" y="247"/>
      <point x="126" y="244"/>
      <point x="139" y="244" type="curve" smooth="yes"/>
      <point x="142" y="244" type="line" smooth="yes"/>
      <point x="178" y="244"/>
      <point x="221" y="277"/>
      <point x="221" y="338" type="curve" smooth="yes"/>
      <point x="221" y="393"/>
      <point x="178" y="412"/>
      <point x="136" y="412" type="curve"/>
      <point x="136" y="452" type="line"/>
    </contour>
    <contour>
      <point x="136" y="270" type="curve"/>
      <point x="136" y="385" type="line"/>
      <point x="180" y="385"/>
      <point x="195" y="365"/>
      <point x="195" y="335" type="curve" smooth="yes"/>
      <point x="195" y="312"/>
      <point x="183" y="270"/>
    </contour>
    <contour>
      <point x="746" y="730" type="line"/>
      <point x="772" y="730" type="line"/>
      <point x="772" y="804" type="line" smooth="yes"/>
      <point x="772" y="927"/>
      <point x="706" y="980"/>
      <point x="615" y="980" type="curve" smooth="yes"/>
      <point x="552" y="980"/>
      <point x="511" y="958"/>
      <point x="485" y="928" type="curve"/>
      <point x="485" y="1056" type="line"/>
      <point x="459" y="1056" type="line"/>
      <point x="459" y="886" type="line"/>
      <point x="485" y="886" type="line"/>
      <point x="509" y="924"/>
      <point x="546" y="954"/>
      <point x="616" y="954" type="curve" smooth="yes"/>
      <point x="703" y="954"/>
      <point x="746" y="901"/>
      <point x="746" y="804" type="curve" smooth="yes"/>
    </contour>
  </outline>
</glyph>
<glyph name="uni17A9" format="2">
  <advance width="665"/>
  <unicode hex="17A9"/>
  <note>
uni17A9
</note>
  <outline>
    <contour>
      <point x="549" y="226" type="line"/>
      <point x="575" y="226" type="line"/>
      <point x="575" y="438" type="line"/>
      <point x="549" y="438" type="line"/>
    </contour>
    <contour>
      <point x="457" y="226" type="line"/>
      <point x="483" y="226" type="line"/>
      <point x="483" y="438" type="line"/>
      <point x="457" y="438" type="line"/>
      <point x="457" y="396" type="line" smooth="yes"/>
      <point x="457" y="370"/>
      <point x="352" y="271"/>
      <point x="255" y="271" type="curve" smooth="yes"/>
      <point x="181" y="271"/>
      <point x="136" y="312"/>
      <point x="136" y="402" type="curve" smooth="yes"/>
      <point x="136" y="466" type="line"/>
      <point x="267" y="479" type="line" smooth="yes"/>
      <point x="408" y="493"/>
      <point x="483" y="546"/>
      <point x="483" y="651" type="curve" smooth="yes"/>
      <point x="483" y="737"/>
      <point x="417" y="790"/>
      <point x="298" y="790" type="curve" smooth="yes"/>
      <point x="171" y="790"/>
      <point x="112" y="720"/>
      <point x="112" y="641" type="curve" smooth="yes"/>
      <point x="112" y="588"/>
      <point x="138" y="555"/>
      <point x="180" y="555" type="curve" smooth="yes"/>
      <point x="184" y="555" type="line"/>
      <point x="184" y="579" type="line"/>
      <point x="161" y="579"/>
      <point x="138" y="599"/>
      <point x="138" y="638" type="curve" smooth="yes"/>
      <point x="138" y="724"/>
      <point x="206" y="764"/>
      <point x="296" y="764" type="curve" smooth="yes"/>
      <point x="415" y="764"/>
      <point x="457" y="721"/>
      <point x="457" y="650" type="curve" smooth="yes"/>
      <point x="457" y="557"/>
      <point x="388" y="516"/>
      <point x="250" y="503" type="curve" smooth="yes"/>
      <point x="110" y="490" type="line"/>
      <point x="110" y="402" type="line" smooth="yes"/>
      <point x="110" y="292"/>
      <point x="172" y="245"/>
      <point x="254" y="245" type="curve" smooth="yes"/>
      <point x="333" y="245"/>
      <point x="416" y="299"/>
      <point x="456" y="347" type="curve"/>
      <point x="457" y="347" type="line"/>
    </contour>
  </outline>
</glyph>
<glyph name="uni17AA" format="2">
  <advance width="597"/>
  <unicode hex="17AA"/>
  <note>
uni17AA
</note>
  <outline>
    <contour>
      <point x="119" y="748" type="curve"/>
      <point x="138" y="766" type="line"/>
      <point x="107" y="798"/>
      <point x="95" y="815"/>
      <point x="95" y="829" type="curve" smooth="yes"/>
      <point x="95" y="846"/>
      <point x="116" y="874"/>
      <point x="127" y="877" type="curve"/>
      <point x="407" y="877" type="line" smooth="yes"/>
      <point x="488" y="877"/>
      <point x="490" y="892"/>
      <point x="490" y="927" type="curve" smooth="yes"/>
      <point x="490" y="981" type="line"/>
      <point x="464" y="981" type="line"/>
      <point x="464" y="927" type="line" smooth="yes"/>
      <point x="464" y="910"/>
      <point x="459" y="903"/>
      <point x="424" y="903" type="curve" smooth="yes"/>
      <point x="125" y="903" type="line"/>
      <point x="92" y="874"/>
      <point x="69" y="848"/>
      <point x="69" y="823" type="curve" smooth="yes"/>
      <point x="69" y="808"/>
      <point x="74" y="795"/>
    </contour>
    <contour>
      <point x="464" y="226" type="line"/>
      <point x="490" y="226" type="line"/>
      <point x="490" y="438" type="line"/>
      <point x="464" y="438" type="line"/>
      <point x="464" y="396" type="line" smooth="yes"/>
      <point x="464" y="370"/>
      <point x="359" y="271"/>
      <point x="262" y="271" type="curve" smooth="yes"/>
      <point x="188" y="271"/>
      <point x="143" y="312"/>
      <point x="143" y="402" type="curve" smooth="yes"/>
      <point x="143" y="466" type="line"/>
      <point x="274" y="479" type="line" smooth="yes"/>
      <point x="415" y="493"/>
      <point x="490" y="546"/>
      <point x="490" y="651" type="curve" smooth="yes"/>
      <point x="490" y="737"/>
      <point x="424" y="790"/>
      <point x="305" y="790" type="curve" smooth="yes"/>
      <point x="178" y="790"/>
      <point x="119" y="720"/>
      <point x="119" y="641" type="curve" smooth="yes"/>
      <point x="119" y="588"/>
      <point x="145" y="555"/>
      <point x="187" y="555" type="curve" smooth="yes"/>
      <point x="191" y="555" type="line"/>
      <point x="191" y="579" type="line"/>
      <point x="168" y="579"/>
      <point x="145" y="599"/>
      <point x="145" y="638" type="curve" smooth="yes"/>
      <point x="145" y="724"/>
      <point x="213" y="764"/>
      <point x="303" y="764" type="curve" smooth="yes"/>
      <point x="422" y="764"/>
      <point x="464" y="721"/>
      <point x="464" y="650" type="curve" smooth="yes"/>
      <point x="464" y="557"/>
      <point x="395" y="516"/>
      <point x="257" y="503" type="curve" smooth="yes"/>
      <point x="117" y="490" type="line"/>
      <point x="117" y="402" type="line" smooth="yes"/>
      <point x="117" y="292"/>
      <point x="179" y="245"/>
      <point x="261" y="245" type="curve" smooth="yes"/>
      <point x="340" y="245"/>
      <point x="423" y="299"/>
      <point x="463" y="347" type="curve"/>
      <point x="464" y="347" type="line"/>
    </contour>
  </outline>
</glyph>
<glyph name="uni17AB" format="2">
  <advance width="593"/>
  <unicode hex="17AB"/>
  <note>
uni17AB
</note>
  <outline>
    <contour>
      <point x="137" y="577" type="line"/>
      <point x="111" y="577" type="line"/>
      <point x="111" y="402" type="line" smooth="yes"/>
      <point x="111" y="297"/>
      <point x="173" y="244"/>
      <point x="297" y="244" type="curve" smooth="yes"/>
      <point x="422" y="244"/>
      <point x="484" y="297"/>
      <point x="484" y="402" type="curve" smooth="yes"/>
      <point x="484" y="577" type="line"/>
      <point x="458" y="577" type="line"/>
      <point x="458" y="402" type="line" smooth="yes"/>
      <point x="458" y="319"/>
      <point x="404" y="269"/>
      <point x="297" y="269" type="curve" smooth="yes"/>
      <point x="190" y="269"/>
      <point x="137" y="319"/>
      <point x="137" y="402" type="curve" smooth="yes"/>
    </contour>
    <contour>
      <point x="458" y="570" type="line"/>
      <point x="484" y="570" type="line"/>
      <point x="484" y="592" type="line"/>
      <point x="402" y="730" type="line"/>
      <point x="410" y="754" type="line"/>
      <point x="503" y="754" type="line"/>
      <point x="503" y="780" type="line"/>
      <point x="412" y="780" type="line"/>
      <point x="397" y="763"/>
      <point x="387" y="741"/>
      <point x="387" y="724" type="curve" smooth="yes"/>
      <point x="387" y="708"/>
      <point x="401" y="680"/>
      <point x="458" y="588" type="curve"/>
    </contour>
    <contour>
      <point x="111" y="570" type="line"/>
      <point x="137" y="570" type="line"/>
      <point x="137" y="592" type="line"/>
      <point x="55" y="730" type="line"/>
      <point x="63" y="754" type="line"/>
      <point x="156" y="754" type="line"/>
      <point x="156" y="780" type="line"/>
      <point x="65" y="780" type="line"/>
      <point x="50" y="763"/>
      <point x="40" y="741"/>
      <point x="40" y="724" type="curve" smooth="yes"/>
      <point x="40" y="708"/>
      <point x="54" y="680"/>
      <point x="111" y="588" type="curve"/>
    </contour>
    <contour>
      <point x="130" y="20" type="line"/>
      <point x="174" y="20" type="line" smooth="yes"/>
      <point x="416" y="20"/>
      <point x="503" y="102"/>
      <point x="503" y="186" type="curve" smooth="yes"/>
      <point x="503" y="220" type="line"/>
      <point x="423" y="220" type="line"/>
      <point x="423" y="194" type="line"/>
      <point x="477" y="194" type="line"/>
      <point x="477" y="97"/>
      <point x="370" y="45"/>
      <point x="171" y="45" type="curve" smooth="yes"/>
      <point x="130" y="45" type="line"/>
    </contour>
  </outline>
</glyph>
<glyph name="uni17AC" format="2">
  <advance width="625"/>
  <unicode hex="17AC"/>
  <note>
uni17AC
</note>
  <outline>
    <contour>
      <point x="137" y="577" type="line"/>
      <point x="111" y="577" type="line"/>
      <point x="111" y="402" type="line" smooth="yes"/>
      <point x="111" y="297"/>
      <point x="173" y="244"/>
      <point x="297" y="244" type="curve" smooth="yes"/>
      <point x="422" y="244"/>
      <point x="484" y="297"/>
      <point x="484" y="402" type="curve" smooth="yes"/>
      <point x="484" y="577" type="line"/>
      <point x="458" y="577" type="line"/>
      <point x="458" y="402" type="line" smooth="yes"/>
      <point x="458" y="319"/>
      <point x="404" y="269"/>
      <point x="297" y="269" type="curve" smooth="yes"/>
      <point x="190" y="269"/>
      <point x="137" y="319"/>
      <point x="137" y="402" type="curve" smooth="yes"/>
    </contour>
    <contour>
      <point x="458" y="570" type="line"/>
      <point x="484" y="570" type="line"/>
      <point x="484" y="592" type="line"/>
      <point x="402" y="730" type="line"/>
      <point x="410" y="754" type="line"/>
      <point x="503" y="754" type="line"/>
      <point x="503" y="780" type="line"/>
      <point x="412" y="780" type="line"/>
      <point x="397" y="763"/>
      <point x="387" y="741"/>
      <point x="387" y="724" type="curve" smooth="yes"/>
      <point x="387" y="708"/>
      <point x="401" y="680"/>
      <point x="458" y="588" type="curve"/>
    </contour>
    <contour>
      <point x="111" y="570" type="line"/>
      <point x="137" y="570" type="line"/>
      <point x="137" y="592" type="line"/>
      <point x="55" y="730" type="line"/>
      <point x="63" y="754" type="line"/>
      <point x="156" y="754" type="line"/>
      <point x="156" y="780" type="line"/>
      <point x="65" y="780" type="line"/>
      <point x="50" y="763"/>
      <point x="40" y="741"/>
      <point x="40" y="724" type="curve" smooth="yes"/>
      <point x="40" y="708"/>
      <point x="54" y="680"/>
      <point x="111" y="588" type="curve"/>
    </contour>
    <contour>
      <point x="422" y="81" type="line"/>
      <point x="443" y="55"/>
      <point x="480" y="20"/>
      <point x="523" y="20" type="curve" smooth="yes"/>
      <point x="545" y="20" type="line"/>
      <point x="545" y="46" type="line"/>
      <point x="524" y="46" type="line" smooth="yes"/>
      <point x="487" y="46"/>
      <point x="461" y="70"/>
      <point x="443" y="100" type="curve"/>
    </contour>
    <contour>
      <point x="111" y="20" type="line"/>
      <point x="155" y="20" type="line" smooth="yes"/>
      <point x="397" y="20"/>
      <point x="484" y="102"/>
      <point x="484" y="186" type="curve" smooth="yes"/>
      <point x="484" y="220" type="line"/>
      <point x="404" y="220" type="line"/>
      <point x="404" y="194" type="line"/>
      <point x="458" y="194" type="line"/>
      <point x="458" y="97"/>
      <point x="351" y="45"/>
      <point x="152" y="45" type="curve" smooth="yes"/>
      <point x="111" y="45" type="line"/>
    </contour>
  </outline>
</glyph>
<glyph name="uni17AE" format="2">
  <advance width="586"/>
  <unicode hex="17AE"/>
  <note>
uni17AE
</note>
  <outline>
    <contour>
      <point x="110" y="431" type="line"/>
      <point x="136" y="431" type="line"/>
      <point x="136" y="652" type="line" smooth="yes"/>
      <point x="136" y="720"/>
      <point x="154" y="754"/>
      <point x="201" y="754" type="curve" smooth="yes"/>
      <point x="248" y="754"/>
      <point x="271" y="693"/>
      <point x="297" y="693" type="curve" smooth="yes"/>
      <point x="327" y="693"/>
      <point x="340" y="753"/>
      <point x="402" y="753" type="curve" smooth="yes"/>
      <point x="440" y="753"/>
      <point x="458" y="718"/>
      <point x="458" y="645" type="curve" smooth="yes"/>
      <point x="458" y="244" type="line"/>
      <point x="484" y="244" type="line"/>
      <point x="484" y="645" type="line" smooth="yes"/>
      <point x="484" y="734"/>
      <point x="460" y="779"/>
      <point x="403" y="779" type="curve" smooth="yes"/>
      <point x="361" y="779"/>
      <point x="334" y="759"/>
      <point x="298" y="719" type="curve"/>
      <point x="296" y="719" type="line"/>
      <point x="265" y="758"/>
      <point x="238" y="780"/>
      <point x="201" y="780" type="curve" smooth="yes"/>
      <point x="140" y="780"/>
      <point x="110" y="734"/>
      <point x="110" y="655" type="curve" smooth="yes"/>
    </contour>
    <contour>
      <point x="110" y="452" type="line" smooth="yes"/>
      <point x="110" y="271" type="line" smooth="yes"/>
      <point x="110" y="247"/>
      <point x="126" y="244"/>
      <point x="139" y="244" type="curve" smooth="yes"/>
      <point x="142" y="244" type="line" smooth="yes"/>
      <point x="178" y="244"/>
      <point x="221" y="277"/>
      <point x="221" y="338" type="curve" smooth="yes"/>
      <point x="221" y="393"/>
      <point x="178" y="412"/>
      <point x="136" y="412" type="curve"/>
      <point x="136" y="452" type="line"/>
    </contour>
    <contour>
      <point x="136" y="270" type="curve"/>
      <point x="136" y="385" type="line"/>
      <point x="180" y="385"/>
      <point x="195" y="365"/>
      <point x="195" y="335" type="curve" smooth="yes"/>
      <point x="195" y="312"/>
      <point x="183" y="270"/>
    </contour>
    <contour>
      <point x="422" y="81" type="line"/>
      <point x="443" y="55"/>
      <point x="480" y="20"/>
      <point x="523" y="20" type="curve" smooth="yes"/>
      <point x="545" y="20" type="line"/>
      <point x="545" y="46" type="line"/>
      <point x="524" y="46" type="line" smooth="yes"/>
      <point x="487" y="46"/>
      <point x="461" y="70"/>
      <point x="443" y="100" type="curve"/>
    </contour>
    <contour>
      <point x="111" y="20" type="line"/>
      <point x="155" y="20" type="line" smooth="yes"/>
      <point x="397" y="20"/>
      <point x="484" y="102"/>
      <point x="484" y="186" type="curve" smooth="yes"/>
      <point x="484" y="220" type="line"/>
      <point x="404" y="220" type="line"/>
      <point x="404" y="194" type="line"/>
      <point x="458" y="194" type="line"/>
      <point x="458" y="97"/>
      <point x="351" y="45"/>
      <point x="152" y="45" type="curve" smooth="yes"/>
      <point x="111" y="45" type="line"/>
    </contour>
  </outline>
</glyph>
<glyph name="uni17AF" format="2">
  <advance width="596"/>
  <unicode hex="17AF"/>
  <note>
uni17AF
</note>
  <outline>
    <contour>
      <point x="114" y="244" type="line"/>
      <point x="146" y="244" type="line"/>
      <point x="302" y="378" type="line"/>
      <point x="455" y="244" type="line"/>
      <point x="486" y="244" type="line"/>
      <point x="486" y="618" type="line" smooth="yes"/>
      <point x="486" y="731"/>
      <point x="436" y="780"/>
      <point x="331" y="780" type="curve" smooth="yes"/>
      <point x="219" y="780" type="line" smooth="yes"/>
      <point x="167" y="780"/>
      <point x="141" y="786"/>
      <point x="141" y="879" type="curve" smooth="yes"/>
      <point x="141" y="936" type="line"/>
      <point x="115" y="936" type="line"/>
      <point x="115" y="851" type="line" smooth="yes"/>
      <point x="115" y="777"/>
      <point x="150" y="754"/>
      <point x="225" y="754" type="curve" smooth="yes"/>
      <point x="336" y="754" type="line" smooth="yes"/>
      <point x="419" y="754"/>
      <point x="460" y="707"/>
      <point x="460" y="632" type="curve" smooth="yes"/>
      <point x="460" y="275" type="line"/>
      <point x="302" y="413" type="line"/>
      <point x="140" y="273" type="line"/>
      <point x="140" y="647" type="line" smooth="yes"/>
      <point x="140" y="668"/>
      <point x="133" y="675"/>
      <point x="106" y="675" type="curve" smooth="yes"/>
      <point x="60" y="675" type="line"/>
      <point x="60" y="649" type="line"/>
      <point x="97" y="649"/>
      <point x="114" y="647"/>
      <point x="114" y="634" type="curve" smooth="yes"/>
    </contour>
  </outline>
</glyph>
<glyph name="uni17B0" format="2">
  <advance width="594"/>
  <unicode hex="17B0"/>
  <note>
uni17B0
</note>
  <outline>
    <contour>
      <point x="110" y="431" type="line"/>
      <point x="136" y="431" type="line"/>
      <point x="136" y="652" type="line" smooth="yes"/>
      <point x="136" y="720"/>
      <point x="154" y="754"/>
      <point x="201" y="754" type="curve" smooth="yes"/>
      <point x="248" y="754"/>
      <point x="271" y="693"/>
      <point x="297" y="693" type="curve" smooth="yes"/>
      <point x="327" y="693"/>
      <point x="340" y="753"/>
      <point x="402" y="753" type="curve" smooth="yes"/>
      <point x="440" y="753"/>
      <point x="458" y="718"/>
      <point x="458" y="645" type="curve" smooth="yes"/>
      <point x="458" y="244" type="line"/>
      <point x="484" y="244" type="line"/>
      <point x="484" y="645" type="line" smooth="yes"/>
      <point x="484" y="734"/>
      <point x="460" y="779"/>
      <point x="403" y="779" type="curve" smooth="yes"/>
      <point x="361" y="779"/>
      <point x="334" y="759"/>
      <point x="298" y="719" type="curve"/>
      <point x="296" y="719" type="line"/>
      <point x="265" y="758"/>
      <point x="238" y="780"/>
      <point x="201" y="780" type="curve" smooth="yes"/>
      <point x="140" y="780"/>
      <point x="110" y="734"/>
      <point x="110" y="655" type="curve" smooth="yes"/>
    </contour>
    <contour>
      <point x="110" y="452" type="line" smooth="yes"/>
      <point x="110" y="271" type="line" smooth="yes"/>
      <point x="110" y="247"/>
      <point x="126" y="244"/>
      <point x="139" y="244" type="curve" smooth="yes"/>
      <point x="142" y="244" type="line" smooth="yes"/>
      <point x="178" y="244"/>
      <point x="221" y="277"/>
      <point x="221" y="338" type="curve" smooth="yes"/>
      <point x="221" y="393"/>
      <point x="178" y="412"/>
      <point x="136" y="412" type="curve"/>
      <point x="136" y="452" type="line"/>
    </contour>
    <contour>
      <point x="136" y="270" type="curve"/>
      <point x="136" y="385" type="line"/>
      <point x="180" y="385"/>
      <point x="195" y="365"/>
      <point x="195" y="335" type="curve" smooth="yes"/>
      <point x="195" y="312"/>
      <point x="183" y="270"/>
    </contour>
    <contour>
      <point x="240" y="51" type="curve" smooth="yes"/>
      <point x="299" y="51"/>
      <point x="328" y="86"/>
      <point x="336" y="114" type="curve"/>
      <point x="355" y="96"/>
      <point x="377" y="86"/>
      <point x="407" y="86" type="curve" smooth="yes"/>
      <point x="443" y="86"/>
      <point x="484" y="96"/>
      <point x="484" y="160" type="curve" smooth="yes"/>
      <point x="484" y="245" type="line"/>
      <point x="458" y="245" type="line"/>
      <point x="441" y="234"/>
      <point x="383" y="219"/>
      <point x="158" y="170" type="curve"/>
      <point x="158" y="120" type="line" smooth="yes"/>
      <point x="158" y="79"/>
      <point x="194" y="51"/>
    </contour>
    <contour>
      <point x="246" y="77" type="curve" smooth="yes"/>
      <point x="221" y="77"/>
      <point x="184" y="83"/>
      <point x="184" y="125" type="curve" smooth="yes"/>
      <point x="184" y="148" type="line"/>
      <point x="312" y="177" type="line"/>
      <point x="312" y="146" type="line" smooth="yes"/>
      <point x="312" y="90"/>
      <point x="278" y="77"/>
    </contour>
    <contour>
      <point x="458" y="156" type="line" smooth="yes"/>
      <point x="458" y="125"/>
      <point x="442" y="110"/>
      <point x="406" y="110" type="curve" smooth="yes"/>
      <point x="376" y="110"/>
      <point x="338" y="131"/>
      <point x="338" y="143" type="curve" smooth="yes"/>
      <point x="338" y="183" type="line"/>
      <point x="458" y="210" type="line"/>
    </contour>
  </outline>
</glyph>
<glyph name="uni17B1" format="2">
  <advance width="592"/>
  <unicode hex="17B1"/>
  <note>
uni17B1
</note>
  <outline>
    <contour>
      <point x="109" y="788" type="curve"/>
      <point x="128" y="806" type="line"/>
      <point x="97" y="838"/>
      <point x="85" y="855"/>
      <point x="85" y="869" type="curve" smooth="yes"/>
      <point x="85" y="886"/>
      <point x="106" y="914"/>
      <point x="117" y="917" type="curve"/>
      <point x="396" y="917" type="line" smooth="yes"/>
      <point x="459" y="917"/>
      <point x="478" y="880"/>
      <point x="483" y="821" type="curve"/>
      <point x="516" y="839" type="line"/>
      <point x="500" y="907"/>
      <point x="467" y="943"/>
      <point x="386" y="943" type="curve" smooth="yes"/>
      <point x="115" y="943" type="line"/>
      <point x="82" y="914"/>
      <point x="59" y="888"/>
      <point x="59" y="863" type="curve" smooth="yes"/>
      <point x="59" y="848"/>
      <point x="64" y="835"/>
    </contour>
    <contour>
      <point x="459" y="226" type="line"/>
      <point x="485" y="226" type="line"/>
      <point x="485" y="438" type="line"/>
      <point x="459" y="438" type="line"/>
      <point x="459" y="396" type="line" smooth="yes"/>
      <point x="459" y="370"/>
      <point x="354" y="271"/>
      <point x="257" y="271" type="curve" smooth="yes"/>
      <point x="183" y="271"/>
      <point x="138" y="312"/>
      <point x="138" y="402" type="curve" smooth="yes"/>
      <point x="138" y="466" type="line"/>
      <point x="269" y="479" type="line" smooth="yes"/>
      <point x="410" y="493"/>
      <point x="485" y="546"/>
      <point x="485" y="651" type="curve" smooth="yes"/>
      <point x="485" y="737"/>
      <point x="419" y="790"/>
      <point x="300" y="790" type="curve" smooth="yes"/>
      <point x="173" y="790"/>
      <point x="114" y="720"/>
      <point x="114" y="641" type="curve" smooth="yes"/>
      <point x="114" y="588"/>
      <point x="140" y="555"/>
      <point x="182" y="555" type="curve" smooth="yes"/>
      <point x="186" y="555" type="line"/>
      <point x="186" y="579" type="line"/>
      <point x="163" y="579"/>
      <point x="140" y="599"/>
      <point x="140" y="638" type="curve" smooth="yes"/>
      <point x="140" y="724"/>
      <point x="208" y="764"/>
      <point x="298" y="764" type="curve" smooth="yes"/>
      <point x="417" y="764"/>
      <point x="459" y="721"/>
      <point x="459" y="650" type="curve" smooth="yes"/>
      <point x="459" y="557"/>
      <point x="390" y="516"/>
      <point x="252" y="503" type="curve" smooth="yes"/>
      <point x="112" y="490" type="line"/>
      <point x="112" y="402" type="line" smooth="yes"/>
      <point x="112" y="292"/>
      <point x="174" y="245"/>
      <point x="256" y="245" type="curve" smooth="yes"/>
      <point x="335" y="245"/>
      <point x="418" y="299"/>
      <point x="458" y="347" type="curve"/>
      <point x="459" y="347" type="line"/>
    </contour>
  </outline>
</glyph>
<glyph name="uni17B2" format="2">
  <advance width="609"/>
  <unicode hex="17B2"/>
  <note>
uni17B2
</note>
  <outline>
    <contour>
      <point x="299" y="244" type="curve" smooth="yes"/>
      <point x="438" y="244"/>
      <point x="519" y="322"/>
      <point x="519" y="419" type="curve" smooth="yes"/>
      <point x="519" y="476"/>
      <point x="479" y="540"/>
      <point x="442" y="575" type="curve"/>
      <point x="487" y="617"/>
      <point x="510" y="628"/>
      <point x="510" y="645" type="curve" smooth="yes"/>
      <point x="510" y="655"/>
      <point x="507" y="658"/>
      <point x="488" y="680" type="curve"/>
      <point x="296" y="680" type="line"/>
      <point x="296" y="654" type="line"/>
      <point x="489" y="654" type="line"/>
      <point x="304" y="489" type="line"/>
      <point x="324" y="469" type="line"/>
      <point x="424" y="559" type="line"/>
      <point x="438" y="545"/>
      <point x="492" y="486"/>
      <point x="492" y="413" type="curve" smooth="yes"/>
      <point x="492" y="320"/>
      <point x="397" y="270"/>
      <point x="299" y="270" type="curve" smooth="yes"/>
      <point x="205" y="270"/>
      <point x="136" y="307"/>
      <point x="136" y="402" type="curve" smooth="yes"/>
      <point x="136" y="672" type="line" smooth="yes"/>
      <point x="136" y="732"/>
      <point x="187" y="803"/>
      <point x="305" y="803" type="curve" smooth="yes"/>
      <point x="362" y="803"/>
      <point x="438" y="787"/>
      <point x="477" y="762" type="curve"/>
      <point x="495" y="785" type="line"/>
      <point x="449" y="812"/>
      <point x="380" y="829"/>
      <point x="311" y="829" type="curve" smooth="yes"/>
      <point x="187" y="829"/>
      <point x="110" y="762"/>
      <point x="110" y="672" type="curve" smooth="yes"/>
      <point x="110" y="402" type="line" smooth="yes"/>
      <point x="110" y="312"/>
      <point x="159" y="244"/>
    </contour>
  </outline>
</glyph>
<glyph name="uni17B3" format="2">
  <advance width="562"/>
  <unicode hex="17B3"/>
  <note>
uni17B3
</note>
  <outline>
    <contour>
      <point x="387" y="1056" type="curve"/>
      <point x="360" y="1056" type="line"/>
      <point x="352" y="1035"/>
      <point x="348" y="1015"/>
      <point x="348" y="995" type="curve" smooth="yes"/>
      <point x="348" y="956"/>
      <point x="364" y="926"/>
      <point x="385" y="903" type="curve"/>
      <point x="126" y="903" type="line"/>
      <point x="93" y="874"/>
      <point x="70" y="848"/>
      <point x="70" y="823" type="curve" smooth="yes"/>
      <point x="70" y="808"/>
      <point x="75" y="795"/>
      <point x="120" y="748" type="curve"/>
      <point x="139" y="766" type="line"/>
      <point x="108" y="798"/>
      <point x="96" y="815"/>
      <point x="96" y="829" type="curve" smooth="yes"/>
      <point x="96" y="846"/>
      <point x="117" y="874"/>
      <point x="128" y="877" type="curve"/>
      <point x="408" y="877" type="line"/>
      <point x="501" y="771" type="line"/>
      <point x="522" y="788" type="line"/>
      <point x="503" y="839"/>
      <point x="484" y="887"/>
      <point x="422" y="903" type="curve"/>
      <point x="394" y="932"/>
      <point x="374" y="953"/>
      <point x="374" y="995" type="curve" smooth="yes"/>
      <point x="374" y="1010"/>
      <point x="376" y="1032"/>
    </contour>
    <contour>
      <point x="460" y="226" type="line"/>
      <point x="486" y="226" type="line"/>
      <point x="486" y="438" type="line"/>
      <point x="460" y="438" type="line"/>
      <point x="460" y="396" type="line" smooth="yes"/>
      <point x="460" y="370"/>
      <point x="355" y="271"/>
      <point x="258" y="271" type="curve" smooth="yes"/>
      <point x="184" y="271"/>
      <point x="139" y="312"/>
      <point x="139" y="402" type="curve" smooth="yes"/>
      <point x="139" y="466" type="line"/>
      <point x="270" y="479" type="line" smooth="yes"/>
      <point x="411" y="493"/>
      <point x="486" y="546"/>
      <point x="486" y="651" type="curve" smooth="yes"/>
      <point x="486" y="737"/>
      <point x="420" y="790"/>
      <point x="301" y="790" type="curve" smooth="yes"/>
      <point x="174" y="790"/>
      <point x="115" y="720"/>
      <point x="115" y="641" type="curve" smooth="yes"/>
      <point x="115" y="588"/>
      <point x="141" y="555"/>
      <point x="183" y="555" type="curve" smooth="yes"/>
      <point x="187" y="555" type="line"/>
      <point x="187" y="579" type="line"/>
      <point x="164" y="579"/>
      <point x="141" y="599"/>
      <point x="141" y="638" type="curve" smooth="yes"/>
      <point x="141" y="724"/>
      <point x="209" y="764"/>
      <point x="299" y="764" type="curve" smooth="yes"/>
      <point x="418" y="764"/>
      <point x="460" y="721"/>
      <point x="460" y="650" type="curve" smooth="yes"/>
      <point x="460" y="557"/>
      <point x="391" y="516"/>
      <point x="253" y="503" type="curve" smooth="yes"/>
      <point x="113" y="490" type="line"/>
      <point x="113" y="402" type="line" smooth="yes"/>
      <point x="113" y="292"/>
      <point x="175" y="245"/>
      <point x="257" y="245" type="curve" smooth="yes"/>
      <point x="336" y="245"/>
      <point x="419" y="299"/>
      <point x="459" y="347" type="curve"/>
      <point x="460" y="347" type="line"/>
    </contour>
  </outline>
</glyph>
<glyph name="uni17B5" format="2">
  <advance width="237"/>
  <unicode hex="17B5"/>
  <note>
uni17B5
</note>
  <outline>
    <contour>
      <point x="101" y="244" type="line"/>
      <point x="127" y="244" type="line"/>
      <point x="127" y="688" type="line" smooth="yes"/>
      <point x="127" y="762"/>
      <point x="97" y="780"/>
      <point x="3" y="780" type="curve" smooth="yes"/>
      <point x="-138" y="780" type="line"/>
      <point x="-138" y="754" type="line"/>
      <point x="23" y="754" type="line" smooth="yes"/>
      <point x="84" y="754"/>
      <point x="101" y="729"/>
      <point x="101" y="677" type="curve" smooth="yes"/>
    </contour>
  </outline>
</glyph>
<glyph name="uni17B6" format="2">
  <advance width="237"/>
  <unicode hex="17B6"/>
  <note>
uni17B6
</note>
  <outline>
    <contour>
      <point x="101" y="244" type="line"/>
      <point x="127" y="244" type="line"/>
      <point x="127" y="688" type="line" smooth="yes"/>
      <point x="127" y="762"/>
      <point x="97" y="780"/>
      <point x="3" y="780" type="curve" smooth="yes"/>
      <point x="-138" y="780" type="line"/>
      <point x="-138" y="754" type="line"/>
      <point x="23" y="754" type="line" smooth="yes"/>
      <point x="84" y="754"/>
      <point x="101" y="729"/>
      <point x="101" y="677" type="curve" smooth="yes"/>
    </contour>
  </outline>
</glyph>
<glyph name="uni17B8" format="2">
  <unicode hex="17B8"/>
  <note>
uni17B8
</note>
  <outline>
    <contour>
      <point x="-114" y="684" type="line"/>
      <point x="-114" y="897" type="line"/>
      <point x="-140" y="897" type="line"/>
      <point x="-140" y="684" type="line"/>
    </contour>
    <contour>
      <point x="-458" y="684" type="curve" smooth="yes"/>
      <point x="-114" y="684" type="line"/>
      <point x="-114" y="718" type="line"/>
      <point x="-156" y="794"/>
      <point x="-269" y="861"/>
      <point x="-351" y="861" type="curve" smooth="yes"/>
      <point x="-457" y="861"/>
      <point x="-491" y="782"/>
      <point x="-491" y="717" type="curve" smooth="yes"/>
      <point x="-491" y="692"/>
      <point x="-482" y="684"/>
    </contour>
    <contour>
      <point x="-464" y="710" type="line"/>
      <point x="-464" y="790"/>
      <point x="-427" y="835"/>
      <point x="-351" y="835" type="curve" smooth="yes"/>
      <point x="-272" y="835"/>
      <point x="-167" y="761"/>
      <point x="-140" y="710" type="curve"/>
    </contour>
  </outline>
</glyph>
<glyph name="uni17B9" format="2">
  <unicode hex="17B9"/>
  <note>
uni17B9
</note>
  <outline>
    <contour>
      <point x="-292" y="839" type="curve"/>
      <point x="-148" y="748" type="line"/>
      <point x="-133" y="765"/>
      <point x="-116" y="803"/>
      <point x="-116" y="834" type="curve" smooth="yes"/>
      <point x="-116" y="870"/>
      <point x="-142" y="910"/>
      <point x="-191" y="910" type="curve" smooth="yes"/>
      <point x="-233" y="910"/>
      <point x="-274" y="877"/>
    </contour>
    <contour>
      <point x="-264" y="836" type="line"/>
      <point x="-250" y="863"/>
      <point x="-219" y="884"/>
      <point x="-192" y="884" type="curve" smooth="yes"/>
      <point x="-162" y="884"/>
      <point x="-142" y="862"/>
      <point x="-142" y="835" type="curve" smooth="yes"/>
      <point x="-142" y="812"/>
      <point x="-155" y="782"/>
      <point x="-164" y="773" type="curve"/>
    </contour>
    <contour>
      <point x="-458" y="684" type="curve" smooth="yes"/>
      <point x="-114" y="684" type="line"/>
      <point x="-114" y="718" type="line"/>
      <point x="-156" y="794"/>
      <point x="-269" y="861"/>
      <point x="-351" y="861" type="curve" smooth="yes"/>
      <point x="-457" y="861"/>
      <point x="-491" y="782"/>
      <point x="-491" y="717" type="curve" smooth="yes"/>
      <point x="-491" y="692"/>
      <point x="-482" y="684"/>
    </contour>
    <contour>
      <point x="-464" y="710" type="line"/>
      <point x="-464" y="790"/>
      <point x="-427" y="835"/>
      <point x="-351" y="835" type="curve" smooth="yes"/>
      <point x="-272" y="835"/>
      <point x="-167" y="761"/>
      <point x="-140" y="710" type="curve"/>
    </contour>
  </outline>
</glyph>
<glyph name="uni17BB" format="2">
  <unicode hex="17BB"/>
  <note>
uni17BB
</note>
  <outline>
    <contour>
      <point x="-296" y="-244" type="line"/>
      <point x="-270" y="-244" type="line"/>
      <point x="-270" y="-50" type="line"/>
      <point x="-363" y="-50" type="line"/>
      <point x="-363" y="-76" type="line"/>
      <point x="-296" y="-76" type="line"/>
    </contour>
  </outline>
</glyph>
<glyph name="uni17BC" format="2">
  <unicode hex="17BC"/>
  <note>
uni17BC
</note>
  <outline>
    <contour>
      <point x="-310" y="-244" type="curve" smooth="yes"/>
      <point x="-220" y="-244"/>
      <point x="-182" y="-208"/>
      <point x="-182" y="-142" type="curve" smooth="yes"/>
      <point x="-182" y="-50" type="line"/>
      <point x="-208" y="-50" type="line"/>
      <point x="-208" y="-140" type="line" smooth="yes"/>
      <point x="-208" y="-200"/>
      <point x="-246" y="-218"/>
      <point x="-310" y="-218" type="curve" smooth="yes"/>
      <point x="-374" y="-218"/>
      <point x="-412" y="-200"/>
      <point x="-412" y="-140" type="curve" smooth="yes"/>
      <point x="-412" y="-50" type="line"/>
      <point x="-438" y="-50" type="line"/>
      <point x="-438" y="-142" type="line" smooth="yes"/>
      <point x="-438" y="-208"/>
      <point x="-400" y="-244"/>
    </contour>
  </outline>
</glyph>
<glyph name="uni17BD" format="2">
  <unicode hex="17BD"/>
  <note>
uni17BD
</note>
  <outline>
    <contour>
      <point x="-454" y="-244" type="line"/>
      <point x="-419" y="-244" type="line"/>
      <point x="-310" y="-158" type="line"/>
      <point x="-196" y="-244" type="line"/>
      <point x="-166" y="-244" type="line"/>
      <point x="-166" y="-50" type="line"/>
      <point x="-192" y="-50" type="line"/>
      <point x="-192" y="-215" type="line"/>
      <point x="-310" y="-126" type="line"/>
      <point x="-428" y="-219" type="line"/>
      <point x="-428" y="-50" type="line"/>
      <point x="-454" y="-50" type="line"/>
    </contour>
  </outline>
</glyph>
<glyph name="uni17BE" format="2">
  <unicode hex="17BE"/>
  <note>
uni17BE
</note>
  <outline>
    <contour>
      <point x="729" y="843" type="line"/>
      <point x="729" y="1056" type="line"/>
      <point x="703" y="1056" type="line"/>
      <point x="703" y="843" type="line"/>
    </contour>
    <contour>
      <point x="385" y="843" type="curve" smooth="yes"/>
      <point x="729" y="843" type="line"/>
      <point x="729" y="877" type="line"/>
      <point x="687" y="953"/>
      <point x="574" y="1020"/>
      <point x="492" y="1020" type="curve" smooth="yes"/>
      <point x="386" y="1020"/>
      <point x="352" y="941"/>
      <point x="352" y="876" type="curve" smooth="yes"/>
      <point x="352" y="851"/>
      <point x="361" y="843"/>
    </contour>
    <contour>
      <point x="379" y="869" type="line"/>
      <point x="379" y="949"/>
      <point x="416" y="994"/>
      <point x="492" y="994" type="curve" smooth="yes"/>
      <point x="571" y="994"/>
      <point x="676" y="920"/>
      <point x="703" y="869" type="curve"/>
    </contour>
    <contour>
      <point x="137" y="578" type="line"/>
      <point x="111" y="578" type="line"/>
      <point x="111" y="309" type="line" smooth="yes"/>
      <point x="111" y="261"/>
      <point x="135" y="244"/>
      <point x="184" y="244" type="curve" smooth="yes"/>
      <point x="248" y="244" type="line"/>
      <point x="248" y="270" type="line"/>
      <point x="173" y="270" type="line" smooth="yes"/>
      <point x="144" y="270"/>
      <point x="137" y="286"/>
      <point x="137" y="309" type="curve" smooth="yes"/>
    </contour>
    <contour>
      <point x="111" y="570" type="line"/>
      <point x="137" y="570" type="line"/>
      <point x="137" y="592" type="line"/>
      <point x="55" y="730" type="line"/>
      <point x="63" y="754" type="line"/>
      <point x="156" y="754" type="line"/>
      <point x="156" y="780" type="line"/>
      <point x="65" y="780" type="line"/>
      <point x="50" y="763"/>
      <point x="40" y="741"/>
      <point x="40" y="724" type="curve" smooth="yes"/>
      <point x="40" y="708"/>
      <point x="54" y="680"/>
      <point x="111" y="588" type="curve"/>
    </contour>
    <contour>
      <point x="346" y="520" type="curve" smooth="yes"/>
      <point x="354" y="520"/>
      <point x="361" y="527"/>
      <point x="361" y="535" type="curve" smooth="yes"/>
      <point x="361" y="543"/>
      <point x="354" y="550"/>
      <point x="346" y="550" type="curve" smooth="yes"/>
      <point x="338" y="550"/>
      <point x="331" y="543"/>
      <point x="331" y="535" type="curve" smooth="yes"/>
      <point x="331" y="527"/>
      <point x="338" y="520"/>
    </contour>
    <contour>
      <point x="372" y="621" type="curve" smooth="yes"/>
      <point x="380" y="621"/>
      <point x="387" y="628"/>
      <point x="387" y="636" type="curve" smooth="yes"/>
      <point x="387" y="644"/>
      <point x="380" y="651"/>
      <point x="372" y="651" type="curve" smooth="yes"/>
      <point x="364" y="651"/>
      <point x="357" y="644"/>
      <point x="357" y="636" type="curve" smooth="yes"/>
      <point x="357" y="628"/>
      <point x="364" y="621"/>
    </contour>
    <contour>
      <point x="443" y="691" type="curve" smooth="yes"/>
      <point x="451" y="691"/>
      <point x="458" y="698"/>
      <point x="458" y="706" type="curve" smooth="yes"/>
      <point x="458" y="714"/>
      <point x="451" y="721"/>
      <point x="443" y="721" type="curve" smooth="yes"/>
      <point x="435" y="721"/>
      <point x="428" y="714"/>
      <point x="428" y="706" type="curve" smooth="yes"/>
      <point x="428" y="698"/>
      <point x="435" y="691"/>
    </contour>
    <contour>
      <point x="540" y="715" type="curve" smooth="yes"/>
      <point x="548" y="715"/>
      <point x="555" y="722"/>
      <point x="555" y="730" type="curve" smooth="yes"/>
      <point x="555" y="738"/>
      <point x="548" y="745"/>
      <point x="540" y="745" type="curve" smooth="yes"/>
      <point x="532" y="745"/>
      <point x="525" y="738"/>
      <point x="525" y="730" type="curve" smooth="yes"/>
      <point x="525" y="722"/>
      <point x="532" y="715"/>
    </contour>
    <contour>
      <point x="637" y="691" type="curve" smooth="yes"/>
      <point x="645" y="691"/>
      <point x="652" y="698"/>
      <point x="652" y="706" type="curve" smooth="yes"/>
      <point x="652" y="714"/>
      <point x="645" y="721"/>
      <point x="637" y="721" type="curve" smooth="yes"/>
      <point x="629" y="721"/>
      <point x="622" y="714"/>
      <point x="622" y="706" type="curve" smooth="yes"/>
      <point x="622" y="698"/>
      <point x="629" y="691"/>
    </contour>
    <contour>
      <point x="707" y="619" type="curve" smooth="yes"/>
      <point x="715" y="619"/>
      <point x="722" y="626"/>
      <point x="722" y="634" type="curve" smooth="yes"/>
      <point x="722" y="642"/>
      <point x="715" y="649"/>
      <point x="707" y="649" type="curve" smooth="yes"/>
      <point x="699" y="649"/>
      <point x="692" y="642"/>
      <point x="692" y="634" type="curve" smooth="yes"/>
      <point x="692" y="626"/>
      <point x="699" y="619"/>
    </contour>
    <contour>
      <point x="737" y="520" type="curve" smooth="yes"/>
      <point x="745" y="520"/>
      <point x="752" y="527"/>
      <point x="752" y="535" type="curve" smooth="yes"/>
      <point x="752" y="543"/>
      <point x="745" y="550"/>
      <point x="737" y="550" type="curve" smooth="yes"/>
      <point x="729" y="550"/>
      <point x="722" y="543"/>
      <point x="722" y="535" type="curve" smooth="yes"/>
      <point x="722" y="527"/>
      <point x="729" y="520"/>
    </contour>
    <contour>
      <point x="709" y="426" type="curve" smooth="yes"/>
      <point x="717" y="426"/>
      <point x="724" y="433"/>
      <point x="724" y="441" type="curve" smooth="yes"/>
      <point x="724" y="449"/>
      <point x="717" y="456"/>
      <point x="709" y="456" type="curve" smooth="yes"/>
      <point x="701" y="456"/>
      <point x="694" y="449"/>
      <point x="694" y="441" type="curve" smooth="yes"/>
      <point x="694" y="433"/>
      <point x="701" y="426"/>
    </contour>
    <contour>
      <point x="638" y="354" type="curve" smooth="yes"/>
      <point x="646" y="354"/>
      <point x="653" y="361"/>
      <point x="653" y="369" type="curve" smooth="yes"/>
      <point x="653" y="377"/>
      <point x="646" y="384"/>
      <point x="638" y="384" type="curve" smooth="yes"/>
      <point x="630" y="384"/>
      <point x="623" y="377"/>
      <point x="623" y="369" type="curve" smooth="yes"/>
      <point x="623" y="361"/>
      <point x="630" y="354"/>
    </contour>
    <contour>
      <point x="540" y="326" type="curve" smooth="yes"/>
      <point x="548" y="326"/>
      <point x="555" y="333"/>
      <point x="555" y="341" type="curve" smooth="yes"/>
      <point x="555" y="349"/>
      <point x="548" y="356"/>
      <point x="540" y="356" type="curve" smooth="yes"/>
      <point x="532" y="356"/>
      <point x="525" y="349"/>
      <point x="525" y="341" type="curve" smooth="yes"/>
      <point x="525" y="333"/>
      <point x="532" y="326"/>
    </contour>
    <contour>
      <point x="443" y="353" type="curve" smooth="yes"/>
      <point x="451" y="353"/>
      <point x="458" y="360"/>
      <point x="458" y="368" type="curve" smooth="yes"/>
      <point x="458" y="376"/>
      <point x="451" y="383"/>
      <point x="443" y="383" type="curve" smooth="yes"/>
      <point x="435" y="383"/>
      <point x="428" y="376"/>
      <point x="428" y="368" type="curve" smooth="yes"/>
      <point x="428" y="360"/>
      <point x="435" y="353"/>
    </contour>
    <contour>
      <point x="370" y="425" type="curve" smooth="yes"/>
      <point x="378" y="425"/>
      <point x="385" y="432"/>
      <point x="385" y="440" type="curve" smooth="yes"/>
      <point x="385" y="448"/>
      <point x="378" y="455"/>
      <point x="370" y="455" type="curve" smooth="yes"/>
      <point x="362" y="455"/>
      <point x="355" y="448"/>
      <point x="355" y="440" type="curve" smooth="yes"/>
      <point x="355" y="432"/>
      <point x="362" y="425"/>
    </contour>
  </outline>
</glyph>
<glyph name="uni17BF" format="2">
  <advance width="1125"/>
  <unicode hex="17BF"/>
  <note>
uni17BF
</note>
  <outline>
    <contour>
      <point x="137" y="578" type="line"/>
      <point x="111" y="578" type="line"/>
      <point x="111" y="309" type="line" smooth="yes"/>
      <point x="111" y="261"/>
      <point x="135" y="244"/>
      <point x="184" y="244" type="curve" smooth="yes"/>
      <point x="248" y="244" type="line"/>
      <point x="248" y="270" type="line"/>
      <point x="173" y="270" type="line" smooth="yes"/>
      <point x="144" y="270"/>
      <point x="137" y="286"/>
      <point x="137" y="309" type="curve" smooth="yes"/>
    </contour>
    <contour>
      <point x="111" y="570" type="line"/>
      <point x="137" y="570" type="line"/>
      <point x="137" y="592" type="line"/>
      <point x="55" y="730" type="line"/>
      <point x="63" y="754" type="line"/>
      <point x="156" y="754" type="line"/>
      <point x="156" y="780" type="line"/>
      <point x="65" y="780" type="line"/>
      <point x="50" y="763"/>
      <point x="40" y="741"/>
      <point x="40" y="724" type="curve" smooth="yes"/>
      <point x="40" y="708"/>
      <point x="54" y="680"/>
      <point x="111" y="588" type="curve"/>
    </contour>
    <contour>
      <point x="364" y="520" type="curve" smooth="yes"/>
      <point x="372" y="520"/>
      <point x="379" y="527"/>
      <point x="379" y="535" type="curve" smooth="yes"/>
      <point x="379" y="543"/>
      <point x="372" y="550"/>
      <point x="364" y="550" type="curve" smooth="yes"/>
      <point x="356" y="550"/>
      <point x="349" y="543"/>
      <point x="349" y="535" type="curve" smooth="yes"/>
      <point x="349" y="527"/>
      <point x="356" y="520"/>
    </contour>
    <contour>
      <point x="390" y="621" type="curve" smooth="yes"/>
      <point x="398" y="621"/>
      <point x="405" y="628"/>
      <point x="405" y="636" type="curve" smooth="yes"/>
      <point x="405" y="644"/>
      <point x="398" y="651"/>
      <point x="390" y="651" type="curve" smooth="yes"/>
      <point x="382" y="651"/>
      <point x="375" y="644"/>
      <point x="375" y="636" type="curve" smooth="yes"/>
      <point x="375" y="628"/>
      <point x="382" y="621"/>
    </contour>
    <contour>
      <point x="461" y="691" type="curve" smooth="yes"/>
      <point x="469" y="691"/>
      <point x="476" y="698"/>
      <point x="476" y="706" type="curve" smooth="yes"/>
      <point x="476" y="714"/>
      <point x="469" y="721"/>
      <point x="461" y="721" type="curve" smooth="yes"/>
      <point x="453" y="721"/>
      <point x="446" y="714"/>
      <point x="446" y="706" type="curve" smooth="yes"/>
      <point x="446" y="698"/>
      <point x="453" y="691"/>
    </contour>
    <contour>
      <point x="558" y="715" type="curve" smooth="yes"/>
      <point x="566" y="715"/>
      <point x="573" y="722"/>
      <point x="573" y="730" type="curve" smooth="yes"/>
      <point x="573" y="738"/>
      <point x="566" y="745"/>
      <point x="558" y="745" type="curve" smooth="yes"/>
      <point x="550" y="745"/>
      <point x="543" y="738"/>
      <point x="543" y="730" type="curve" smooth="yes"/>
      <point x="543" y="722"/>
      <point x="550" y="715"/>
    </contour>
    <contour>
      <point x="655" y="691" type="curve" smooth="yes"/>
      <point x="663" y="691"/>
      <point x="670" y="698"/>
      <point x="670" y="706" type="curve" smooth="yes"/>
      <point x="670" y="714"/>
      <point x="663" y="721"/>
      <point x="655" y="721" type="curve" smooth="yes"/>
      <point x="647" y="721"/>
      <point x="640" y="714"/>
      <point x="640" y="706" type="curve" smooth="yes"/>
      <point x="640" y="698"/>
      <point x="647" y="691"/>
    </contour>
    <contour>
      <point x="725" y="619" type="curve" smooth="yes"/>
      <point x="733" y="619"/>
      <point x="740" y="626"/>
      <point x="740" y="634" type="curve" smooth="yes"/>
      <point x="740" y="642"/>
      <point x="733" y="649"/>
      <point x="725" y="649" type="curve" smooth="yes"/>
      <point x="717" y="649"/>
      <point x="710" y="642"/>
      <point x="710" y="634" type="curve" smooth="yes"/>
      <point x="710" y="626"/>
      <point x="717" y="619"/>
    </contour>
    <contour>
      <point x="755" y="520" type="curve" smooth="yes"/>
      <point x="763" y="520"/>
      <point x="770" y="527"/>
      <point x="770" y="535" type="curve" smooth="yes"/>
      <point x="770" y="543"/>
      <point x="763" y="550"/>
      <point x="755" y="550" type="curve" smooth="yes"/>
      <point x="747" y="550"/>
      <point x="740" y="543"/>
      <point x="740" y="535" type="curve" smooth="yes"/>
      <point x="740" y="527"/>
      <point x="747" y="520"/>
    </contour>
    <contour>
      <point x="727" y="426" type="curve" smooth="yes"/>
      <point x="735" y="426"/>
      <point x="742" y="433"/>
      <point x="742" y="441" type="curve" smooth="yes"/>
      <point x="742" y="449"/>
      <point x="735" y="456"/>
      <point x="727" y="456" type="curve" smooth="yes"/>
      <point x="719" y="456"/>
      <point x="712" y="449"/>
      <point x="712" y="441" type="curve" smooth="yes"/>
      <point x="712" y="433"/>
      <point x="719" y="426"/>
    </contour>
    <contour>
      <point x="656" y="354" type="curve" smooth="yes"/>
      <point x="664" y="354"/>
      <point x="671" y="361"/>
      <point x="671" y="369" type="curve" smooth="yes"/>
      <point x="671" y="377"/>
      <point x="664" y="384"/>
      <point x="656" y="384" type="curve" smooth="yes"/>
      <point x="648" y="384"/>
      <point x="641" y="377"/>
      <point x="641" y="369" type="curve" smooth="yes"/>
      <point x="641" y="361"/>
      <point x="648" y="354"/>
    </contour>
    <contour>
      <point x="558" y="326" type="curve" smooth="yes"/>
      <point x="566" y="326"/>
      <point x="573" y="333"/>
      <point x="573" y="341" type="curve" smooth="yes"/>
      <point x="573" y="349"/>
      <point x="566" y="356"/>
      <point x="558" y="356" type="curve" smooth="yes"/>
      <point x="550" y="356"/>
      <point x="543" y="349"/>
      <point x="543" y="341" type="curve" smooth="yes"/>
      <point x="543" y="333"/>
      <point x="550" y="326"/>
    </contour>
    <contour>
      <point x="461" y="353" type="curve" smooth="yes"/>
      <point x="469" y="353"/>
      <point x="476" y="360"/>
      <point x="476" y="368" type="curve" smooth="yes"/>
      <point x="476" y="376"/>
      <point x="469" y="383"/>
      <point x="461" y="383" type="curve" smooth="yes"/>
      <point x="453" y="383"/>
      <point x="446" y="376"/>
      <point x="446" y="368" type="curve" smooth="yes"/>
      <point x="446" y="360"/>
      <point x="453" y="353"/>
    </contour>
    <contour>
      <point x="388" y="425" type="curve" smooth="yes"/>
      <point x="396" y="425"/>
      <point x="403" y="432"/>
      <point x="403" y="440" type="curve" smooth="yes"/>
      <point x="403" y="448"/>
      <point x="396" y="455"/>
      <point x="388" y="455" type="curve" smooth="yes"/>
      <point x="380" y="455"/>
      <point x="373" y="448"/>
      <point x="373" y="440" type="curve" smooth="yes"/>
      <point x="373" y="432"/>
      <point x="380" y="425"/>
    </contour>
    <contour>
      <point x="1015" y="680" type="line"/>
      <point x="989" y="680" type="line"/>
      <point x="989" y="117" type="line" smooth="yes"/>
      <point x="989" y="72"/>
      <point x="946" y="26"/>
      <point x="859" y="26" type="curve" smooth="yes"/>
      <point x="772" y="26"/>
      <point x="728" y="72"/>
      <point x="728" y="117" type="curve" smooth="yes"/>
      <point x="728" y="169" type="line"/>
      <point x="753" y="169" type="line"/>
      <point x="753" y="195" type="line"/>
      <point x="703" y="195" type="line"/>
      <point x="703" y="117" type="line" smooth="yes"/>
      <point x="703" y="39"/>
      <point x="755" y="0"/>
      <point x="859" y="0" type="curve" smooth="yes"/>
      <point x="963" y="0"/>
      <point x="1015" y="39"/>
      <point x="1015" y="117" type="curve" smooth="yes"/>
    </contour>
    <contour>
      <point x="989" y="676" type="line"/>
      <point x="1015" y="676" type="line"/>
      <point x="1015" y="687" type="line" smooth="yes"/>
      <point x="1015" y="784"/>
      <point x="974" y="850"/>
      <point x="885" y="929" type="curve" smooth="yes"/>
      <point x="804" y="1001"/>
      <point x="771" y="1016"/>
      <point x="713" y="1016" type="curve" smooth="yes"/>
      <point x="639" y="1016"/>
      <point x="601" y="961"/>
      <point x="601" y="902" type="curve" smooth="yes"/>
      <point x="601" y="868"/>
      <point x="605" y="859"/>
      <point x="633" y="859" type="curve" smooth="yes"/>
      <point x="911" y="859" type="line" smooth="yes"/>
      <point x="930" y="859"/>
      <point x="989" y="786"/>
      <point x="989" y="687" type="curve" smooth="yes"/>
    </contour>
    <contour>
      <point x="627" y="885" type="line"/>
      <point x="627" y="952"/>
      <point x="653" y="990"/>
      <point x="716" y="990" type="curve" smooth="yes"/>
      <point x="783" y="990"/>
      <point x="849" y="931"/>
      <point x="893" y="885" type="curve"/>
    </contour>
    <contour>
      <point x="859" y="945" type="line"/>
      <point x="859" y="1056" type="line"/>
      <point x="833" y="1056" type="line"/>
      <point x="833" y="966" type="line"/>
    </contour>
    <contour>
      <point x="951" y="855" type="line"/>
      <point x="951" y="1041" type="line"/>
      <point x="925" y="1041" type="line"/>
      <point x="925" y="888" type="line"/>
    </contour>
  </outline>
</glyph>
<glyph name="uni17C0" format="2">
  <advance width="1127"/>
  <unicode hex="17C0"/>
  <note>
uni17C0
</note>
  <outline>
    <contour>
      <point x="137" y="578" type="line"/>
      <point x="111" y="578" type="line"/>
      <point x="111" y="309" type="line" smooth="yes"/>
      <point x="111" y="261"/>
      <point x="135" y="244"/>
      <point x="184" y="244" type="curve" smooth="yes"/>
      <point x="248" y="244" type="line"/>
      <point x="248" y="270" type="line"/>
      <point x="173" y="270" type="line" smooth="yes"/>
      <point x="144" y="270"/>
      <point x="137" y="286"/>
      <point x="137" y="309" type="curve" smooth="yes"/>
    </contour>
    <contour>
      <point x="111" y="570" type="line"/>
      <point x="137" y="570" type="line"/>
      <point x="137" y="592" type="line"/>
      <point x="55" y="730" type="line"/>
      <point x="63" y="754" type="line"/>
      <point x="156" y="754" type="line"/>
      <point x="156" y="780" type="line"/>
      <point x="65" y="780" type="line"/>
      <point x="50" y="763"/>
      <point x="40" y="741"/>
      <point x="40" y="724" type="curve" smooth="yes"/>
      <point x="40" y="708"/>
      <point x="54" y="680"/>
      <point x="111" y="588" type="curve"/>
    </contour>
    <contour>
      <point x="365" y="520" type="curve" smooth="yes"/>
      <point x="373" y="520"/>
      <point x="380" y="527"/>
      <point x="380" y="535" type="curve" smooth="yes"/>
      <point x="380" y="543"/>
      <point x="373" y="550"/>
      <point x="365" y="550" type="curve" smooth="yes"/>
      <point x="357" y="550"/>
      <point x="350" y="543"/>
      <point x="350" y="535" type="curve" smooth="yes"/>
      <point x="350" y="527"/>
      <point x="357" y="520"/>
    </contour>
    <contour>
      <point x="391" y="621" type="curve" smooth="yes"/>
      <point x="399" y="621"/>
      <point x="406" y="628"/>
      <point x="406" y="636" type="curve" smooth="yes"/>
      <point x="406" y="644"/>
      <point x="399" y="651"/>
      <point x="391" y="651" type="curve" smooth="yes"/>
      <point x="383" y="651"/>
      <point x="376" y="644"/>
      <point x="376" y="636" type="curve" smooth="yes"/>
      <point x="376" y="628"/>
      <point x="383" y="621"/>
    </contour>
    <contour>
      <point x="462" y="691" type="curve" smooth="yes"/>
      <point x="470" y="691"/>
      <point x="477" y="698"/>
      <point x="477" y="706" type="curve" smooth="yes"/>
      <point x="477" y="714"/>
      <point x="470" y="721"/>
      <point x="462" y="721" type="curve" smooth="yes"/>
      <point x="454" y="721"/>
      <point x="447" y="714"/>
      <point x="447" y="706" type="curve" smooth="yes"/>
      <point x="447" y="698"/>
      <point x="454" y="691"/>
    </contour>
    <contour>
      <point x="559" y="715" type="curve" smooth="yes"/>
      <point x="567" y="715"/>
      <point x="574" y="722"/>
      <point x="574" y="730" type="curve" smooth="yes"/>
      <point x="574" y="738"/>
      <point x="567" y="745"/>
      <point x="559" y="745" type="curve" smooth="yes"/>
      <point x="551" y="745"/>
      <point x="544" y="738"/>
      <point x="544" y="730" type="curve" smooth="yes"/>
      <point x="544" y="722"/>
      <point x="551" y="715"/>
    </contour>
    <contour>
      <point x="656" y="691" type="curve" smooth="yes"/>
      <point x="664" y="691"/>
      <point x="671" y="698"/>
      <point x="671" y="706" type="curve" smooth="yes"/>
      <point x="671" y="714"/>
      <point x="664" y="721"/>
      <point x="656" y="721" type="curve" smooth="yes"/>
      <point x="648" y="721"/>
      <point x="641" y="714"/>
      <point x="641" y="706" type="curve" smooth="yes"/>
      <point x="641" y="698"/>
      <point x="648" y="691"/>
    </contour>
    <contour>
      <point x="726" y="619" type="curve" smooth="yes"/>
      <point x="734" y="619"/>
      <point x="741" y="626"/>
      <point x="741" y="634" type="curve" smooth="yes"/>
      <point x="741" y="642"/>
      <point x="734" y="649"/>
      <point x="726" y="649" type="curve" smooth="yes"/>
      <point x="718" y="649"/>
      <point x="711" y="642"/>
      <point x="711" y="634" type="curve" smooth="yes"/>
      <point x="711" y="626"/>
      <point x="718" y="619"/>
    </contour>
    <contour>
      <point x="756" y="520" type="curve" smooth="yes"/>
      <point x="764" y="520"/>
      <point x="771" y="527"/>
      <point x="771" y="535" type="curve" smooth="yes"/>
      <point x="771" y="543"/>
      <point x="764" y="550"/>
      <point x="756" y="550" type="curve" smooth="yes"/>
      <point x="748" y="550"/>
      <point x="741" y="543"/>
      <point x="741" y="535" type="curve" smooth="yes"/>
      <point x="741" y="527"/>
      <point x="748" y="520"/>
    </contour>
    <contour>
      <point x="728" y="426" type="curve" smooth="yes"/>
      <point x="736" y="426"/>
      <point x="743" y="433"/>
      <point x="743" y="441" type="curve" smooth="yes"/>
      <point x="743" y="449"/>
      <point x="736" y="456"/>
      <point x="728" y="456" type="curve" smooth="yes"/>
      <point x="720" y="456"/>
      <point x="713" y="449"/>
      <point x="713" y="441" type="curve" smooth="yes"/>
      <point x="713" y="433"/>
      <point x="720" y="426"/>
    </contour>
    <contour>
      <point x="657" y="354" type="curve" smooth="yes"/>
      <point x="665" y="354"/>
      <point x="672" y="361"/>
      <point x="672" y="369" type="curve" smooth="yes"/>
      <point x="672" y="377"/>
      <point x="665" y="384"/>
      <point x="657" y="384" type="curve" smooth="yes"/>
      <point x="649" y="384"/>
      <point x="642" y="377"/>
      <point x="642" y="369" type="curve" smooth="yes"/>
      <point x="642" y="361"/>
      <point x="649" y="354"/>
    </contour>
    <contour>
      <point x="559" y="326" type="curve" smooth="yes"/>
      <point x="567" y="326"/>
      <point x="574" y="333"/>
      <point x="574" y="341" type="curve" smooth="yes"/>
      <point x="574" y="349"/>
      <point x="567" y="356"/>
      <point x="559" y="356" type="curve" smooth="yes"/>
      <point x="551" y="356"/>
      <point x="544" y="349"/>
      <point x="544" y="341" type="curve" smooth="yes"/>
      <point x="544" y="333"/>
      <point x="551" y="326"/>
    </contour>
    <contour>
      <point x="462" y="353" type="curve" smooth="yes"/>
      <point x="470" y="353"/>
      <point x="477" y="360"/>
      <point x="477" y="368" type="curve" smooth="yes"/>
      <point x="477" y="376"/>
      <point x="470" y="383"/>
      <point x="462" y="383" type="curve" smooth="yes"/>
      <point x="454" y="383"/>
      <point x="447" y="376"/>
      <point x="447" y="368" type="curve" smooth="yes"/>
      <point x="447" y="360"/>
      <point x="454" y="353"/>
    </contour>
    <contour>
      <point x="389" y="425" type="curve" smooth="yes"/>
      <point x="397" y="425"/>
      <point x="404" y="432"/>
      <point x="404" y="440" type="curve" smooth="yes"/>
      <point x="404" y="448"/>
      <point x="397" y="455"/>
      <point x="389" y="455" type="curve" smooth="yes"/>
      <point x="381" y="455"/>
      <point x="374" y="448"/>
      <point x="374" y="440" type="curve" smooth="yes"/>
      <point x="374" y="432"/>
      <point x="381" y="425"/>
    </contour>
    <contour>
      <point x="1017" y="746" type="line"/>
      <point x="991" y="746" type="line"/>
      <point x="991" y="117" type="line" smooth="yes"/>
      <point x="991" y="72"/>
      <point x="954" y="26"/>
      <point x="861" y="26" type="curve" smooth="yes"/>
      <point x="768" y="26"/>
      <point x="731" y="72"/>
      <point x="731" y="117" type="curve" smooth="yes"/>
      <point x="731" y="169" type="line"/>
      <point x="755" y="169" type="line"/>
      <point x="755" y="195" type="line"/>
      <point x="705" y="195" type="line"/>
      <point x="705" y="117" type="line" smooth="yes"/>
      <point x="705" y="39"/>
      <point x="777" y="0"/>
      <point x="861" y="0" type="curve" smooth="yes"/>
      <point x="945" y="0"/>
      <point x="1017" y="39"/>
      <point x="1017" y="117" type="curve" smooth="yes"/>
    </contour>
    <contour>
      <point x="991" y="730" type="line"/>
      <point x="1017" y="730" type="line"/>
      <point x="1017" y="804" type="line" smooth="yes"/>
      <point x="1017" y="927"/>
      <point x="951" y="980"/>
      <point x="860" y="980" type="curve" smooth="yes"/>
      <point x="797" y="980"/>
      <point x="756" y="958"/>
      <point x="730" y="928" type="curve"/>
      <point x="730" y="1056" type="line"/>
      <point x="704" y="1056" type="line"/>
      <point x="704" y="886" type="line"/>
      <point x="730" y="886" type="line"/>
      <point x="754" y="924"/>
      <point x="791" y="954"/>
      <point x="861" y="954" type="curve" smooth="yes"/>
      <point x="948" y="954"/>
      <point x="991" y="901"/>
      <point x="991" y="804" type="curve" smooth="yes"/>
    </contour>
  </outline>
</glyph>
<glyph name="uni17C1" format="2">
  <advance width="248"/>
  <unicode hex="17C1"/>
  <note>
uni17C1
</note>
  <outline>
    <contour>
      <point x="137" y="578" type="line"/>
      <point x="111" y="578" type="line"/>
      <point x="111" y="309" type="line" smooth="yes"/>
      <point x="111" y="261"/>
      <point x="135" y="244"/>
      <point x="184" y="244" type="curve" smooth="yes"/>
      <point x="248" y="244" type="line"/>
      <point x="248" y="270" type="line"/>
      <point x="173" y="270" type="line" smooth="yes"/>
      <point x="144" y="270"/>
      <point x="137" y="286"/>
      <point x="137" y="309" type="curve" smooth="yes"/>
    </contour>
    <contour>
      <point x="111" y="570" type="line"/>
      <point x="137" y="570" type="line"/>
      <point x="137" y="592" type="line"/>
      <point x="55" y="730" type="line"/>
      <point x="63" y="754" type="line"/>
      <point x="156" y="754" type="line"/>
      <point x="156" y="780" type="line"/>
      <point x="65" y="780" type="line"/>
      <point x="50" y="763"/>
      <point x="40" y="741"/>
      <point x="40" y="724" type="curve" smooth="yes"/>
      <point x="40" y="708"/>
      <point x="54" y="680"/>
      <point x="111" y="588" type="curve"/>
    </contour>
  </outline>
</glyph>
<glyph name="uni17C2" format="2">
  <advance width="248"/>
  <unicode hex="17C2"/>
  <note>
uni17C2
</note>
  <outline>
    <contour>
      <point x="107" y="829" type="curve" smooth="yes"/>
      <point x="202" y="829"/>
      <point x="264" y="914"/>
      <point x="264" y="1048" type="curve"/>
      <point x="238" y="1048" type="line"/>
      <point x="238" y="948"/>
      <point x="197" y="855"/>
      <point x="107" y="855" type="curve" smooth="yes"/>
      <point x="56" y="855"/>
      <point x="26" y="882"/>
      <point x="26" y="918" type="curve" smooth="yes"/>
      <point x="26" y="962"/>
      <point x="62" y="983"/>
      <point x="111" y="983" type="curve"/>
      <point x="111" y="1009" type="line"/>
      <point x="50" y="1009"/>
      <point x="0" y="979"/>
      <point x="0" y="918" type="curve" smooth="yes"/>
      <point x="0" y="859"/>
      <point x="51" y="829"/>
    </contour>
    <contour>
      <point x="137" y="578" type="line"/>
      <point x="111" y="578" type="line"/>
      <point x="111" y="309" type="line" smooth="yes"/>
      <point x="111" y="261"/>
      <point x="135" y="244"/>
      <point x="184" y="244" type="curve" smooth="yes"/>
      <point x="248" y="244" type="line"/>
      <point x="248" y="270" type="line"/>
      <point x="173" y="270" type="line" smooth="yes"/>
      <point x="144" y="270"/>
      <point x="137" y="286"/>
      <point x="137" y="309" type="curve" smooth="yes"/>
    </contour>
    <contour>
      <point x="111" y="570" type="line"/>
      <point x="137" y="570" type="line"/>
      <point x="137" y="592" type="line"/>
      <point x="55" y="730" type="line"/>
      <point x="63" y="754" type="line"/>
      <point x="156" y="754" type="line"/>
      <point x="156" y="780" type="line"/>
      <point x="65" y="780" type="line"/>
      <point x="50" y="763"/>
      <point x="40" y="741"/>
      <point x="40" y="724" type="curve" smooth="yes"/>
      <point x="40" y="708"/>
      <point x="54" y="680"/>
      <point x="111" y="588" type="curve"/>
    </contour>
  </outline>
</glyph>
<glyph name="uni17C3" format="2">
  <advance width="248"/>
  <unicode hex="17C3"/>
  <note>
uni17C3
</note>
  <outline>
    <contour>
      <point x="43" y="809" type="line"/>
      <point x="115" y="809" type="line" smooth="yes"/>
      <point x="189" y="809"/>
      <point x="231" y="849"/>
      <point x="231" y="910" type="curve" smooth="yes"/>
      <point x="231" y="976"/>
      <point x="186" y="1004"/>
      <point x="139" y="1004" type="curve" smooth="yes"/>
      <point x="105" y="1004"/>
      <point x="81" y="989"/>
      <point x="69" y="971" type="curve"/>
      <point x="69" y="1035" type="line" smooth="yes"/>
      <point x="69" y="1052"/>
      <point x="59" y="1056"/>
      <point x="41" y="1056" type="curve" smooth="yes"/>
      <point x="19" y="1056" type="line"/>
      <point x="19" y="1031" type="line"/>
      <point x="38" y="1031"/>
      <point x="43" y="1027"/>
      <point x="43" y="1011" type="curve" smooth="yes"/>
      <point x="43" y="921" type="line"/>
      <point x="69" y="921" type="line"/>
      <point x="73" y="945"/>
      <point x="90" y="977"/>
      <point x="136" y="977" type="curve" smooth="yes"/>
      <point x="175" y="977"/>
      <point x="205" y="953"/>
      <point x="205" y="910" type="curve" smooth="yes"/>
      <point x="205" y="870"/>
      <point x="179" y="835"/>
      <point x="115" y="835" type="curve" smooth="yes"/>
      <point x="43" y="835" type="line"/>
    </contour>
    <contour>
      <point x="137" y="578" type="line"/>
      <point x="111" y="578" type="line"/>
      <point x="111" y="309" type="line" smooth="yes"/>
      <point x="111" y="261"/>
      <point x="135" y="244"/>
      <point x="184" y="244" type="curve" smooth="yes"/>
      <point x="248" y="244" type="line"/>
      <point x="248" y="270" type="line"/>
      <point x="173" y="270" type="line" smooth="yes"/>
      <point x="144" y="270"/>
      <point x="137" y="286"/>
      <point x="137" y="309" type="curve" smooth="yes"/>
    </contour>
    <contour>
      <point x="111" y="570" type="line"/>
      <point x="137" y="570" type="line"/>
      <point x="137" y="592" type="line"/>
      <point x="55" y="730" type="line"/>
      <point x="63" y="754" type="line"/>
      <point x="156" y="754" type="line"/>
      <point x="156" y="780" type="line"/>
      <point x="65" y="780" type="line"/>
      <point x="50" y="763"/>
      <point x="40" y="741"/>
      <point x="40" y="724" type="curve" smooth="yes"/>
      <point x="40" y="708"/>
      <point x="54" y="680"/>
      <point x="111" y="588" type="curve"/>
    </contour>
  </outline>
</glyph>
<glyph name="uni17C4" format="2">
  <advance width="1028"/>
  <unicode hex="17C4"/>
  <note>
uni17C4
</note>
  <outline>
    <contour>
      <point x="892" y="244" type="line"/>
      <point x="918" y="244" type="line"/>
      <point x="918" y="688" type="line" smooth="yes"/>
      <point x="918" y="762"/>
      <point x="888" y="780"/>
      <point x="794" y="780" type="curve" smooth="yes"/>
      <point x="653" y="780" type="line"/>
      <point x="653" y="754" type="line"/>
      <point x="814" y="754" type="line" smooth="yes"/>
      <point x="875" y="754"/>
      <point x="892" y="729"/>
      <point x="892" y="677" type="curve" smooth="yes"/>
    </contour>
    <contour>
      <point x="137" y="578" type="line"/>
      <point x="111" y="578" type="line"/>
      <point x="111" y="309" type="line" smooth="yes"/>
      <point x="111" y="261"/>
      <point x="135" y="244"/>
      <point x="184" y="244" type="curve" smooth="yes"/>
      <point x="248" y="244" type="line"/>
      <point x="248" y="270" type="line"/>
      <point x="173" y="270" type="line" smooth="yes"/>
      <point x="144" y="270"/>
      <point x="137" y="286"/>
      <point x="137" y="309" type="curve" smooth="yes"/>
    </contour>
    <contour>
      <point x="111" y="570" type="line"/>
      <point x="137" y="570" type="line"/>
      <point x="137" y="592" type="line"/>
      <point x="55" y="730" type="line"/>
      <point x="63" y="754" type="line"/>
      <point x="156" y="754" type="line"/>
      <point x="156" y="780" type="line"/>
      <point x="65" y="780" type="line"/>
      <point x="50" y="763"/>
      <point x="40" y="741"/>
      <point x="40" y="724" type="curve" smooth="yes"/>
      <point x="40" y="708"/>
      <point x="54" y="680"/>
      <point x="111" y="588" type="curve"/>
    </contour>
    <contour>
      <point x="312" y="500" type="curve" smooth="yes"/>
      <point x="320" y="500"/>
      <point x="327" y="507"/>
      <point x="327" y="515" type="curve" smooth="yes"/>
      <point x="327" y="523"/>
      <point x="320" y="530"/>
      <point x="312" y="530" type="curve" smooth="yes"/>
      <point x="304" y="530"/>
      <point x="297" y="523"/>
      <point x="297" y="515" type="curve" smooth="yes"/>
      <point x="297" y="507"/>
      <point x="304" y="500"/>
    </contour>
    <contour>
      <point x="338" y="601" type="curve" smooth="yes"/>
      <point x="346" y="601"/>
      <point x="353" y="608"/>
      <point x="353" y="616" type="curve" smooth="yes"/>
      <point x="353" y="624"/>
      <point x="346" y="631"/>
      <point x="338" y="631" type="curve" smooth="yes"/>
      <point x="330" y="631"/>
      <point x="323" y="624"/>
      <point x="323" y="616" type="curve" smooth="yes"/>
      <point x="323" y="608"/>
      <point x="330" y="601"/>
    </contour>
    <contour>
      <point x="409" y="671" type="curve" smooth="yes"/>
      <point x="417" y="671"/>
      <point x="424" y="678"/>
      <point x="424" y="686" type="curve" smooth="yes"/>
      <point x="424" y="694"/>
      <point x="417" y="701"/>
      <point x="409" y="701" type="curve" smooth="yes"/>
      <point x="401" y="701"/>
      <point x="394" y="694"/>
      <point x="394" y="686" type="curve" smooth="yes"/>
      <point x="394" y="678"/>
      <point x="401" y="671"/>
    </contour>
    <contour>
      <point x="506" y="695" type="curve" smooth="yes"/>
      <point x="514" y="695"/>
      <point x="521" y="702"/>
      <point x="521" y="710" type="curve" smooth="yes"/>
      <point x="521" y="718"/>
      <point x="514" y="725"/>
      <point x="506" y="725" type="curve" smooth="yes"/>
      <point x="498" y="725"/>
      <point x="491" y="718"/>
      <point x="491" y="710" type="curve" smooth="yes"/>
      <point x="491" y="702"/>
      <point x="498" y="695"/>
    </contour>
    <contour>
      <point x="603" y="671" type="curve" smooth="yes"/>
      <point x="611" y="671"/>
      <point x="618" y="678"/>
      <point x="618" y="686" type="curve" smooth="yes"/>
      <point x="618" y="694"/>
      <point x="611" y="701"/>
      <point x="603" y="701" type="curve" smooth="yes"/>
      <point x="595" y="701"/>
      <point x="588" y="694"/>
      <point x="588" y="686" type="curve" smooth="yes"/>
      <point x="588" y="678"/>
      <point x="595" y="671"/>
    </contour>
    <contour>
      <point x="673" y="599" type="curve" smooth="yes"/>
      <point x="681" y="599"/>
      <point x="688" y="606"/>
      <point x="688" y="614" type="curve" smooth="yes"/>
      <point x="688" y="622"/>
      <point x="681" y="629"/>
      <point x="673" y="629" type="curve" smooth="yes"/>
      <point x="665" y="629"/>
      <point x="658" y="622"/>
      <point x="658" y="614" type="curve" smooth="yes"/>
      <point x="658" y="606"/>
      <point x="665" y="599"/>
    </contour>
    <contour>
      <point x="703" y="500" type="curve" smooth="yes"/>
      <point x="711" y="500"/>
      <point x="718" y="507"/>
      <point x="718" y="515" type="curve" smooth="yes"/>
      <point x="718" y="523"/>
      <point x="711" y="530"/>
      <point x="703" y="530" type="curve" smooth="yes"/>
      <point x="695" y="530"/>
      <point x="688" y="523"/>
      <point x="688" y="515" type="curve" smooth="yes"/>
      <point x="688" y="507"/>
      <point x="695" y="500"/>
    </contour>
    <contour>
      <point x="675" y="406" type="curve" smooth="yes"/>
      <point x="683" y="406"/>
      <point x="690" y="413"/>
      <point x="690" y="421" type="curve" smooth="yes"/>
      <point x="690" y="429"/>
      <point x="683" y="436"/>
      <point x="675" y="436" type="curve" smooth="yes"/>
      <point x="667" y="436"/>
      <point x="660" y="429"/>
      <point x="660" y="421" type="curve" smooth="yes"/>
      <point x="660" y="413"/>
      <point x="667" y="406"/>
    </contour>
    <contour>
      <point x="604" y="334" type="curve" smooth="yes"/>
      <point x="612" y="334"/>
      <point x="619" y="341"/>
      <point x="619" y="349" type="curve" smooth="yes"/>
      <point x="619" y="357"/>
      <point x="612" y="364"/>
      <point x="604" y="364" type="curve" smooth="yes"/>
      <point x="596" y="364"/>
      <point x="589" y="357"/>
      <point x="589" y="349" type="curve" smooth="yes"/>
      <point x="589" y="341"/>
      <point x="596" y="334"/>
    </contour>
    <contour>
      <point x="506" y="306" type="curve" smooth="yes"/>
      <point x="514" y="306"/>
      <point x="521" y="313"/>
      <point x="521" y="321" type="curve" smooth="yes"/>
      <point x="521" y="329"/>
      <point x="514" y="336"/>
      <point x="506" y="336" type="curve" smooth="yes"/>
      <point x="498" y="336"/>
      <point x="491" y="329"/>
      <point x="491" y="321" type="curve" smooth="yes"/>
      <point x="491" y="313"/>
      <point x="498" y="306"/>
    </contour>
    <contour>
      <point x="409" y="333" type="curve" smooth="yes"/>
      <point x="417" y="333"/>
      <point x="424" y="340"/>
      <point x="424" y="348" type="curve" smooth="yes"/>
      <point x="424" y="356"/>
      <point x="417" y="363"/>
      <point x="409" y="363" type="curve" smooth="yes"/>
      <point x="401" y="363"/>
      <point x="394" y="356"/>
      <point x="394" y="348" type="curve" smooth="yes"/>
      <point x="394" y="340"/>
      <point x="401" y="333"/>
    </contour>
    <contour>
      <point x="336" y="405" type="curve" smooth="yes"/>
      <point x="344" y="405"/>
      <point x="351" y="412"/>
      <point x="351" y="420" type="curve" smooth="yes"/>
      <point x="351" y="428"/>
      <point x="344" y="435"/>
      <point x="336" y="435" type="curve" smooth="yes"/>
      <point x="328" y="435"/>
      <point x="321" y="428"/>
      <point x="321" y="420" type="curve" smooth="yes"/>
      <point x="321" y="412"/>
      <point x="328" y="405"/>
    </contour>
  </outline>
</glyph>
<glyph name="uni17C7" format="2">
  <advance width="399"/>
  <unicode hex="17C7"/>
  <note>
uni17C7
</note>
  <outline>
    <contour>
      <point x="200" y="562" type="curve" smooth="yes"/>
      <point x="260" y="562"/>
      <point x="309" y="611"/>
      <point x="309" y="672" type="curve" smooth="yes"/>
      <point x="309" y="735"/>
      <point x="261" y="782"/>
      <point x="200" y="782" type="curve" smooth="yes"/>
      <point x="139" y="782"/>
      <point x="90" y="733"/>
      <point x="90" y="672" type="curve" smooth="yes"/>
      <point x="90" y="612"/>
      <point x="139" y="562"/>
    </contour>
    <contour>
      <point x="200" y="236" type="curve" smooth="yes"/>
      <point x="260" y="236"/>
      <point x="309" y="285"/>
      <point x="309" y="346" type="curve" smooth="yes"/>
      <point x="309" y="409"/>
      <point x="261" y="456"/>
      <point x="200" y="456" type="curve" smooth="yes"/>
      <point x="139" y="456"/>
      <point x="90" y="407"/>
      <point x="90" y="346" type="curve" smooth="yes"/>
      <point x="90" y="286"/>
      <point x="139" y="236"/>
    </contour>
    <contour>
      <point x="200" y="588" type="curve" smooth="yes"/>
      <point x="153" y="588"/>
      <point x="116" y="625"/>
      <point x="116" y="672" type="curve" smooth="yes"/>
      <point x="116" y="718"/>
      <point x="153" y="755"/>
      <point x="200" y="755" type="curve" smooth="yes"/>
      <point x="246" y="755"/>
      <point x="283" y="718"/>
      <point x="283" y="672" type="curve" smooth="yes"/>
      <point x="283" y="625"/>
      <point x="246" y="588"/>
    </contour>
    <contour>
      <point x="200" y="262" type="curve" smooth="yes"/>
      <point x="153" y="262"/>
      <point x="116" y="299"/>
      <point x="116" y="346" type="curve" smooth="yes"/>
      <point x="116" y="392"/>
      <point x="153" y="429"/>
      <point x="200" y="429" type="curve" smooth="yes"/>
      <point x="246" y="429"/>
      <point x="283" y="392"/>
      <point x="283" y="346" type="curve" smooth="yes"/>
      <point x="283" y="299"/>
      <point x="246" y="262"/>
    </contour>
  </outline>
</glyph>
<glyph name="uni17C8" format="2">
  <advance width="283"/>
  <unicode hex="17C8"/>
  <note>
uni17C8
</note>
  <outline>
    <contour>
      <point x="137" y="655" type="curve" smooth="yes"/>
      <point x="157" y="655"/>
      <point x="174" y="672"/>
      <point x="174" y="692" type="curve" smooth="yes"/>
      <point x="174" y="712"/>
      <point x="157" y="729"/>
      <point x="137" y="729" type="curve" smooth="yes"/>
      <point x="117" y="729"/>
      <point x="100" y="712"/>
      <point x="100" y="692" type="curve" smooth="yes"/>
      <point x="100" y="672"/>
      <point x="117" y="655"/>
    </contour>
    <contour>
      <point x="137" y="289" type="curve" smooth="yes"/>
      <point x="157" y="289"/>
      <point x="174" y="306"/>
      <point x="174" y="326" type="curve" smooth="yes"/>
      <point x="174" y="346"/>
      <point x="157" y="363"/>
      <point x="137" y="363" type="curve" smooth="yes"/>
      <point x="117" y="363"/>
      <point x="100" y="346"/>
      <point x="100" y="326" type="curve" smooth="yes"/>
      <point x="100" y="306"/>
      <point x="117" y="289"/>
    </contour>
  </outline>
</glyph>
<glyph name="uni17C9" format="2">
  <unicode hex="17C9"/>
  <note>
uni17C9
</note>
  <outline>
    <contour>
      <point x="-392" y="684" type="line"/>
      <point x="-364" y="684" type="line"/>
      <point x="-364" y="879" type="line"/>
      <point x="-392" y="879" type="line"/>
    </contour>
    <contour>
      <point x="-256" y="684" type="line"/>
      <point x="-228" y="684" type="line"/>
      <point x="-228" y="879" type="line"/>
      <point x="-256" y="879" type="line"/>
    </contour>
  </outline>
</glyph>
<glyph name="uni17CA" format="2">
  <unicode hex="17CA"/>
  <note>
uni17CA
</note>
  <outline>
    <contour>
      <point x="-496" y="684" type="line"/>
      <point x="-125" y="684" type="line"/>
      <point x="-125" y="710" type="line"/>
      <point x="-278" y="710" type="line"/>
      <point x="-311" y="686" type="line"/>
      <point x="-343" y="710" type="line"/>
      <point x="-496" y="710" type="line"/>
    </contour>
  </outline>
</glyph>
<glyph name="uni17CC" format="2">
  <unicode hex="17CC"/>
  <note>
uni17CC
</note>
  <outline>
    <contour>
      <point x="-446" y="692" type="line"/>
      <point x="-390" y="732"/>
      <point x="-366" y="748"/>
      <point x="-314" y="748" type="curve" smooth="yes"/>
      <point x="-261" y="748"/>
      <point x="-225" y="732"/>
      <point x="-191" y="688" type="curve"/>
      <point x="-170" y="705" type="line"/>
      <point x="-213" y="751"/>
      <point x="-257" y="783"/>
      <point x="-346" y="771" type="curve"/>
      <point x="-306" y="813"/>
      <point x="-286" y="840"/>
      <point x="-245" y="901" type="curve"/>
      <point x="-270" y="909" type="line"/>
      <point x="-304" y="848"/>
      <point x="-367" y="778"/>
      <point x="-461" y="713" type="curve"/>
    </contour>
  </outline>
</glyph>
<glyph name="uni17CD" format="2">
  <unicode hex="17CD"/>
  <note>
uni17CD
</note>
  <outline>
    <contour>
      <point x="-405" y="684" type="curve" smooth="yes"/>
      <point x="-373" y="684" type="line"/>
      <point x="-373" y="710" type="line"/>
      <point x="-391" y="710" type="line" smooth="yes"/>
      <point x="-440" y="710"/>
      <point x="-453" y="723"/>
      <point x="-453" y="750" type="curve" smooth="yes"/>
      <point x="-453" y="775"/>
      <point x="-437" y="787"/>
      <point x="-399" y="787" type="curve" smooth="yes"/>
      <point x="-292" y="787" type="line" smooth="yes"/>
      <point x="-201" y="787"/>
      <point x="-145" y="828"/>
      <point x="-145" y="908" type="curve"/>
      <point x="-171" y="908" type="line"/>
      <point x="-171" y="839"/>
      <point x="-216" y="813"/>
      <point x="-288" y="813" type="curve" smooth="yes"/>
      <point x="-391" y="813" type="line" smooth="yes"/>
      <point x="-445" y="813"/>
      <point x="-479" y="797"/>
      <point x="-479" y="748" type="curve" smooth="yes"/>
      <point x="-479" y="705"/>
      <point x="-453" y="684"/>
    </contour>
  </outline>
</glyph>
<glyph name="uni17CE" format="2">
  <unicode hex="17CE"/>
  <note>
uni17CE
</note>
  <outline>
    <contour>
      <point x="-323" y="684" type="line"/>
      <point x="-297" y="684" type="line"/>
      <point x="-297" y="784" type="line"/>
      <point x="-185" y="784" type="line"/>
      <point x="-185" y="810" type="line"/>
      <point x="-297" y="810" type="line"/>
      <point x="-297" y="910" type="line"/>
      <point x="-323" y="910" type="line"/>
      <point x="-323" y="810" type="line"/>
      <point x="-435" y="810" type="line"/>
      <point x="-435" y="784" type="line"/>
      <point x="-323" y="784" type="line"/>
    </contour>
  </outline>
</glyph>
<glyph name="uni17CF" format="2">
  <unicode hex="17CF"/>
  <note>
uni17CF
</note>
  <outline>
    <contour>
      <point x="-482" y="684" type="line"/>
      <point x="-452" y="684" type="line"/>
      <point x="-310" y="739" type="line"/>
      <point x="-168" y="684" type="line"/>
      <point x="-138" y="684" type="line"/>
      <point x="-138" y="767" type="line"/>
      <point x="-164" y="767" type="line"/>
      <point x="-164" y="710" type="line"/>
      <point x="-309" y="767" type="line"/>
      <point x="-456" y="710" type="line"/>
      <point x="-456" y="768" type="line" smooth="yes"/>
      <point x="-456" y="797"/>
      <point x="-456" y="816"/>
      <point x="-422" y="816" type="curve" smooth="yes"/>
      <point x="-202" y="816" type="line" smooth="yes"/>
      <point x="-163" y="816"/>
      <point x="-144" y="833"/>
      <point x="-144" y="862" type="curve" smooth="yes"/>
      <point x="-144" y="881" type="line"/>
      <point x="-170" y="881" type="line"/>
      <point x="-170" y="842"/>
      <point x="-179" y="842"/>
      <point x="-227" y="842" type="curve" smooth="yes"/>
      <point x="-416" y="842" type="line" smooth="yes"/>
      <point x="-475" y="842"/>
      <point x="-482" y="815"/>
      <point x="-482" y="768" type="curve" smooth="yes"/>
    </contour>
  </outline>
</glyph>
<glyph name="uni17D0" format="2">
  <unicode hex="17D0"/>
  <note>
uni17D0
</note>
  <outline>
    <contour>
      <point x="-333" y="685" type="curve" smooth="yes"/>
      <point x="-216" y="685"/>
      <point x="-139.5" y="754"/>
      <point x="-135.9" y="891" type="curve"/>
      <point x="-162" y="891" type="line"/>
      <point x="-166.5" y="784"/>
      <point x="-209.7" y="711"/>
      <point x="-333" y="711" type="curve" smooth="yes"/>
      <point x="-385.2" y="711"/>
      <point x="-417.6" y="732"/>
      <point x="-417.6" y="769" type="curve" smooth="yes"/>
      <point x="-417.6" y="807"/>
      <point x="-386.1" y="827"/>
      <point x="-315.9" y="827" type="curve"/>
      <point x="-315.9" y="855" type="line"/>
      <point x="-396" y="855"/>
      <point x="-441" y="823"/>
      <point x="-441" y="768" type="curve" smooth="yes"/>
      <point x="-441" y="706"/>
      <point x="-390.6" y="685"/>
    </contour>
  </outline>
</glyph>
<glyph name="uni17D1" format="2">
  <unicode hex="17D1"/>
  <note>
uni17D1
</note>
  <outline>
    <contour>
      <point x="-473" y="684" type="line"/>
      <point x="-122" y="684" type="line"/>
      <point x="-122" y="710" type="line"/>
      <point x="-473" y="710" type="line"/>
    </contour>
  </outline>
</glyph>
<glyph name="uni17D3" format="2">
  <unicode hex="17D3"/>
  <note>
uni17D3
</note>
  <outline>
    <contour>
      <point x="-297" y="695" type="curve" smooth="yes"/>
      <point x="-206" y="695"/>
      <point x="-102" y="727"/>
      <point x="-102" y="807" type="curve" smooth="yes"/>
      <point x="-102" y="883"/>
      <point x="-193" y="919"/>
      <point x="-297" y="919" type="curve" smooth="yes"/>
      <point x="-388" y="919"/>
      <point x="-493" y="881"/>
      <point x="-493" y="807" type="curve" smooth="yes"/>
      <point x="-493" y="732"/>
      <point x="-391" y="695"/>
    </contour>
    <contour>
      <point x="-297" y="721" type="curve" smooth="yes"/>
      <point x="-393" y="721"/>
      <point x="-467" y="751"/>
      <point x="-467" y="807" type="curve" smooth="yes"/>
      <point x="-467" y="870"/>
      <point x="-364" y="893"/>
      <point x="-297" y="893" type="curve" smooth="yes"/>
      <point x="-204" y="893"/>
      <point x="-128" y="866"/>
      <point x="-128" y="807" type="curve" smooth="yes"/>
      <point x="-128" y="752"/>
      <point x="-200" y="721"/>
    </contour>
  </outline>
</glyph>
<glyph name="uni17D4" format="2">
  <advance width="586"/>
  <unicode hex="17D4"/>
  <note>
uni17D4
</note>
  <outline>
    <contour>
      <point x="429" y="244" type="line"/>
      <point x="455" y="244" type="line"/>
      <point x="455" y="830" type="line"/>
      <point x="429" y="830" type="line"/>
      <point x="392" y="768"/>
      <point x="323" y="675"/>
      <point x="241" y="675" type="curve" smooth="yes"/>
      <point x="176" y="675"/>
      <point x="157" y="716"/>
      <point x="157" y="746" type="curve" smooth="yes"/>
      <point x="157" y="770"/>
      <point x="177" y="804"/>
      <point x="235" y="804" type="curve" smooth="yes"/>
      <point x="244" y="804" type="line"/>
      <point x="244" y="830" type="line"/>
      <point x="243" y="830" type="line" smooth="yes"/>
      <point x="168" y="830"/>
      <point x="131" y="797"/>
      <point x="131" y="745" type="curve" smooth="yes"/>
      <point x="131" y="683"/>
      <point x="178" y="649"/>
      <point x="240" y="649" type="curve" smooth="yes"/>
      <point x="323" y="649"/>
      <point x="392" y="727"/>
      <point x="429" y="782" type="curve"/>
    </contour>
  </outline>
</glyph>
<glyph name="uni17D6" format="2">
  <advance width="498"/>
  <unicode hex="17D6"/>
  <note>
uni17D6
</note>
  <outline>
    <contour>
      <point x="90" y="525" type="line"/>
      <point x="408" y="525" type="line"/>
      <point x="408" y="551" type="line"/>
      <point x="90" y="551" type="line"/>
    </contour>
    <contour>
      <point x="236" y="241" type="curve" smooth="yes"/>
      <point x="297" y="241"/>
      <point x="346" y="290"/>
      <point x="346" y="351" type="curve" smooth="yes"/>
      <point x="346" y="412"/>
      <point x="297" y="461"/>
      <point x="236" y="461" type="curve" smooth="yes"/>
      <point x="175" y="461"/>
      <point x="126" y="412"/>
      <point x="126" y="351" type="curve" smooth="yes"/>
      <point x="126" y="290"/>
      <point x="175" y="241"/>
    </contour>
    <contour>
      <point x="236" y="267" type="curve" smooth="yes"/>
      <point x="190" y="267"/>
      <point x="152" y="305"/>
      <point x="152" y="351" type="curve" smooth="yes"/>
      <point x="152" y="397"/>
      <point x="190" y="435"/>
      <point x="236" y="435" type="curve" smooth="yes"/>
      <point x="282" y="435"/>
      <point x="320" y="397"/>
      <point x="320" y="351" type="curve" smooth="yes"/>
      <point x="320" y="305"/>
      <point x="282" y="267"/>
    </contour>
    <contour>
      <point x="236" y="607" type="curve" smooth="yes"/>
      <point x="297" y="607"/>
      <point x="346" y="656"/>
      <point x="346" y="717" type="curve" smooth="yes"/>
      <point x="346" y="778"/>
      <point x="297" y="827"/>
      <point x="236" y="827" type="curve" smooth="yes"/>
      <point x="175" y="827"/>
      <point x="126" y="778"/>
      <point x="126" y="717" type="curve" smooth="yes"/>
      <point x="126" y="656"/>
      <point x="175" y="607"/>
    </contour>
    <contour>
      <point x="236" y="633" type="curve" smooth="yes"/>
      <point x="190" y="633"/>
      <point x="152" y="671"/>
      <point x="152" y="717" type="curve" smooth="yes"/>
      <point x="152" y="763"/>
      <point x="190" y="801"/>
      <point x="236" y="801" type="curve" smooth="yes"/>
      <point x="282" y="801"/>
      <point x="320" y="763"/>
      <point x="320" y="717" type="curve" smooth="yes"/>
      <point x="320" y="671"/>
      <point x="282" y="633"/>
    </contour>
  </outline>
</glyph>
<glyph name="uni17D7" format="2">
  <advance width="586"/>
  <unicode hex="17D7"/>
  <note>
uni17D7
</note>
  <outline>
    <contour>
      <point x="269" y="49" type="line"/>
      <point x="271" y="49" type="line" smooth="yes"/>
      <point x="394" y="49"/>
      <point x="455" y="101"/>
      <point x="455" y="205" type="curve" smooth="yes"/>
      <point x="455" y="830" type="line"/>
      <point x="429" y="830" type="line"/>
      <point x="396" y="789"/>
      <point x="345" y="731"/>
      <point x="309" y="731" type="curve" smooth="yes"/>
      <point x="266" y="731"/>
      <point x="261" y="830"/>
      <point x="179" y="830" type="curve" smooth="yes"/>
      <point x="136" y="830"/>
      <point x="106" y="794"/>
      <point x="106" y="752" type="curve" smooth="yes"/>
      <point x="106" y="695"/>
      <point x="145" y="664"/>
      <point x="193" y="664" type="curve" smooth="yes"/>
      <point x="209" y="664" type="line"/>
      <point x="209" y="690" type="line"/>
      <point x="200" y="690" type="line" smooth="yes"/>
      <point x="156" y="690"/>
      <point x="132" y="716"/>
      <point x="132" y="752" type="curve" smooth="yes"/>
      <point x="132" y="780"/>
      <point x="147" y="804"/>
      <point x="178" y="804" type="curve" smooth="yes"/>
      <point x="242" y="804"/>
      <point x="245" y="705"/>
      <point x="309" y="705" type="curve" smooth="yes"/>
      <point x="343" y="705"/>
      <point x="379" y="736"/>
      <point x="428" y="788" type="curve"/>
      <point x="429" y="788" type="line"/>
      <point x="429" y="205" type="line" smooth="yes"/>
      <point x="429" y="126"/>
      <point x="376" y="77"/>
      <point x="271" y="75" type="curve" smooth="yes"/>
      <point x="269" y="75" type="line"/>
    </contour>
  </outline>
</glyph>
<glyph name="uni17D8" format="2">
  <advance width="1830"/>
  <unicode hex="17D8"/>
  <note>
uni17D8
</note>
  <outline>
    <contour>
      <point x="398" y="244" type="line"/>
      <point x="424" y="244" type="line"/>
      <point x="424" y="830" type="line"/>
      <point x="398" y="830" type="line"/>
      <point x="361" y="768"/>
      <point x="292" y="675"/>
      <point x="210" y="675" type="curve" smooth="yes"/>
      <point x="145" y="675"/>
      <point x="126" y="716"/>
      <point x="126" y="746" type="curve" smooth="yes"/>
      <point x="126" y="770"/>
      <point x="146" y="804"/>
      <point x="204" y="804" type="curve" smooth="yes"/>
      <point x="213" y="804" type="line"/>
      <point x="213" y="830" type="line"/>
      <point x="212" y="830" type="line" smooth="yes"/>
      <point x="137" y="830"/>
      <point x="100" y="797"/>
      <point x="100" y="745" type="curve" smooth="yes"/>
      <point x="100" y="683"/>
      <point x="147" y="649"/>
      <point x="209" y="649" type="curve" smooth="yes"/>
      <point x="292" y="649"/>
      <point x="361" y="727"/>
      <point x="398" y="782" type="curve"/>
    </contour>
    <contour>
      <point x="1256" y="580" type="line"/>
      <point x="1230" y="580" type="line"/>
      <point x="1230" y="402" type="line" smooth="yes"/>
      <point x="1230" y="319"/>
      <point x="1181" y="270"/>
      <point x="1084" y="270" type="curve" smooth="yes"/>
      <point x="989" y="270"/>
      <point x="941" y="319"/>
      <point x="941" y="402" type="curve" smooth="yes"/>
      <point x="941" y="622" type="line" smooth="yes"/>
      <point x="941" y="727"/>
      <point x="882" y="780"/>
      <point x="764" y="780" type="curve" smooth="yes"/>
      <point x="648" y="780"/>
      <point x="589" y="727"/>
      <point x="589" y="622" type="curve" smooth="yes"/>
      <point x="589" y="434" type="line"/>
      <point x="615" y="434" type="line"/>
      <point x="615" y="622" type="line" smooth="yes"/>
      <point x="615" y="703"/>
      <point x="667" y="754"/>
      <point x="764" y="754" type="curve" smooth="yes"/>
      <point x="863" y="754"/>
      <point x="915" y="703"/>
      <point x="915" y="622" type="curve" smooth="yes"/>
      <point x="915" y="402" type="line" smooth="yes"/>
      <point x="915" y="297"/>
      <point x="970" y="244"/>
      <point x="1084" y="244" type="curve" smooth="yes"/>
      <point x="1200" y="244"/>
      <point x="1256" y="297"/>
      <point x="1256" y="402" type="curve" smooth="yes"/>
    </contour>
    <contour>
      <point x="589" y="452" type="line" smooth="yes"/>
      <point x="589" y="271" type="line" smooth="yes"/>
      <point x="589" y="247"/>
      <point x="605" y="244"/>
      <point x="618" y="244" type="curve" smooth="yes"/>
      <point x="621" y="244" type="line" smooth="yes"/>
      <point x="657" y="244"/>
      <point x="700" y="277"/>
      <point x="700" y="338" type="curve" smooth="yes"/>
      <point x="700" y="393"/>
      <point x="657" y="412"/>
      <point x="615" y="412" type="curve"/>
      <point x="615" y="452" type="line"/>
    </contour>
    <contour>
      <point x="615" y="270" type="curve"/>
      <point x="615" y="385" type="line"/>
      <point x="659" y="385"/>
      <point x="674" y="365"/>
      <point x="674" y="335" type="curve" smooth="yes"/>
      <point x="674" y="312"/>
      <point x="662" y="270"/>
    </contour>
    <contour>
      <point x="1230" y="570" type="line"/>
      <point x="1256" y="570" type="line"/>
      <point x="1256" y="592" type="line"/>
      <point x="1174" y="730" type="line"/>
      <point x="1182" y="754" type="line"/>
      <point x="1275" y="754" type="line"/>
      <point x="1275" y="780" type="line"/>
      <point x="1184" y="780" type="line"/>
      <point x="1169" y="763"/>
      <point x="1159" y="741"/>
      <point x="1159" y="724" type="curve" smooth="yes"/>
      <point x="1159" y="708"/>
      <point x="1173" y="680"/>
      <point x="1230" y="588" type="curve"/>
    </contour>
    <contour>
      <point x="1684" y="244" type="line"/>
      <point x="1710" y="244" type="line"/>
      <point x="1710" y="830" type="line"/>
      <point x="1684" y="830" type="line"/>
      <point x="1647" y="768"/>
      <point x="1578" y="675"/>
      <point x="1496" y="675" type="curve" smooth="yes"/>
      <point x="1431" y="675"/>
      <point x="1412" y="716"/>
      <point x="1412" y="746" type="curve" smooth="yes"/>
      <point x="1412" y="770"/>
      <point x="1432" y="804"/>
      <point x="1490" y="804" type="curve" smooth="yes"/>
      <point x="1499" y="804" type="line"/>
      <point x="1499" y="830" type="line"/>
      <point x="1498" y="830" type="line" smooth="yes"/>
      <point x="1423" y="830"/>
      <point x="1386" y="797"/>
      <point x="1386" y="745" type="curve" smooth="yes"/>
      <point x="1386" y="683"/>
      <point x="1433" y="649"/>
      <point x="1495" y="649" type="curve" smooth="yes"/>
      <point x="1578" y="649"/>
      <point x="1647" y="727"/>
      <point x="1684" y="782" type="curve"/>
    </contour>
  </outline>
</glyph>
<glyph name="uni17D9" format="2">
  <advance width="703"/>
  <unicode hex="17D9"/>
  <note>
uni17D9
</note>
  <outline>
    <contour>
      <point x="351" y="258" type="curve" smooth="yes"/>
      <point x="525" y="258"/>
      <point x="593" y="357"/>
      <point x="593" y="537" type="curve" smooth="yes"/>
      <point x="593" y="717"/>
      <point x="525" y="817"/>
      <point x="351" y="817" type="curve" smooth="yes"/>
      <point x="177" y="817"/>
      <point x="110" y="717"/>
      <point x="110" y="537" type="curve" smooth="yes"/>
      <point x="110" y="357"/>
      <point x="177" y="258"/>
    </contour>
    <contour>
      <point x="351" y="284" type="curve" smooth="yes"/>
      <point x="203" y="284"/>
      <point x="136" y="358"/>
      <point x="136" y="537" type="curve" smooth="yes"/>
      <point x="136" y="716"/>
      <point x="203" y="791"/>
      <point x="351" y="791" type="curve" smooth="yes"/>
      <point x="499" y="791"/>
      <point x="567" y="716"/>
      <point x="567" y="537" type="curve" smooth="yes"/>
      <point x="567" y="358"/>
      <point x="499" y="284"/>
    </contour>
    <contour>
      <point x="351" y="337" type="curve" smooth="yes"/>
      <point x="431" y="337"/>
      <point x="471" y="422"/>
      <point x="471" y="537" type="curve" smooth="yes"/>
      <point x="471" y="652"/>
      <point x="431" y="736"/>
      <point x="351" y="736" type="curve" smooth="yes"/>
      <point x="271" y="736"/>
      <point x="231" y="650"/>
      <point x="231" y="537" type="curve" smooth="yes"/>
      <point x="231" y="424"/>
      <point x="271" y="337"/>
    </contour>
    <contour>
      <point x="351" y="363" type="curve" smooth="yes"/>
      <point x="291" y="363"/>
      <point x="257" y="445"/>
      <point x="257" y="537" type="curve" smooth="yes"/>
      <point x="257" y="625"/>
      <point x="286" y="710"/>
      <point x="351" y="710" type="curve" smooth="yes"/>
      <point x="414" y="710"/>
      <point x="445" y="630"/>
      <point x="445" y="537" type="curve" smooth="yes"/>
      <point x="445" y="448"/>
      <point x="415" y="363"/>
    </contour>
  </outline>
</glyph>
<glyph name="uni17DA" format="2">
  <advance width="1399"/>
  <unicode hex="17DA"/>
  <note>
uni17DA
</note>
  <outline>
    <contour>
      <point x="299" y="244" type="curve" smooth="yes"/>
      <point x="410" y="244"/>
      <point x="497" y="366"/>
      <point x="560" y="485" type="curve" smooth="yes"/>
      <point x="691" y="731" type="line"/>
      <point x="855" y="311" type="line"/>
      <point x="885" y="311" type="line"/>
      <point x="1011" y="676" type="line"/>
      <point x="1117" y="350" type="line"/>
      <point x="1145" y="350" type="line"/>
      <point x="1211" y="513" type="line"/>
      <point x="1319" y="513" type="line"/>
      <point x="1319" y="539" type="line"/>
      <point x="1193" y="539" type="line"/>
      <point x="1133" y="391" type="line"/>
      <point x="1025" y="708" type="line"/>
      <point x="995" y="708" type="line"/>
      <point x="869" y="343" type="line"/>
      <point x="707" y="761" type="line"/>
      <point x="677" y="761" type="line"/>
      <point x="558" y="536" type="line" smooth="yes"/>
      <point x="529" y="481"/>
      <point x="427" y="270"/>
      <point x="303" y="270" type="curve" smooth="yes"/>
      <point x="217" y="270"/>
      <point x="136" y="369"/>
      <point x="136" y="546" type="curve" smooth="yes"/>
      <point x="136" y="715"/>
      <point x="220" y="806"/>
      <point x="339" y="806" type="curve" smooth="yes"/>
      <point x="407" y="806"/>
      <point x="473" y="771"/>
      <point x="473" y="687" type="curve" smooth="yes"/>
      <point x="473" y="600"/>
      <point x="406" y="567"/>
      <point x="333" y="567" type="curve"/>
      <point x="333" y="541" type="line"/>
      <point x="438" y="541"/>
      <point x="499" y="600"/>
      <point x="499" y="690" type="curve" smooth="yes"/>
      <point x="499" y="775"/>
      <point x="435" y="832"/>
      <point x="338" y="832" type="curve" smooth="yes"/>
      <point x="221" y="832"/>
      <point x="110" y="747"/>
      <point x="110" y="547" type="curve" smooth="yes"/>
      <point x="110" y="360"/>
      <point x="196" y="244"/>
    </contour>
  </outline>
</glyph>
<glyph name="uni17DC" format="2">
  <advance width="759"/>
  <unicode hex="17DC"/>
  <note>
uni17DC
</note>
  <outline>
    <contour>
      <point x="356" y="244" type="curve" smooth="yes"/>
      <point x="522" y="244"/>
      <point x="619" y="330"/>
      <point x="619" y="427" type="curve" smooth="yes"/>
      <point x="619" y="516"/>
      <point x="537" y="554"/>
      <point x="382" y="579" type="curve" smooth="yes"/>
      <point x="276" y="596"/>
      <point x="167" y="613"/>
      <point x="167" y="704" type="curve" smooth="yes"/>
      <point x="167" y="812"/>
      <point x="293" y="852"/>
      <point x="389" y="852" type="curve" smooth="yes"/>
      <point x="447" y="852"/>
      <point x="582" y="835"/>
      <point x="582" y="736" type="curve" smooth="yes"/>
      <point x="582" y="664"/>
      <point x="513" y="661"/>
      <point x="491" y="661" type="curve"/>
      <point x="491" y="635" type="line"/>
      <point x="550" y="635"/>
      <point x="608" y="669"/>
      <point x="608" y="740" type="curve" smooth="yes"/>
      <point x="608" y="819"/>
      <point x="537" y="878"/>
      <point x="388" y="878" type="curve" smooth="yes"/>
      <point x="239" y="878"/>
      <point x="140" y="810"/>
      <point x="140" y="708" type="curve" smooth="yes"/>
      <point x="140" y="596"/>
      <point x="258" y="570"/>
      <point x="363" y="553" type="curve" smooth="yes"/>
      <point x="498" y="531"/>
      <point x="593" y="504"/>
      <point x="593" y="426" type="curve" smooth="yes"/>
      <point x="593" y="349"/>
      <point x="504" y="270"/>
      <point x="359" y="270" type="curve" smooth="yes"/>
      <point x="252" y="270"/>
      <point x="166" y="311"/>
      <point x="166" y="378" type="curve" smooth="yes"/>
      <point x="166" y="443"/>
      <point x="246" y="468"/>
      <point x="284" y="468" type="curve"/>
      <point x="284" y="494" type="line"/>
      <point x="236" y="494"/>
      <point x="140" y="463"/>
      <point x="140" y="378" type="curve" smooth="yes"/>
      <point x="140" y="306"/>
      <point x="207" y="244"/>
    </contour>
  </outline>
</glyph>
<glyph name="uni17DD" format="2">
  <unicode hex="17DD"/>
  <note>
uni17DD
</note>
  <outline>
    <contour>
      <point x="-493" y="687" type="curve"/>
      <point x="-467" y="687" type="line"/>
      <point x="-467" y="776"/>
      <point x="-387" y="810"/>
      <point x="-303" y="810" type="curve" smooth="yes"/>
      <point x="-219" y="810"/>
      <point x="-139" y="776"/>
      <point x="-139" y="687" type="curve"/>
      <point x="-113" y="687" type="line"/>
      <point x="-113" y="808"/>
      <point x="-228" y="836"/>
      <point x="-304" y="836" type="curve" smooth="yes"/>
      <point x="-380" y="836"/>
      <point x="-493" y="808"/>
    </contour>
  </outline>
</glyph>
<glyph name="uni17E0" format="2">
  <advance width="594"/>
  <unicode hex="17E0"/>
  <note>
uni17E0
</note>
  <outline>
    <contour>
      <point x="297" y="244" type="curve" smooth="yes"/>
      <point x="414" y="244"/>
      <point x="484" y="306"/>
      <point x="484" y="430" type="curve" smooth="yes"/>
      <point x="484" y="644" type="line" smooth="yes"/>
      <point x="484" y="768"/>
      <point x="414" y="830"/>
      <point x="297" y="830" type="curve" smooth="yes"/>
      <point x="180" y="830"/>
      <point x="110" y="768"/>
      <point x="110" y="644" type="curve" smooth="yes"/>
      <point x="110" y="430" type="line" smooth="yes"/>
      <point x="110" y="306"/>
      <point x="180" y="244"/>
    </contour>
    <contour>
      <point x="297" y="270" type="curve" smooth="yes"/>
      <point x="190" y="270"/>
      <point x="136" y="329"/>
      <point x="136" y="430" type="curve" smooth="yes"/>
      <point x="136" y="644" type="line" smooth="yes"/>
      <point x="136" y="745"/>
      <point x="190" y="804"/>
      <point x="297" y="804" type="curve" smooth="yes"/>
      <point x="404" y="804"/>
      <point x="458" y="745"/>
      <point x="458" y="644" type="curve" smooth="yes"/>
      <point x="458" y="430" type="line" smooth="yes"/>
      <point x="458" y="329"/>
      <point x="404" y="270"/>
    </contour>
  </outline>
</glyph>
<glyph name="uni17E1" format="2">
  <advance width="593"/>
  <unicode hex="17E1"/>
  <note>
uni17E1
</note>
  <outline>
    <contour>
      <point x="296" y="244" type="curve" smooth="yes"/>
      <point x="413" y="244"/>
      <point x="483" y="298"/>
      <point x="483" y="400" type="curve" smooth="yes"/>
      <point x="483" y="674" type="line" smooth="yes"/>
      <point x="483" y="776"/>
      <point x="416" y="830"/>
      <point x="296" y="830" type="curve" smooth="yes"/>
      <point x="177" y="830"/>
      <point x="110" y="778"/>
      <point x="110" y="674" type="curve" smooth="yes"/>
      <point x="110" y="600" type="line" smooth="yes"/>
      <point x="110" y="537"/>
      <point x="152" y="498"/>
      <point x="206" y="498" type="curve" smooth="yes"/>
      <point x="296" y="498" type="line"/>
      <point x="296" y="524" type="line"/>
      <point x="204" y="524" type="line" smooth="yes"/>
      <point x="157" y="524"/>
      <point x="136" y="565"/>
      <point x="136" y="600" type="curve" smooth="yes"/>
      <point x="136" y="674" type="line" smooth="yes"/>
      <point x="136" y="755"/>
      <point x="189" y="804"/>
      <point x="296" y="804" type="curve" smooth="yes"/>
      <point x="403" y="804"/>
      <point x="457" y="755"/>
      <point x="457" y="674" type="curve" smooth="yes"/>
      <point x="457" y="400" type="line" smooth="yes"/>
      <point x="457" y="319"/>
      <point x="403" y="270"/>
      <point x="296" y="270" type="curve" smooth="yes"/>
      <point x="189" y="270"/>
      <point x="136" y="319"/>
      <point x="136" y="400" type="curve"/>
      <point x="110" y="400" type="line"/>
      <point x="110" y="299"/>
      <point x="181" y="244"/>
    </contour>
  </outline>
</glyph>
<glyph name="uni17E2" format="2">
  <advance width="664"/>
  <unicode hex="17E2"/>
  <note>
uni17E2
</note>
  <outline>
    <contour>
      <point x="330" y="244" type="curve" smooth="yes"/>
      <point x="469" y="244"/>
      <point x="554" y="307"/>
      <point x="554" y="439" type="curve" smooth="yes"/>
      <point x="554" y="830" type="line"/>
      <point x="528" y="830" type="line"/>
      <point x="392" y="712" type="line"/>
      <point x="259" y="830" type="line"/>
      <point x="233" y="830" type="line"/>
      <point x="233" y="552" type="line"/>
      <point x="286" y="552" type="line"/>
      <point x="286" y="578" type="line"/>
      <point x="259" y="578" type="line"/>
      <point x="259" y="795" type="line"/>
      <point x="392" y="677" type="line"/>
      <point x="528" y="795" type="line"/>
      <point x="528" y="439" type="line" smooth="yes"/>
      <point x="528" y="332"/>
      <point x="462" y="270"/>
      <point x="330" y="270" type="curve" smooth="yes"/>
      <point x="199" y="270"/>
      <point x="134" y="332"/>
      <point x="134" y="439" type="curve" smooth="yes"/>
      <point x="134" y="928" type="line" smooth="yes"/>
      <point x="134" y="946"/>
      <point x="130" y="952"/>
      <point x="113" y="952" type="curve" smooth="yes"/>
      <point x="60" y="952" type="line"/>
      <point x="60" y="926" type="line"/>
      <point x="108" y="926" type="line"/>
      <point x="108" y="439" type="line" smooth="yes"/>
      <point x="108" y="309"/>
      <point x="191" y="244"/>
    </contour>
  </outline>
</glyph>
<glyph name="uni17E3" format="2">
  <advance width="821"/>
  <unicode hex="17E3"/>
  <note>
uni17E3
</note>
  <outline>
    <contour>
      <point x="110" y="244" type="line"/>
      <point x="185" y="244" type="line"/>
      <point x="185" y="270" type="line"/>
      <point x="136" y="270" type="line"/>
      <point x="136" y="674" type="line" smooth="yes"/>
      <point x="136" y="757"/>
      <point x="182" y="804"/>
      <point x="267" y="804" type="curve" smooth="yes"/>
      <point x="352" y="804"/>
      <point x="398" y="777"/>
      <point x="398" y="745" type="curve" smooth="yes"/>
      <point x="398" y="244" type="line"/>
      <point x="424" y="244" type="line"/>
      <point x="424" y="745" type="line" smooth="yes"/>
      <point x="424" y="777"/>
      <point x="467" y="804"/>
      <point x="554" y="804" type="curve" smooth="yes"/>
      <point x="639" y="804"/>
      <point x="685" y="757"/>
      <point x="685" y="684" type="curve" smooth="yes"/>
      <point x="685" y="244" type="line"/>
      <point x="711" y="244" type="line"/>
      <point x="711" y="684" type="line" smooth="yes"/>
      <point x="711" y="781"/>
      <point x="641" y="830"/>
      <point x="554" y="830" type="curve" smooth="yes"/>
      <point x="489" y="830"/>
      <point x="441" y="815"/>
      <point x="410" y="786" type="curve"/>
      <point x="379" y="815"/>
      <point x="331" y="830"/>
      <point x="267" y="830" type="curve" smooth="yes"/>
      <point x="180" y="830"/>
      <point x="110" y="783"/>
      <point x="110" y="679" type="curve" smooth="yes"/>
    </contour>
  </outline>
</glyph>
<glyph name="uni17E4" format="2">
  <advance width="592"/>
  <unicode hex="17E4"/>
  <note>
uni17E4
</note>
  <outline>
    <contour>
      <point x="295" y="244" type="curve" smooth="yes"/>
      <point x="455" y="244" type="line"/>
      <point x="477" y="275" type="line"/>
      <point x="348" y="471" type="line"/>
      <point x="348" y="676" type="line"/>
      <point x="482" y="676" type="line"/>
      <point x="482" y="702" type="line"/>
      <point x="372" y="702" type="line" smooth="yes"/>
      <point x="324" y="702"/>
      <point x="322" y="693"/>
      <point x="322" y="662" type="curve" smooth="yes"/>
      <point x="322" y="463" type="line"/>
      <point x="449" y="270" type="line"/>
      <point x="295" y="270" type="line" smooth="yes"/>
      <point x="188" y="270"/>
      <point x="135" y="332"/>
      <point x="135" y="439" type="curve" smooth="yes"/>
      <point x="135" y="925" type="line" smooth="yes"/>
      <point x="135" y="946"/>
      <point x="126" y="951"/>
      <point x="109" y="951" type="curve" smooth="yes"/>
      <point x="60" y="951" type="line"/>
      <point x="60" y="925" type="line"/>
      <point x="109" y="925" type="line"/>
      <point x="109" y="439" type="line" smooth="yes"/>
      <point x="109" y="309"/>
      <point x="180" y="244"/>
    </contour>
  </outline>
</glyph>
<glyph name="uni17E5" format="2">
  <advance width="583"/>
  <unicode hex="17E5"/>
  <note>
uni17E5
</note>
  <outline>
    <contour>
      <point x="299" y="244" type="curve" smooth="yes"/>
      <point x="456" y="244" type="line"/>
      <point x="478" y="275" type="line"/>
      <point x="349" y="471" type="line"/>
      <point x="349" y="609" type="line"/>
      <point x="483" y="609" type="line"/>
      <point x="483" y="635" type="line"/>
      <point x="357" y="635" type="line" smooth="yes"/>
      <point x="325" y="635"/>
      <point x="323" y="626"/>
      <point x="323" y="595" type="curve" smooth="yes"/>
      <point x="323" y="463" type="line"/>
      <point x="450" y="270" type="line"/>
      <point x="296" y="270" type="line" smooth="yes"/>
      <point x="189" y="270"/>
      <point x="136" y="332"/>
      <point x="136" y="439" type="curve" smooth="yes"/>
      <point x="136" y="661" type="line" smooth="yes"/>
      <point x="136" y="725"/>
      <point x="174" y="757"/>
      <point x="206" y="769" type="curve"/>
      <point x="246" y="743"/>
      <point x="302" y="729"/>
      <point x="345" y="729" type="curve" smooth="yes"/>
      <point x="409" y="729"/>
      <point x="483" y="773"/>
      <point x="483" y="834" type="curve" smooth="yes"/>
      <point x="483" y="948" type="line"/>
      <point x="457" y="948" type="line"/>
      <point x="457" y="834" type="line" smooth="yes"/>
      <point x="457" y="795"/>
      <point x="402" y="755"/>
      <point x="345" y="755" type="curve" smooth="yes"/>
      <point x="305" y="755"/>
      <point x="259" y="763"/>
      <point x="234" y="781" type="curve"/>
      <point x="244" y="789"/>
      <point x="251" y="798"/>
      <point x="251" y="815" type="curve" smooth="yes"/>
      <point x="251" y="833"/>
      <point x="235" y="852"/>
      <point x="211" y="852" type="curve" smooth="yes"/>
      <point x="191" y="852"/>
      <point x="174" y="836"/>
      <point x="174" y="815" type="curve" smooth="yes"/>
      <point x="174" y="803"/>
      <point x="178" y="796"/>
      <point x="186" y="787" type="curve"/>
      <point x="125" y="759"/>
      <point x="110" y="708"/>
      <point x="110" y="667" type="curve" smooth="yes"/>
      <point x="110" y="439" type="line" smooth="yes"/>
      <point x="110" y="309"/>
      <point x="179" y="244"/>
    </contour>
  </outline>
</glyph>
<glyph name="uni17E6" format="2">
  <advance width="593"/>
  <unicode hex="17E6"/>
  <note>
uni17E6
</note>
  <outline>
    <contour>
      <point x="296" y="244" type="curve" smooth="yes"/>
      <point x="415" y="244"/>
      <point x="483" y="313"/>
      <point x="483" y="439" type="curve" smooth="yes"/>
      <point x="483" y="635" type="line" smooth="yes"/>
      <point x="483" y="765"/>
      <point x="421" y="830"/>
      <point x="296" y="830" type="curve" smooth="yes"/>
      <point x="214" y="830"/>
      <point x="164" y="801"/>
      <point x="136" y="756" type="curve"/>
      <point x="136" y="948" type="line"/>
      <point x="110" y="948" type="line"/>
      <point x="110" y="666" type="line"/>
      <point x="136" y="666" type="line"/>
      <point x="142" y="754"/>
      <point x="189" y="804"/>
      <point x="296" y="804" type="curve" smooth="yes"/>
      <point x="403" y="804"/>
      <point x="457" y="742"/>
      <point x="457" y="635" type="curve" smooth="yes"/>
      <point x="457" y="439" type="line" smooth="yes"/>
      <point x="457" y="332"/>
      <point x="403" y="270"/>
      <point x="296" y="270" type="curve" smooth="yes"/>
      <point x="189" y="270"/>
      <point x="135" y="324"/>
      <point x="135" y="415" type="curve" smooth="yes"/>
      <point x="135" y="484"/>
      <point x="150" y="560"/>
      <point x="250" y="560" type="curve" smooth="yes"/>
      <point x="321" y="560" type="line"/>
      <point x="321" y="586" type="line"/>
      <point x="260" y="586" type="line" smooth="yes"/>
      <point x="149" y="586"/>
      <point x="110" y="529"/>
      <point x="110" y="415" type="curve" smooth="yes"/>
      <point x="110" y="306"/>
      <point x="174" y="244"/>
    </contour>
  </outline>
</glyph>
<glyph name="uni17E7" format="2">
  <advance width="708"/>
  <unicode hex="17E7"/>
  <note>
uni17E7
</note>
  <outline>
    <contour>
      <point x="110" y="244" type="line"/>
      <point x="249" y="244" type="line"/>
      <point x="249" y="270" type="line"/>
      <point x="136" y="270" type="line"/>
      <point x="136" y="745" type="line" smooth="yes"/>
      <point x="136" y="784"/>
      <point x="157" y="804"/>
      <point x="188" y="804" type="curve" smooth="yes"/>
      <point x="213" y="804"/>
      <point x="233" y="785"/>
      <point x="258" y="754" type="curve" smooth="yes"/>
      <point x="266" y="744"/>
      <point x="275" y="739"/>
      <point x="285" y="739" type="curve" smooth="yes"/>
      <point x="295" y="739"/>
      <point x="304" y="744"/>
      <point x="313" y="754" type="curve" smooth="yes"/>
      <point x="339" y="784"/>
      <point x="360" y="804"/>
      <point x="385" y="804" type="curve" smooth="yes"/>
      <point x="416" y="804"/>
      <point x="434" y="779"/>
      <point x="434" y="747" type="curve" smooth="yes"/>
      <point x="434" y="316" type="line" smooth="yes"/>
      <point x="434" y="265"/>
      <point x="469" y="244"/>
      <point x="516" y="244" type="curve" smooth="yes"/>
      <point x="563" y="244"/>
      <point x="598" y="265"/>
      <point x="598" y="316" type="curve" smooth="yes"/>
      <point x="598" y="945" type="line"/>
      <point x="572" y="945" type="line"/>
      <point x="572" y="313" type="line" smooth="yes"/>
      <point x="572" y="279"/>
      <point x="546" y="270"/>
      <point x="516" y="270" type="curve" smooth="yes"/>
      <point x="486" y="270"/>
      <point x="460" y="279"/>
      <point x="460" y="313" type="curve" smooth="yes"/>
      <point x="460" y="729" type="line" smooth="yes"/>
      <point x="460" y="797"/>
      <point x="434" y="830"/>
      <point x="387" y="830" type="curve" smooth="yes"/>
      <point x="352" y="830"/>
      <point x="320" y="804"/>
      <point x="285" y="763" type="curve"/>
      <point x="251" y="804"/>
      <point x="219" y="830"/>
      <point x="184" y="830" type="curve" smooth="yes"/>
      <point x="138" y="830"/>
      <point x="110" y="798"/>
      <point x="110" y="736" type="curve" smooth="yes"/>
    </contour>
  </outline>
</glyph>
<glyph name="uni17E8" format="2">
  <advance width="594"/>
  <unicode hex="17E8"/>
  <note>
uni17E8
</note>
  <outline>
    <contour>
      <point x="110" y="244" type="line"/>
      <point x="148" y="244" type="line"/>
      <point x="298" y="362" type="line"/>
      <point x="446" y="244" type="line"/>
      <point x="484" y="244" type="line"/>
      <point x="484" y="550" type="line" smooth="yes"/>
      <point x="484" y="576"/>
      <point x="472" y="590"/>
      <point x="439" y="590" type="curve" smooth="yes"/>
      <point x="312" y="590" type="line"/>
      <point x="312" y="564" type="line"/>
      <point x="432" y="564" type="line" smooth="yes"/>
      <point x="457" y="564"/>
      <point x="458" y="550"/>
      <point x="458" y="524" type="curve" smooth="yes"/>
      <point x="458" y="268" type="line"/>
      <point x="298" y="394" type="line"/>
      <point x="136" y="267" type="line"/>
      <point x="136" y="674" type="line" smooth="yes"/>
      <point x="136" y="755"/>
      <point x="194" y="804"/>
      <point x="301" y="804" type="curve" smooth="yes"/>
      <point x="408" y="804"/>
      <point x="458" y="763"/>
      <point x="458" y="674" type="curve"/>
      <point x="484" y="674" type="line"/>
      <point x="484" y="938" type="line"/>
      <point x="458" y="938" type="line"/>
      <point x="458" y="770" type="line"/>
      <point x="436" y="800"/>
      <point x="379" y="830"/>
      <point x="301" y="830" type="curve" smooth="yes"/>
      <point x="186" y="830"/>
      <point x="110" y="778"/>
      <point x="110" y="674" type="curve" smooth="yes"/>
    </contour>
  </outline>
</glyph>
<glyph name="uni17E9" format="2">
  <advance width="575"/>
  <unicode hex="17E9"/>
  <note>
uni17E9
</note>
  <outline>
    <contour>
      <point x="298" y="244" type="curve" smooth="yes"/>
      <point x="423" y="244"/>
      <point x="485" y="304"/>
      <point x="485" y="386" type="curve" smooth="yes"/>
      <point x="485" y="463"/>
      <point x="424" y="484"/>
      <point x="347" y="484" type="curve" smooth="yes"/>
      <point x="298" y="484" type="line"/>
      <point x="298" y="458" type="line"/>
      <point x="347" y="458" type="line" smooth="yes"/>
      <point x="422" y="458"/>
      <point x="459" y="440"/>
      <point x="459" y="382" type="curve" smooth="yes"/>
      <point x="459" y="316"/>
      <point x="409" y="270"/>
      <point x="298" y="270" type="curve" smooth="yes"/>
      <point x="191" y="270"/>
      <point x="138" y="315"/>
      <point x="138" y="390" type="curve" smooth="yes"/>
      <point x="138" y="502" type="line" smooth="yes"/>
      <point x="138" y="547"/>
      <point x="160" y="577"/>
      <point x="190" y="577" type="curve" smooth="yes"/>
      <point x="445" y="577" type="line"/>
      <point x="445" y="603" type="line"/>
      <point x="187" y="603" type="line" smooth="yes"/>
      <point x="160" y="603"/>
      <point x="136" y="646"/>
      <point x="136" y="685" type="curve" smooth="yes"/>
      <point x="136" y="761"/>
      <point x="196" y="804"/>
      <point x="298" y="804" type="curve" smooth="yes"/>
      <point x="413" y="804"/>
      <point x="459" y="771"/>
      <point x="459" y="704" type="curve"/>
      <point x="485" y="704" type="line"/>
      <point x="485" y="945" type="line"/>
      <point x="459" y="945" type="line"/>
      <point x="459" y="785" type="line"/>
      <point x="413" y="822"/>
      <point x="358" y="830"/>
      <point x="298" y="830" type="curve" smooth="yes"/>
      <point x="204" y="830"/>
      <point x="110" y="790"/>
      <point x="110" y="686" type="curve" smooth="yes"/>
      <point x="110" y="629"/>
      <point x="138" y="606"/>
      <point x="146" y="590" type="curve"/>
      <point x="123" y="565"/>
      <point x="112" y="534"/>
      <point x="112" y="501" type="curve" smooth="yes"/>
      <point x="112" y="390" type="line" smooth="yes"/>
      <point x="112" y="293"/>
      <point x="182" y="244"/>
    </contour>
  </outline>
</glyph>
<glyph name="uni17F0" format="2">
  <advance width="389"/>
  <unicode hex="17F0"/>
  <note>
uni17F0
</note>
  <outline>
    <contour>
      <point x="194" y="250" type="curve" smooth="yes"/>
      <point x="273" y="250"/>
      <point x="313" y="305"/>
      <point x="313" y="415" type="curve" smooth="yes"/>
      <point x="313" y="525"/>
      <point x="273" y="580"/>
      <point x="194" y="580" type="curve" smooth="yes"/>
      <point x="115" y="580"/>
      <point x="76" y="525"/>
      <point x="76" y="415" type="curve" smooth="yes"/>
      <point x="76" y="305"/>
      <point x="115" y="250"/>
    </contour>
    <contour>
      <point x="194" y="276" type="curve" smooth="yes"/>
      <point x="134" y="276"/>
      <point x="102" y="314"/>
      <point x="102" y="415" type="curve" smooth="yes"/>
      <point x="102" y="516"/>
      <point x="134" y="554"/>
      <point x="194" y="554" type="curve" smooth="yes"/>
      <point x="255" y="554"/>
      <point x="287" y="515"/>
      <point x="287" y="415" type="curve" smooth="yes"/>
      <point x="287" y="314"/>
      <point x="256" y="276"/>
    </contour>
  </outline>
</glyph>
